<svg width="136" height="30" viewBox="0 0 136 30" fill="none" xmlns="http://www.w3.org/2000/svg">
<path fill-rule="evenodd" clip-rule="evenodd" d="M0.666626 15C9.98903 15 15.3333 9.65577 15.3333 0.333374C15.3333 9.65577 20.6776 15 30 15C20.6776 15 15.3333 20.3443 15.3333 29.6667C15.3333 20.3443 9.98903 15 0.666626 15Z" fill="black"/>
<path d="M35.7933 21.6061L40.9133 7.60609H43.7933L48.9133 21.6061H46.1933L45.0733 18.3661H39.6133L38.4733 21.6061H35.7933ZM40.3133 16.3661H44.3733L42.3333 10.5461L40.3133 16.3661Z" fill="black"/>
<path d="M54.048 21.8461C53.0347 21.8461 52.1414 21.6261 51.368 21.1861C50.5947 20.7461 49.9814 20.1328 49.528 19.3461C49.088 18.5594 48.868 17.6594 48.868 16.6461C48.868 15.6328 49.088 14.7328 49.528 13.9461C49.9814 13.1594 50.5947 12.5461 51.368 12.1061C52.1414 11.6661 53.0347 11.4461 54.048 11.4461C55.3147 11.4461 56.3814 11.7794 57.248 12.4461C58.1147 13.0994 58.668 14.0061 58.908 15.1661H56.208C56.0747 14.6861 55.808 14.3128 55.408 14.0461C55.0214 13.7661 54.5614 13.6261 54.028 13.6261C53.3214 13.6261 52.7214 13.8928 52.228 14.4261C51.7347 14.9594 51.488 15.6994 51.488 16.6461C51.488 17.5928 51.7347 18.3328 52.228 18.8661C52.7214 19.3994 53.3214 19.6661 54.028 19.6661C54.5614 19.6661 55.0214 19.5328 55.408 19.2661C55.808 18.9994 56.0747 18.6194 56.208 18.1261H58.908C58.668 19.2461 58.1147 20.1461 57.248 20.8261C56.3814 21.5061 55.3147 21.8461 54.048 21.8461Z" fill="black"/>
<path d="M60.1802 21.6061V11.6861H62.4402L62.6602 13.0261C62.9802 12.5461 63.4002 12.1661 63.9202 11.8861C64.4535 11.5928 65.0669 11.4461 65.7602 11.4461C67.2935 11.4461 68.3802 12.0394 69.0202 13.2261C69.3802 12.6794 69.8602 12.2461 70.4602 11.9261C71.0735 11.6061 71.7402 11.4461 72.4602 11.4461C73.7535 11.4461 74.7469 11.8328 75.4402 12.6061C76.1336 13.3794 76.4802 14.5128 76.4802 16.0061V21.6061H73.9202V16.2461C73.9202 15.3928 73.7535 14.7394 73.4202 14.2861C73.1002 13.8328 72.6002 13.6061 71.9202 13.6061C71.2269 13.6061 70.6669 13.8594 70.2402 14.3661C69.8269 14.8728 69.6202 15.5794 69.6202 16.4861V21.6061H67.0602V16.2461C67.0602 15.3928 66.8935 14.7394 66.5602 14.2861C66.2269 13.8328 65.7135 13.6061 65.0202 13.6061C64.3402 13.6061 63.7869 13.8594 63.3602 14.3661C62.9469 14.8728 62.7402 15.5794 62.7402 16.4861V21.6061H60.1802Z" fill="black"/>
<path d="M82.7307 21.8461C81.7307 21.8461 80.844 21.6328 80.0707 21.2061C79.2973 20.7794 78.6907 20.1794 78.2507 19.4061C77.8107 18.6328 77.5907 17.7394 77.5907 16.7261C77.5907 15.6994 77.804 14.7861 78.2307 13.9861C78.6707 13.1861 79.2707 12.5661 80.0307 12.1261C80.804 11.6728 81.7107 11.4461 82.7507 11.4461C83.724 11.4461 84.584 11.6594 85.3307 12.0861C86.0774 12.5128 86.6574 13.0994 87.0707 13.8461C87.4974 14.5794 87.7107 15.3994 87.7107 16.3061C87.7107 16.4528 87.704 16.6061 87.6907 16.7661C87.6907 16.9261 87.684 17.0928 87.6707 17.2661H80.1307C80.184 18.0394 80.4507 18.6461 80.9307 19.0861C81.424 19.5261 82.0173 19.7461 82.7107 19.7461C83.2307 19.7461 83.664 19.6328 84.0107 19.4061C84.3707 19.1661 84.6374 18.8594 84.8107 18.4861H87.4107C87.224 19.1128 86.9107 19.6861 86.4707 20.2061C86.044 20.7128 85.5107 21.1128 84.8707 21.4061C84.244 21.6994 83.5307 21.8461 82.7307 21.8461ZM82.7507 13.5261C82.124 13.5261 81.5707 13.7061 81.0907 14.0661C80.6107 14.4128 80.304 14.9461 80.1707 15.6661H85.1107C85.0707 15.0128 84.8307 14.4928 84.3907 14.1061C83.9507 13.7194 83.404 13.5261 82.7507 13.5261Z" fill="black"/>
<path d="M99.0294 21.8461C97.6161 21.8461 96.4028 21.5461 95.3894 20.9461C94.3761 20.3328 93.5961 19.4861 93.0494 18.4061C92.5028 17.3128 92.2294 16.0528 92.2294 14.6261C92.2294 13.1994 92.5028 11.9394 93.0494 10.8461C93.5961 9.75276 94.3761 8.89942 95.3894 8.28609C96.4028 7.67276 97.6161 7.36609 99.0294 7.36609C100.709 7.36609 102.083 7.78609 103.149 8.62609C104.229 9.45276 104.903 10.6194 105.169 12.1261H102.349C102.176 11.3661 101.803 10.7728 101.229 10.3461C100.669 9.90609 99.9228 9.68609 98.9894 9.68609C97.6961 9.68609 96.6828 10.1261 95.9494 11.0061C95.2161 11.8861 94.8494 13.0928 94.8494 14.6261C94.8494 16.1594 95.2161 17.3661 95.9494 18.2461C96.6828 19.1128 97.6961 19.5461 98.9894 19.5461C99.9228 19.5461 100.669 19.3461 101.229 18.9461C101.803 18.5328 102.176 17.9661 102.349 17.2461H105.169C104.903 18.6861 104.229 19.8128 103.149 20.6261C102.083 21.4394 100.709 21.8461 99.0294 21.8461Z" fill="black"/>
<path d="M111.136 21.8461C110.176 21.8461 109.309 21.6261 108.536 21.1861C107.776 20.7461 107.169 20.1394 106.716 19.3661C106.276 18.5794 106.056 17.6728 106.056 16.6461C106.056 15.6194 106.282 14.7194 106.736 13.9461C107.189 13.1594 107.796 12.5461 108.556 12.1061C109.329 11.6661 110.196 11.4461 111.156 11.4461C112.102 11.4461 112.956 11.6661 113.716 12.1061C114.489 12.5461 115.096 13.1594 115.536 13.9461C115.989 14.7194 116.216 15.6194 116.216 16.6461C116.216 17.6728 115.989 18.5794 115.536 19.3661C115.096 20.1394 114.489 20.7461 113.716 21.1861C112.942 21.6261 112.082 21.8461 111.136 21.8461ZM111.136 19.6261C111.802 19.6261 112.382 19.3794 112.876 18.8861C113.369 18.3794 113.616 17.6328 113.616 16.6461C113.616 15.6594 113.369 14.9194 112.876 14.4261C112.382 13.9194 111.809 13.6661 111.156 13.6661C110.476 13.6661 109.889 13.9194 109.396 14.4261C108.916 14.9194 108.676 15.6594 108.676 16.6461C108.676 17.6328 108.916 18.3794 109.396 18.8861C109.889 19.3794 110.469 19.6261 111.136 19.6261Z" fill="black"/>
<path d="M117.504 21.6061V11.6861H119.784L120.024 13.5461C120.384 12.9061 120.871 12.3994 121.484 12.0261C122.111 11.6394 122.844 11.4461 123.684 11.4461V14.1461H122.964C122.404 14.1461 121.904 14.2328 121.464 14.4061C121.024 14.5794 120.678 14.8794 120.424 15.3061C120.184 15.7328 120.064 16.3261 120.064 17.0861V21.6061H117.504Z" fill="black"/>
<path d="M124.434 26.0061V11.6861H126.714L126.994 13.1061C127.314 12.6661 127.734 12.2794 128.254 11.9461C128.787 11.6128 129.474 11.4461 130.314 11.4461C131.247 11.4461 132.081 11.6728 132.814 12.1261C133.547 12.5794 134.127 13.1994 134.554 13.9861C134.981 14.7728 135.194 15.6661 135.194 16.6661C135.194 17.6661 134.981 18.5594 134.554 19.3461C134.127 20.1194 133.547 20.7328 132.814 21.1861C132.081 21.6261 131.247 21.8461 130.314 21.8461C129.567 21.8461 128.914 21.7061 128.354 21.4261C127.794 21.1461 127.341 20.7528 126.994 20.2461V26.0061H124.434ZM129.774 19.6061C130.587 19.6061 131.261 19.3328 131.794 18.7861C132.327 18.2394 132.594 17.5328 132.594 16.6661C132.594 15.7994 132.327 15.0861 131.794 14.5261C131.261 13.9661 130.587 13.6861 129.774 13.6861C128.947 13.6861 128.267 13.9661 127.734 14.5261C127.214 15.0728 126.954 15.7794 126.954 16.6461C126.954 17.5128 127.214 18.2261 127.734 18.7861C128.267 19.3328 128.947 19.6061 129.774 19.6061Z" fill="black"/>
</svg>
