<svg width="485" height="237" viewBox="0 0 485 237" fill="none" xmlns="http://www.w3.org/2000/svg">
<g filter="url(#filter0_dddddd_51_3899)">
<g clip-path="url(#clip0_51_3899)">
<g opacity="0.75">
<path d="M-91 111C-91 106.582 -87.4183 103 -83 103H10C14.4183 103 18 106.582 18 111V127C18 131.418 14.4183 135 10 135H-83C-87.4183 135 -91 131.418 -91 127V111Z" fill="#22242E"/>
<rect x="22" y="103" width="96" height="32" rx="8" fill="#22242E"/>
<g clip-path="url(#clip1_51_3899)">
<path d="M44.6667 119L42 116.333M42 116.333L39.3334 119M42 116.333V121.667M48.6667 119C48.6667 122.682 45.6819 125.667 42 125.667C38.3181 125.667 35.3334 122.682 35.3334 119C35.3334 115.318 38.3181 112.333 42 112.333C45.6819 112.333 48.6667 115.318 48.6667 119Z" stroke="#30A5FF" stroke-linecap="round" stroke-linejoin="round"/>
</g>
<path d="M56.9588 123V114.273H62.3707V115.406H58.2756V118.065H61.983V119.195H58.2756V123H56.9588ZM65.9244 123.132C65.3108 123.132 64.7753 122.991 64.3179 122.71C63.8605 122.429 63.5054 122.036 63.2525 121.53C62.9997 121.024 62.8733 120.433 62.8733 119.757C62.8733 119.078 62.9997 118.484 63.2525 117.976C63.5054 117.467 63.8605 117.072 64.3179 116.791C64.7753 116.51 65.3108 116.369 65.9244 116.369C66.5381 116.369 67.0736 116.51 67.531 116.791C67.9883 117.072 68.3435 117.467 68.5963 117.976C68.8491 118.484 68.9756 119.078 68.9756 119.757C68.9756 120.433 68.8491 121.024 68.5963 121.53C68.3435 122.036 67.9883 122.429 67.531 122.71C67.0736 122.991 66.5381 123.132 65.9244 123.132ZM65.9287 122.062C66.3264 122.062 66.656 121.957 66.9173 121.747C67.1787 121.537 67.3719 121.257 67.4969 120.908C67.6247 120.558 67.6886 120.173 67.6886 119.753C67.6886 119.335 67.6247 118.952 67.4969 118.602C67.3719 118.25 67.1787 117.967 66.9173 117.754C66.656 117.541 66.3264 117.435 65.9287 117.435C65.5281 117.435 65.1957 117.541 64.9315 117.754C64.6702 117.967 64.4756 118.25 64.3477 118.602C64.2227 118.952 64.1602 119.335 64.1602 119.753C64.1602 120.173 64.2227 120.558 64.3477 120.908C64.4756 121.257 64.6702 121.537 64.9315 121.747C65.1957 121.957 65.5281 122.062 65.9287 122.062ZM71.4319 114.273V123H70.1578V114.273H71.4319ZM74.1802 114.273V123H72.9061V114.273H74.1802ZM78.4114 123.132C77.7978 123.132 77.2623 122.991 76.8049 122.71C76.3475 122.429 75.9924 122.036 75.7396 121.53C75.4867 121.024 75.3603 120.433 75.3603 119.757C75.3603 119.078 75.4867 118.484 75.7396 117.976C75.9924 117.467 76.3475 117.072 76.8049 116.791C77.2623 116.51 77.7978 116.369 78.4114 116.369C79.0251 116.369 79.5606 116.51 80.018 116.791C80.4754 117.072 80.8305 117.467 81.0833 117.976C81.3362 118.484 81.4626 119.078 81.4626 119.757C81.4626 120.433 81.3362 121.024 81.0833 121.53C80.8305 122.036 80.4754 122.429 80.018 122.71C79.5606 122.991 79.0251 123.132 78.4114 123.132ZM78.4157 122.062C78.8134 122.062 79.143 121.957 79.4043 121.747C79.6657 121.537 79.8589 121.257 79.9839 120.908C80.1117 120.558 80.1757 120.173 80.1757 119.753C80.1757 119.335 80.1117 118.952 79.9839 118.602C79.8589 118.25 79.6657 117.967 79.4043 117.754C79.143 117.541 78.8134 117.435 78.4157 117.435C78.0151 117.435 77.6828 117.541 77.4186 117.754C77.1572 117.967 76.9626 118.25 76.8347 118.602C76.7097 118.952 76.6472 119.335 76.6472 119.753C76.6472 120.173 76.7097 120.558 76.8347 120.908C76.9626 121.257 77.1572 121.537 77.4186 121.747C77.6828 121.957 78.0151 122.062 78.4157 122.062ZM83.8646 123L81.9385 116.455H83.2553L84.5379 121.261H84.6018L85.8888 116.455H87.2055L88.4839 121.24H88.5479L89.822 116.455H91.1388L89.2169 123H87.9172L86.5876 118.274H86.4896L85.1601 123H83.8646ZM94.7297 123.132C94.0849 123.132 93.5295 122.994 93.0636 122.719C92.6005 122.44 92.2425 122.05 91.9897 121.547C91.7397 121.041 91.6147 120.449 91.6147 119.77C91.6147 119.099 91.7397 118.509 91.9897 117.997C92.2425 117.486 92.5948 117.087 93.0465 116.8C93.5011 116.513 94.0323 116.369 94.6403 116.369C95.0096 116.369 95.3675 116.43 95.7141 116.553C96.0607 116.675 96.3718 116.866 96.6474 117.128C96.9229 117.389 97.1403 117.729 97.2993 118.146C97.4584 118.561 97.538 119.065 97.538 119.659V120.111H92.3349V119.156H96.2894C96.2894 118.821 96.2212 118.524 96.0849 118.266C95.9485 118.004 95.7567 117.798 95.5096 117.648C95.2653 117.497 94.9783 117.422 94.6488 117.422C94.2908 117.422 93.9783 117.51 93.7113 117.686C93.4471 117.859 93.2425 118.087 93.0976 118.368C92.9556 118.646 92.8846 118.949 92.8846 119.276V120.021C92.8846 120.459 92.9613 120.831 93.1147 121.138C93.2709 121.445 93.4883 121.679 93.7667 121.841C94.0451 122 94.3704 122.08 94.7425 122.08C94.984 122.08 95.2042 122.045 95.403 121.977C95.6019 121.906 95.7738 121.801 95.9187 121.662C96.0636 121.523 96.1743 121.351 96.2511 121.146L97.457 121.364C97.3604 121.719 97.1871 122.03 96.9371 122.297C96.69 122.561 96.3789 122.767 96.0039 122.915C95.6317 123.06 95.207 123.132 94.7297 123.132ZM101.162 123.128C100.634 123.128 100.162 122.993 99.7472 122.723C99.3353 122.45 99.0114 122.062 98.7756 121.56C98.5427 121.054 98.4262 120.447 98.4262 119.74C98.4262 119.033 98.5441 118.428 98.7799 117.925C99.0185 117.422 99.3452 117.037 99.76 116.77C100.175 116.503 100.645 116.369 101.17 116.369C101.577 116.369 101.903 116.438 102.151 116.574C102.401 116.707 102.594 116.864 102.73 117.043C102.869 117.222 102.977 117.379 103.054 117.516H103.131V114.273H104.405V123H103.161V121.982H103.054C102.977 122.121 102.867 122.28 102.722 122.459C102.58 122.638 102.384 122.794 102.134 122.928C101.884 123.061 101.56 123.128 101.162 123.128ZM101.443 122.041C101.81 122.041 102.119 121.945 102.372 121.751C102.628 121.555 102.821 121.284 102.952 120.938C103.085 120.591 103.152 120.187 103.152 119.727C103.152 119.273 103.087 118.875 102.956 118.534C102.825 118.193 102.634 117.928 102.381 117.737C102.128 117.547 101.815 117.452 101.443 117.452C101.06 117.452 100.74 117.551 100.484 117.75C100.229 117.949 100.036 118.22 99.9049 118.564C99.777 118.908 99.7131 119.295 99.7131 119.727C99.7131 120.165 99.7785 120.558 99.9091 120.908C100.04 121.257 100.233 121.534 100.489 121.739C100.747 121.94 101.065 122.041 101.443 122.041Z" fill="#B0B0B0"/>
<path d="M122 111C122 106.582 125.582 103 130 103H223C227.418 103 231 106.582 231 111V127C231 131.418 227.418 135 223 135H130C125.582 135 122 131.418 122 127V111Z" fill="#22242E"/>
<g clip-path="url(#clip2_51_3899)">
<path d="M139.333 119L142 121.667M142 121.667L144.667 119M142 121.667V116.333M135.333 119C135.333 115.318 138.318 112.333 142 112.333C145.682 112.333 148.667 115.318 148.667 119C148.667 122.682 145.682 125.667 142 125.667C138.318 125.667 135.333 122.682 135.333 119Z" stroke="#FF0000" stroke-linecap="round" stroke-linejoin="round"/>
</g>
<path d="M162.571 114.273H163.892V120.013C163.892 120.624 163.749 121.165 163.462 121.636C163.175 122.105 162.771 122.474 162.251 122.744C161.732 123.011 161.122 123.145 160.423 123.145C159.727 123.145 159.119 123.011 158.599 122.744C158.08 122.474 157.676 122.105 157.389 121.636C157.102 121.165 156.959 120.624 156.959 120.013V114.273H158.276V119.906C158.276 120.301 158.362 120.652 158.536 120.959C158.712 121.266 158.96 121.507 159.281 121.683C159.602 121.857 159.983 121.943 160.423 121.943C160.866 121.943 161.249 121.857 161.57 121.683C161.893 121.507 162.141 121.266 162.311 120.959C162.484 120.652 162.571 120.301 162.571 119.906V114.273ZM166.738 119.114V123H165.464V116.455H166.687V117.52H166.768C166.919 117.173 167.155 116.895 167.476 116.685C167.799 116.474 168.207 116.369 168.699 116.369C169.145 116.369 169.535 116.463 169.87 116.651C170.206 116.835 170.466 117.111 170.65 117.477C170.835 117.844 170.927 118.297 170.927 118.837V123H169.653V118.99C169.653 118.516 169.53 118.145 169.282 117.878C169.035 117.608 168.696 117.473 168.264 117.473C167.968 117.473 167.706 117.537 167.476 117.665C167.248 117.793 167.068 117.98 166.934 118.227C166.804 118.472 166.738 118.767 166.738 119.114ZM175.511 116.455V117.477H171.812V116.455H175.511ZM172.826 123V115.696C172.826 115.287 172.916 114.947 173.095 114.678C173.274 114.405 173.511 114.202 173.807 114.068C174.102 113.932 174.423 113.864 174.77 113.864C175.025 113.864 175.244 113.885 175.426 113.928C175.608 113.967 175.743 114.004 175.831 114.038L175.532 115.07C175.473 115.053 175.396 115.033 175.302 115.01C175.209 114.984 175.095 114.972 174.961 114.972C174.652 114.972 174.43 115.048 174.297 115.202C174.166 115.355 174.101 115.577 174.101 115.866V123H172.826ZM179.085 123.132C178.471 123.132 177.936 122.991 177.479 122.71C177.021 122.429 176.666 122.036 176.413 121.53C176.16 121.024 176.034 120.433 176.034 119.757C176.034 119.078 176.16 118.484 176.413 117.976C176.666 117.467 177.021 117.072 177.479 116.791C177.936 116.51 178.471 116.369 179.085 116.369C179.699 116.369 180.234 116.51 180.692 116.791C181.149 117.072 181.504 117.467 181.757 117.976C182.01 118.484 182.136 119.078 182.136 119.757C182.136 120.433 182.01 121.024 181.757 121.53C181.504 122.036 181.149 122.429 180.692 122.71C180.234 122.991 179.699 123.132 179.085 123.132ZM179.089 122.062C179.487 122.062 179.817 121.957 180.078 121.747C180.339 121.537 180.532 121.257 180.657 120.908C180.785 120.558 180.849 120.173 180.849 119.753C180.849 119.335 180.785 118.952 180.657 118.602C180.532 118.25 180.339 117.967 180.078 117.754C179.817 117.541 179.487 117.435 179.089 117.435C178.689 117.435 178.356 117.541 178.092 117.754C177.831 117.967 177.636 118.25 177.508 118.602C177.383 118.952 177.321 119.335 177.321 119.753C177.321 120.173 177.383 120.558 177.508 120.908C177.636 121.257 177.831 121.537 178.092 121.747C178.356 121.957 178.689 122.062 179.089 122.062ZM184.593 114.273V123H183.318V114.273H184.593ZM187.341 114.273V123H186.067V114.273H187.341ZM191.572 123.132C190.958 123.132 190.423 122.991 189.966 122.71C189.508 122.429 189.153 122.036 188.9 121.53C188.647 121.024 188.521 120.433 188.521 119.757C188.521 119.078 188.647 118.484 188.9 117.976C189.153 117.467 189.508 117.072 189.966 116.791C190.423 116.51 190.958 116.369 191.572 116.369C192.186 116.369 192.721 116.51 193.179 116.791C193.636 117.072 193.991 117.467 194.244 117.976C194.497 118.484 194.623 119.078 194.623 119.757C194.623 120.433 194.497 121.024 194.244 121.53C193.991 122.036 193.636 122.429 193.179 122.71C192.721 122.991 192.186 123.132 191.572 123.132ZM191.576 122.062C191.974 122.062 192.304 121.957 192.565 121.747C192.826 121.537 193.02 121.257 193.145 120.908C193.272 120.558 193.336 120.173 193.336 119.753C193.336 119.335 193.272 118.952 193.145 118.602C193.02 118.25 192.826 117.967 192.565 117.754C192.304 117.541 191.974 117.435 191.576 117.435C191.176 117.435 190.843 117.541 190.579 117.754C190.318 117.967 190.123 118.25 189.995 118.602C189.87 118.952 189.808 119.335 189.808 119.753C189.808 120.173 189.87 120.558 189.995 120.908C190.123 121.257 190.318 121.537 190.579 121.747C190.843 121.957 191.176 122.062 191.576 122.062ZM197.025 123L195.099 116.455H196.416L197.699 121.261H197.762L199.049 116.455H200.366L201.645 121.24H201.708L202.983 116.455H204.299L202.378 123H201.078L199.748 118.274H199.65L198.321 123H197.025ZM207.89 123.132C207.245 123.132 206.69 122.994 206.224 122.719C205.761 122.44 205.403 122.05 205.15 121.547C204.9 121.041 204.775 120.449 204.775 119.77C204.775 119.099 204.9 118.509 205.15 117.997C205.403 117.486 205.755 117.087 206.207 116.8C206.662 116.513 207.193 116.369 207.801 116.369C208.17 116.369 208.528 116.43 208.875 116.553C209.221 116.675 209.532 116.866 209.808 117.128C210.084 117.389 210.301 117.729 210.46 118.146C210.619 118.561 210.699 119.065 210.699 119.659V120.111H205.495V119.156H209.45C209.45 118.821 209.382 118.524 209.245 118.266C209.109 118.004 208.917 117.798 208.67 117.648C208.426 117.497 208.139 117.422 207.809 117.422C207.451 117.422 207.139 117.51 206.872 117.686C206.608 117.859 206.403 118.087 206.258 118.368C206.116 118.646 206.045 118.949 206.045 119.276V120.021C206.045 120.459 206.122 120.831 206.275 121.138C206.432 121.445 206.649 121.679 206.927 121.841C207.206 122 207.531 122.08 207.903 122.08C208.145 122.08 208.365 122.045 208.564 121.977C208.763 121.906 208.934 121.801 209.079 121.662C209.224 121.523 209.335 121.351 209.412 121.146L210.618 121.364C210.521 121.719 210.348 122.03 210.098 122.297C209.851 122.561 209.54 122.767 209.165 122.915C208.792 123.06 208.368 123.132 207.89 123.132ZM214.323 123.128C213.794 123.128 213.323 122.993 212.908 122.723C212.496 122.45 212.172 122.062 211.936 121.56C211.703 121.054 211.587 120.447 211.587 119.74C211.587 119.033 211.705 118.428 211.94 117.925C212.179 117.422 212.506 117.037 212.921 116.77C213.335 116.503 213.806 116.369 214.331 116.369C214.737 116.369 215.064 116.438 215.311 116.574C215.561 116.707 215.754 116.864 215.891 117.043C216.03 117.222 216.138 117.379 216.215 117.516H216.291V114.273H217.565V123H216.321V121.982H216.215C216.138 122.121 216.027 122.28 215.882 122.459C215.74 122.638 215.544 122.794 215.294 122.928C215.044 123.061 214.72 123.128 214.323 123.128ZM214.604 122.041C214.97 122.041 215.28 121.945 215.533 121.751C215.789 121.555 215.982 121.284 216.112 120.938C216.246 120.591 216.313 120.187 216.313 119.727C216.313 119.273 216.247 118.875 216.117 118.534C215.986 118.193 215.794 117.928 215.541 117.737C215.289 117.547 214.976 117.452 214.604 117.452C214.22 117.452 213.901 117.551 213.645 117.75C213.389 117.949 213.196 118.22 213.065 118.564C212.938 118.908 212.874 119.295 212.874 119.727C212.874 120.165 212.939 120.558 213.07 120.908C213.2 121.257 213.394 121.534 213.649 121.739C213.908 121.94 214.226 122.041 214.604 122.041Z" fill="#B0B0B0"/>
<rect x="235" y="103" width="96" height="32" rx="8" fill="#22242E"/>
<g clip-path="url(#clip3_51_3899)">
<path d="M257.667 119L255 116.333M255 116.333L252.333 119M255 116.333V121.667M261.667 119C261.667 122.682 258.682 125.667 255 125.667C251.318 125.667 248.333 122.682 248.333 119C248.333 115.318 251.318 112.333 255 112.333C258.682 112.333 261.667 115.318 261.667 119Z" stroke="#30A5FF" stroke-linecap="round" stroke-linejoin="round"/>
</g>
<path d="M269.959 123V114.273H275.371V115.406H271.276V118.065H274.983V119.195H271.276V123H269.959ZM278.924 123.132C278.311 123.132 277.775 122.991 277.318 122.71C276.86 122.429 276.505 122.036 276.253 121.53C276 121.024 275.873 120.433 275.873 119.757C275.873 119.078 276 118.484 276.253 117.976C276.505 117.467 276.86 117.072 277.318 116.791C277.775 116.51 278.311 116.369 278.924 116.369C279.538 116.369 280.074 116.51 280.531 116.791C280.988 117.072 281.343 117.467 281.596 117.976C281.849 118.484 281.976 119.078 281.976 119.757C281.976 120.433 281.849 121.024 281.596 121.53C281.343 122.036 280.988 122.429 280.531 122.71C280.074 122.991 279.538 123.132 278.924 123.132ZM278.929 122.062C279.326 122.062 279.656 121.957 279.917 121.747C280.179 121.537 280.372 121.257 280.497 120.908C280.625 120.558 280.689 120.173 280.689 119.753C280.689 119.335 280.625 118.952 280.497 118.602C280.372 118.25 280.179 117.967 279.917 117.754C279.656 117.541 279.326 117.435 278.929 117.435C278.528 117.435 278.196 117.541 277.932 117.754C277.67 117.967 277.476 118.25 277.348 118.602C277.223 118.952 277.16 119.335 277.16 119.753C277.16 120.173 277.223 120.558 277.348 120.908C277.476 121.257 277.67 121.537 277.932 121.747C278.196 121.957 278.528 122.062 278.929 122.062ZM284.432 114.273V123H283.158V114.273H284.432ZM287.18 114.273V123H285.906V114.273H287.18ZM291.411 123.132C290.798 123.132 290.262 122.991 289.805 122.71C289.348 122.429 288.992 122.036 288.74 121.53C288.487 121.024 288.36 120.433 288.36 119.757C288.36 119.078 288.487 118.484 288.74 117.976C288.992 117.467 289.348 117.072 289.805 116.791C290.262 116.51 290.798 116.369 291.411 116.369C292.025 116.369 292.561 116.51 293.018 116.791C293.475 117.072 293.83 117.467 294.083 117.976C294.336 118.484 294.463 119.078 294.463 119.757C294.463 120.433 294.336 121.024 294.083 121.53C293.83 122.036 293.475 122.429 293.018 122.71C292.561 122.991 292.025 123.132 291.411 123.132ZM291.416 122.062C291.813 122.062 292.143 121.957 292.404 121.747C292.666 121.537 292.859 121.257 292.984 120.908C293.112 120.558 293.176 120.173 293.176 119.753C293.176 119.335 293.112 118.952 292.984 118.602C292.859 118.25 292.666 117.967 292.404 117.754C292.143 117.541 291.813 117.435 291.416 117.435C291.015 117.435 290.683 117.541 290.419 117.754C290.157 117.967 289.963 118.25 289.835 118.602C289.71 118.952 289.647 119.335 289.647 119.753C289.647 120.173 289.71 120.558 289.835 120.908C289.963 121.257 290.157 121.537 290.419 121.747C290.683 121.957 291.015 122.062 291.416 122.062ZM296.865 123L294.938 116.455H296.255L297.538 121.261H297.602L298.889 116.455H300.206L301.484 121.24H301.548L302.822 116.455H304.139L302.217 123H300.917L299.588 118.274H299.49L298.16 123H296.865ZM307.73 123.132C307.085 123.132 306.529 122.994 306.064 122.719C305.6 122.44 305.243 122.05 304.99 121.547C304.74 121.041 304.615 120.449 304.615 119.77C304.615 119.099 304.74 118.509 304.99 117.997C305.243 117.486 305.595 117.087 306.047 116.8C306.501 116.513 307.032 116.369 307.64 116.369C308.01 116.369 308.368 116.43 308.714 116.553C309.061 116.675 309.372 116.866 309.647 117.128C309.923 117.389 310.14 117.729 310.299 118.146C310.458 118.561 310.538 119.065 310.538 119.659V120.111H305.335V119.156H309.289C309.289 118.821 309.221 118.524 309.085 118.266C308.948 118.004 308.757 117.798 308.51 117.648C308.265 117.497 307.978 117.422 307.649 117.422C307.291 117.422 306.978 117.51 306.711 117.686C306.447 117.859 306.243 118.087 306.098 118.368C305.956 118.646 305.885 118.949 305.885 119.276V120.021C305.885 120.459 305.961 120.831 306.115 121.138C306.271 121.445 306.488 121.679 306.767 121.841C307.045 122 307.37 122.08 307.743 122.08C307.984 122.08 308.204 122.045 308.403 121.977C308.602 121.906 308.774 121.801 308.919 121.662C309.064 121.523 309.174 121.351 309.251 121.146L310.457 121.364C310.36 121.719 310.187 122.03 309.937 122.297C309.69 122.561 309.379 122.767 309.004 122.915C308.632 123.06 308.207 123.132 307.73 123.132ZM314.162 123.128C313.634 123.128 313.162 122.993 312.747 122.723C312.335 122.45 312.011 122.062 311.776 121.56C311.543 121.054 311.426 120.447 311.426 119.74C311.426 119.033 311.544 118.428 311.78 117.925C312.019 117.422 312.345 117.037 312.76 116.77C313.175 116.503 313.645 116.369 314.17 116.369C314.577 116.369 314.903 116.438 315.151 116.574C315.401 116.707 315.594 116.864 315.73 117.043C315.869 117.222 315.977 117.379 316.054 117.516H316.131V114.273H317.405V123H316.161V121.982H316.054C315.977 122.121 315.867 122.28 315.722 122.459C315.58 122.638 315.384 122.794 315.134 122.928C314.884 123.061 314.56 123.128 314.162 123.128ZM314.443 122.041C314.81 122.041 315.119 121.945 315.372 121.751C315.628 121.555 315.821 121.284 315.952 120.938C316.085 120.591 316.152 120.187 316.152 119.727C316.152 119.273 316.087 118.875 315.956 118.534C315.825 118.193 315.634 117.928 315.381 117.737C315.128 117.547 314.815 117.452 314.443 117.452C314.06 117.452 313.74 117.551 313.484 117.75C313.229 117.949 313.036 118.22 312.905 118.564C312.777 118.908 312.713 119.295 312.713 119.727C312.713 120.165 312.778 120.558 312.909 120.908C313.04 121.257 313.233 121.534 313.489 121.739C313.747 121.94 314.065 122.041 314.443 122.041Z" fill="#B0B0B0"/>
<path d="M335 111C335 106.582 338.582 103 343 103H436C440.418 103 444 106.582 444 111V127C444 131.418 440.418 135 436 135H343C338.582 135 335 131.418 335 127V111Z" fill="#22242E"/>
<g clip-path="url(#clip4_51_3899)">
<path d="M352.333 119L355 121.667M355 121.667L357.667 119M355 121.667V116.333M348.333 119C348.333 115.318 351.318 112.333 355 112.333C358.682 112.333 361.667 115.318 361.667 119C361.667 122.682 358.682 125.667 355 125.667C351.318 125.667 348.333 122.682 348.333 119Z" stroke="#FF0000" stroke-linecap="round" stroke-linejoin="round"/>
</g>
<path d="M375.571 114.273H376.892V120.013C376.892 120.624 376.749 121.165 376.462 121.636C376.175 122.105 375.771 122.474 375.251 122.744C374.732 123.011 374.122 123.145 373.423 123.145C372.727 123.145 372.119 123.011 371.599 122.744C371.08 122.474 370.676 122.105 370.389 121.636C370.102 121.165 369.959 120.624 369.959 120.013V114.273H371.276V119.906C371.276 120.301 371.362 120.652 371.536 120.959C371.712 121.266 371.96 121.507 372.281 121.683C372.602 121.857 372.983 121.943 373.423 121.943C373.866 121.943 374.249 121.857 374.57 121.683C374.893 121.507 375.141 121.266 375.311 120.959C375.484 120.652 375.571 120.301 375.571 119.906V114.273ZM379.738 119.114V123H378.464V116.455H379.687V117.52H379.768C379.919 117.173 380.155 116.895 380.476 116.685C380.799 116.474 381.207 116.369 381.699 116.369C382.145 116.369 382.535 116.463 382.87 116.651C383.206 116.835 383.466 117.111 383.65 117.477C383.835 117.844 383.927 118.297 383.927 118.837V123H382.653V118.99C382.653 118.516 382.53 118.145 382.282 117.878C382.035 117.608 381.696 117.473 381.264 117.473C380.968 117.473 380.706 117.537 380.476 117.665C380.248 117.793 380.068 117.98 379.934 118.227C379.804 118.472 379.738 118.767 379.738 119.114ZM388.511 116.455V117.477H384.812V116.455H388.511ZM385.826 123V115.696C385.826 115.287 385.916 114.947 386.095 114.678C386.274 114.405 386.511 114.202 386.807 114.068C387.102 113.932 387.423 113.864 387.77 113.864C388.025 113.864 388.244 113.885 388.426 113.928C388.608 113.967 388.743 114.004 388.831 114.038L388.532 115.07C388.473 115.053 388.396 115.033 388.302 115.01C388.209 114.984 388.095 114.972 387.961 114.972C387.652 114.972 387.43 115.048 387.297 115.202C387.166 115.355 387.101 115.577 387.101 115.866V123H385.826ZM392.085 123.132C391.471 123.132 390.936 122.991 390.479 122.71C390.021 122.429 389.666 122.036 389.413 121.53C389.16 121.024 389.034 120.433 389.034 119.757C389.034 119.078 389.16 118.484 389.413 117.976C389.666 117.467 390.021 117.072 390.479 116.791C390.936 116.51 391.471 116.369 392.085 116.369C392.699 116.369 393.234 116.51 393.692 116.791C394.149 117.072 394.504 117.467 394.757 117.976C395.01 118.484 395.136 119.078 395.136 119.757C395.136 120.433 395.01 121.024 394.757 121.53C394.504 122.036 394.149 122.429 393.692 122.71C393.234 122.991 392.699 123.132 392.085 123.132ZM392.089 122.062C392.487 122.062 392.817 121.957 393.078 121.747C393.339 121.537 393.532 121.257 393.657 120.908C393.785 120.558 393.849 120.173 393.849 119.753C393.849 119.335 393.785 118.952 393.657 118.602C393.532 118.25 393.339 117.967 393.078 117.754C392.817 117.541 392.487 117.435 392.089 117.435C391.689 117.435 391.356 117.541 391.092 117.754C390.831 117.967 390.636 118.25 390.508 118.602C390.383 118.952 390.321 119.335 390.321 119.753C390.321 120.173 390.383 120.558 390.508 120.908C390.636 121.257 390.831 121.537 391.092 121.747C391.356 121.957 391.689 122.062 392.089 122.062ZM397.593 114.273V123H396.318V114.273H397.593ZM400.341 114.273V123H399.067V114.273H400.341ZM404.572 123.132C403.958 123.132 403.423 122.991 402.966 122.71C402.508 122.429 402.153 122.036 401.9 121.53C401.647 121.024 401.521 120.433 401.521 119.757C401.521 119.078 401.647 118.484 401.9 117.976C402.153 117.467 402.508 117.072 402.966 116.791C403.423 116.51 403.958 116.369 404.572 116.369C405.186 116.369 405.721 116.51 406.179 116.791C406.636 117.072 406.991 117.467 407.244 117.976C407.497 118.484 407.623 119.078 407.623 119.757C407.623 120.433 407.497 121.024 407.244 121.53C406.991 122.036 406.636 122.429 406.179 122.71C405.721 122.991 405.186 123.132 404.572 123.132ZM404.576 122.062C404.974 122.062 405.304 121.957 405.565 121.747C405.826 121.537 406.02 121.257 406.145 120.908C406.272 120.558 406.336 120.173 406.336 119.753C406.336 119.335 406.272 118.952 406.145 118.602C406.02 118.25 405.826 117.967 405.565 117.754C405.304 117.541 404.974 117.435 404.576 117.435C404.176 117.435 403.843 117.541 403.579 117.754C403.318 117.967 403.123 118.25 402.995 118.602C402.87 118.952 402.808 119.335 402.808 119.753C402.808 120.173 402.87 120.558 402.995 120.908C403.123 121.257 403.318 121.537 403.579 121.747C403.843 121.957 404.176 122.062 404.576 122.062ZM410.025 123L408.099 116.455H409.416L410.699 121.261H410.762L412.049 116.455H413.366L414.645 121.24H414.708L415.983 116.455H417.299L415.378 123H414.078L412.748 118.274H412.65L411.321 123H410.025ZM420.89 123.132C420.245 123.132 419.69 122.994 419.224 122.719C418.761 122.44 418.403 122.05 418.15 121.547C417.9 121.041 417.775 120.449 417.775 119.77C417.775 119.099 417.9 118.509 418.15 117.997C418.403 117.486 418.755 117.087 419.207 116.8C419.662 116.513 420.193 116.369 420.801 116.369C421.17 116.369 421.528 116.43 421.875 116.553C422.221 116.675 422.532 116.866 422.808 117.128C423.084 117.389 423.301 117.729 423.46 118.146C423.619 118.561 423.699 119.065 423.699 119.659V120.111H418.495V119.156H422.45C422.45 118.821 422.382 118.524 422.245 118.266C422.109 118.004 421.917 117.798 421.67 117.648C421.426 117.497 421.139 117.422 420.809 117.422C420.451 117.422 420.139 117.51 419.872 117.686C419.608 117.859 419.403 118.087 419.258 118.368C419.116 118.646 419.045 118.949 419.045 119.276V120.021C419.045 120.459 419.122 120.831 419.275 121.138C419.432 121.445 419.649 121.679 419.927 121.841C420.206 122 420.531 122.08 420.903 122.08C421.145 122.08 421.365 122.045 421.564 121.977C421.763 121.906 421.934 121.801 422.079 121.662C422.224 121.523 422.335 121.351 422.412 121.146L423.618 121.364C423.521 121.719 423.348 122.03 423.098 122.297C422.851 122.561 422.54 122.767 422.165 122.915C421.792 123.06 421.368 123.132 420.89 123.132ZM427.323 123.128C426.794 123.128 426.323 122.993 425.908 122.723C425.496 122.45 425.172 122.062 424.936 121.56C424.703 121.054 424.587 120.447 424.587 119.74C424.587 119.033 424.705 118.428 424.94 117.925C425.179 117.422 425.506 117.037 425.921 116.77C426.335 116.503 426.806 116.369 427.331 116.369C427.737 116.369 428.064 116.438 428.311 116.574C428.561 116.707 428.754 116.864 428.891 117.043C429.03 117.222 429.138 117.379 429.215 117.516H429.291V114.273H430.565V123H429.321V121.982H429.215C429.138 122.121 429.027 122.28 428.882 122.459C428.74 122.638 428.544 122.794 428.294 122.928C428.044 123.061 427.72 123.128 427.323 123.128ZM427.604 122.041C427.97 122.041 428.28 121.945 428.533 121.751C428.789 121.555 428.982 121.284 429.112 120.938C429.246 120.591 429.313 120.187 429.313 119.727C429.313 119.273 429.247 118.875 429.117 118.534C428.986 118.193 428.794 117.928 428.541 117.737C428.289 117.547 427.976 117.452 427.604 117.452C427.22 117.452 426.901 117.551 426.645 117.75C426.389 117.949 426.196 118.22 426.065 118.564C425.938 118.908 425.874 119.295 425.874 119.727C425.874 120.165 425.939 120.558 426.07 120.908C426.2 121.257 426.394 121.534 426.649 121.739C426.908 121.94 427.226 122.041 427.604 122.041Z" fill="#B0B0B0"/>
<rect x="448" y="103" width="96" height="32" rx="8" fill="#22242E"/>
<g clip-path="url(#clip5_51_3899)">
<path d="M470.667 119L468 116.333M468 116.333L465.333 119M468 116.333V121.667M474.667 119C474.667 122.682 471.682 125.667 468 125.667C464.318 125.667 461.333 122.682 461.333 119C461.333 115.318 464.318 112.333 468 112.333C471.682 112.333 474.667 115.318 474.667 119Z" stroke="#30A5FF" stroke-linecap="round" stroke-linejoin="round"/>
</g>
</g>
<g opacity="0.75">
<path d="M-7 75C-7 70.5817 -3.41828 67 1 67H94C98.4183 67 102 70.5817 102 75V91C102 95.4183 98.4183 99 94 99H0.999998C-3.41828 99 -7 95.4183 -7 91V75Z" fill="#22242E"/>
<g clip-path="url(#clip6_51_3899)">
<path d="M10.3333 82.9998L13 85.6665M13 85.6665L15.6666 82.9998M13 85.6665V80.3332M6.33329 82.9998C6.33329 79.3179 9.31806 76.3332 13 76.3332C16.6819 76.3332 19.6666 79.3179 19.6666 82.9998C19.6666 86.6817 16.6819 89.6665 13 89.6665C9.31806 89.6665 6.33329 86.6817 6.33329 82.9998Z" stroke="#FF0000" stroke-linecap="round" stroke-linejoin="round"/>
</g>
<path d="M33.571 78.2727H34.892V84.0128C34.892 84.6236 34.7486 85.1648 34.4616 85.6364C34.1747 86.1051 33.7713 86.4744 33.2514 86.7443C32.7315 87.0114 32.1222 87.1449 31.4233 87.1449C30.7273 87.1449 30.1193 87.0114 29.5994 86.7443C29.0795 86.4744 28.6761 86.1051 28.3892 85.6364C28.1023 85.1648 27.9588 84.6236 27.9588 84.0128V78.2727H29.2756V83.9062C29.2756 84.3011 29.3622 84.652 29.5355 84.9588C29.7116 85.2656 29.9602 85.5071 30.2812 85.6832C30.6023 85.8565 30.983 85.9432 31.4233 85.9432C31.8665 85.9432 32.2486 85.8565 32.5696 85.6832C32.8935 85.5071 33.1406 85.2656 33.3111 84.9588C33.4844 84.652 33.571 84.3011 33.571 83.9062V78.2727ZM37.7383 83.1136V87H36.4642V80.4545H37.6872V81.5199H37.7682C37.9187 81.1733 38.1545 80.8949 38.4756 80.6847C38.7994 80.4744 39.2071 80.3693 39.6986 80.3693C40.1446 80.3693 40.5352 80.4631 40.8704 80.6506C41.2057 80.8352 41.4656 81.1108 41.6503 81.4773C41.8349 81.8437 41.9273 82.2969 41.9273 82.8366V87H40.6531V82.9901C40.6531 82.5156 40.5295 82.1449 40.2824 81.8778C40.0352 81.608 39.6957 81.473 39.2639 81.473C38.9685 81.473 38.7057 81.5369 38.4756 81.6648C38.2483 81.7926 38.0679 81.9801 37.9344 82.2273C37.8037 82.4716 37.7383 82.767 37.7383 83.1136ZM46.5111 80.4545V81.4773H42.8123V80.4545H46.5111ZM43.8265 87V79.696C43.8265 79.2869 43.916 78.9474 44.0949 78.6776C44.2739 78.4048 44.5111 78.2017 44.8066 78.0682C45.102 77.9318 45.4231 77.8636 45.7696 77.8636C46.0253 77.8636 46.2441 77.8849 46.4259 77.9276C46.6077 77.9673 46.7427 78.0043 46.8307 78.0384L46.5324 79.0696C46.4728 79.0526 46.3961 79.0327 46.3023 79.0099C46.2086 78.9844 46.0949 78.9716 45.9614 78.9716C45.6517 78.9716 45.4302 79.0483 45.2966 79.2017C45.166 79.3551 45.1006 79.5767 45.1006 79.8665V87H43.8265ZM50.085 87.1321C49.4714 87.1321 48.9359 86.9915 48.4785 86.7102C48.0211 86.429 47.666 86.0355 47.4132 85.5298C47.1603 85.0241 47.0339 84.4332 47.0339 83.7571C47.0339 83.0781 47.1603 82.4844 47.4132 81.9759C47.666 81.4673 48.0211 81.0724 48.4785 80.7912C48.9359 80.5099 49.4714 80.3693 50.085 80.3693C50.6987 80.3693 51.2342 80.5099 51.6916 80.7912C52.149 81.0724 52.5041 81.4673 52.7569 81.9759C53.0098 82.4844 53.1362 83.0781 53.1362 83.7571C53.1362 84.4332 53.0098 85.0241 52.7569 85.5298C52.5041 86.0355 52.149 86.429 51.6916 86.7102C51.2342 86.9915 50.6987 87.1321 50.085 87.1321ZM50.0893 86.0625C50.487 86.0625 50.8166 85.9574 51.0779 85.7472C51.3393 85.5369 51.5325 85.2571 51.6575 84.9077C51.7853 84.5582 51.8492 84.1733 51.8492 83.7528C51.8492 83.3352 51.7853 82.9517 51.6575 82.6023C51.5325 82.25 51.3393 81.9673 51.0779 81.7543C50.8166 81.5412 50.487 81.4347 50.0893 81.4347C49.6887 81.4347 49.3564 81.5412 49.0921 81.7543C48.8308 81.9673 48.6362 82.25 48.5083 82.6023C48.3833 82.9517 48.3208 83.3352 48.3208 83.7528C48.3208 84.1733 48.3833 84.5582 48.5083 84.9077C48.6362 85.2571 48.8308 85.5369 49.0921 85.7472C49.3564 85.9574 49.6887 86.0625 50.0893 86.0625ZM55.5926 78.2727V87H54.3184V78.2727H55.5926ZM58.3408 78.2727V87H57.0667V78.2727H58.3408ZM62.5721 87.1321C61.9584 87.1321 61.4229 86.9915 60.9655 86.7102C60.5082 86.429 60.153 86.0355 59.9002 85.5298C59.6474 85.0241 59.5209 84.4332 59.5209 83.7571C59.5209 83.0781 59.6474 82.4844 59.9002 81.9759C60.153 81.4673 60.5082 81.0724 60.9655 80.7912C61.4229 80.5099 61.9584 80.3693 62.5721 80.3693C63.1857 80.3693 63.7212 80.5099 64.1786 80.7912C64.636 81.0724 64.9911 81.4673 65.2439 81.9759C65.4968 82.4844 65.6232 83.0781 65.6232 83.7571C65.6232 84.4332 65.4968 85.0241 65.2439 85.5298C64.9911 86.0355 64.636 86.429 64.1786 86.7102C63.7212 86.9915 63.1857 87.1321 62.5721 87.1321ZM62.5763 86.0625C62.9741 86.0625 63.3036 85.9574 63.565 85.7472C63.8263 85.5369 64.0195 85.2571 64.1445 84.9077C64.2724 84.5582 64.3363 84.1733 64.3363 83.7528C64.3363 83.3352 64.2724 82.9517 64.1445 82.6023C64.0195 82.25 63.8263 81.9673 63.565 81.7543C63.3036 81.5412 62.9741 81.4347 62.5763 81.4347C62.1758 81.4347 61.8434 81.5412 61.5792 81.7543C61.3178 81.9673 61.1232 82.25 60.9954 82.6023C60.8704 82.9517 60.8079 83.3352 60.8079 83.7528C60.8079 84.1733 60.8704 84.5582 60.9954 84.9077C61.1232 85.2571 61.3178 85.5369 61.5792 85.7472C61.8434 85.9574 62.1758 86.0625 62.5763 86.0625ZM68.0253 87L66.0991 80.4545H67.4159L68.6986 85.2614H68.7625L70.0494 80.4545H71.3662L72.6446 85.2401H72.7085L73.9826 80.4545H75.2994L73.3775 87H72.0778L70.7483 82.2741H70.6503L69.3207 87H68.0253ZM78.8904 87.1321C78.2455 87.1321 77.6901 86.9943 77.2242 86.7188C76.7611 86.4403 76.4032 86.0497 76.1503 85.5469C75.9003 85.0412 75.7753 84.4489 75.7753 83.7699C75.7753 83.0994 75.9003 82.5085 76.1503 81.9972C76.4032 81.4858 76.7554 81.0866 77.2071 80.7997C77.6617 80.5128 78.1929 80.3693 78.8009 80.3693C79.1702 80.3693 79.5282 80.4304 79.8747 80.5526C80.2213 80.6747 80.5324 80.8665 80.808 81.1278C81.0836 81.3892 81.3009 81.7287 81.46 82.1463C81.6191 82.5611 81.6986 83.0653 81.6986 83.6591V84.1108H76.4955V83.1562H80.45C80.45 82.821 80.3818 82.5241 80.2455 82.2656C80.1091 82.0043 79.9174 81.7983 79.6702 81.6477C79.4259 81.4972 79.139 81.4219 78.8094 81.4219C78.4515 81.4219 78.139 81.5099 77.8719 81.6861C77.6077 81.8594 77.4032 82.0866 77.2583 82.3679C77.1162 82.6463 77.0452 82.9489 77.0452 83.2756V84.0213C77.0452 84.4588 77.1219 84.831 77.2753 85.1378C77.4316 85.4446 77.6489 85.679 77.9273 85.8409C78.2057 86 78.531 86.0795 78.9032 86.0795C79.1446 86.0795 79.3648 86.0455 79.5637 85.9773C79.7625 85.9062 79.9344 85.8011 80.0793 85.6619C80.2242 85.5227 80.335 85.3509 80.4117 85.1463L81.6176 85.3636C81.5211 85.7187 81.3478 86.0298 81.0978 86.2969C80.8506 86.5611 80.5395 86.767 80.1645 86.9148C79.7924 87.0597 79.3676 87.1321 78.8904 87.1321ZM85.3226 87.1278C84.7942 87.1278 84.3226 86.9929 83.9078 86.723C83.4959 86.4503 83.172 86.0625 82.9362 85.5597C82.7033 85.054 82.5868 84.4474 82.5868 83.7401C82.5868 83.0327 82.7047 82.4276 82.9405 81.9247C83.1791 81.4219 83.5058 81.0369 83.9206 80.7699C84.3354 80.5028 84.8056 80.3693 85.3311 80.3693C85.7374 80.3693 86.0641 80.4375 86.3112 80.5739C86.5612 80.7074 86.7544 80.8636 86.8908 81.0426C87.03 81.2216 87.1379 81.3793 87.2146 81.5156H87.2913V78.2727H88.5655V87H87.3212V85.9815H87.2146C87.1379 86.1207 87.0271 86.2798 86.8823 86.4588C86.7402 86.6378 86.5442 86.794 86.2942 86.9276C86.0442 87.0611 85.7203 87.1278 85.3226 87.1278ZM85.6038 86.0412C85.9703 86.0412 86.28 85.9446 86.5328 85.7514C86.7885 85.5554 86.9817 85.2841 87.1124 84.9375C87.2459 84.5909 87.3127 84.1875 87.3127 83.7273C87.3127 83.2727 87.2473 82.875 87.1166 82.5341C86.986 82.1932 86.7942 81.9276 86.5413 81.7372C86.2885 81.5469 85.976 81.4517 85.6038 81.4517C85.2203 81.4517 84.9007 81.5511 84.645 81.75C84.3894 81.9489 84.1962 82.2202 84.0655 82.5639C83.9377 82.9077 83.8737 83.2955 83.8737 83.7273C83.8737 84.1648 83.9391 84.5582 84.0698 84.9077C84.2004 85.2571 84.3936 85.5341 84.6493 85.7386C84.9078 85.9403 85.226 86.0412 85.6038 86.0412Z" fill="#B0B0B0"/>
<rect x="106" y="67" width="96" height="32" rx="8" fill="#22242E"/>
<g clip-path="url(#clip7_51_3899)">
<path d="M128.667 83.0002L126 80.3335M126 80.3335L123.333 83.0002M126 80.3335V85.6668M132.667 83.0002C132.667 86.6821 129.682 89.6668 126 89.6668C122.318 89.6668 119.333 86.6821 119.333 83.0002C119.333 79.3183 122.318 76.3335 126 76.3335C129.682 76.3335 132.667 79.3183 132.667 83.0002Z" stroke="#30A5FF" stroke-linecap="round" stroke-linejoin="round"/>
</g>
<path d="M140.959 87V78.2727H146.371V79.4062H142.276V82.0653H145.983V83.1946H142.276V87H140.959ZM149.924 87.1321C149.311 87.1321 148.775 86.9915 148.318 86.7102C147.86 86.429 147.505 86.0355 147.253 85.5298C147 85.0241 146.873 84.4332 146.873 83.7571C146.873 83.0781 147 82.4844 147.253 81.9759C147.505 81.4673 147.86 81.0724 148.318 80.7912C148.775 80.5099 149.311 80.3693 149.924 80.3693C150.538 80.3693 151.074 80.5099 151.531 80.7912C151.988 81.0724 152.343 81.4673 152.596 81.9759C152.849 82.4844 152.976 83.0781 152.976 83.7571C152.976 84.4332 152.849 85.0241 152.596 85.5298C152.343 86.0355 151.988 86.429 151.531 86.7102C151.074 86.9915 150.538 87.1321 149.924 87.1321ZM149.929 86.0625C150.326 86.0625 150.656 85.9574 150.917 85.7472C151.179 85.5369 151.372 85.2571 151.497 84.9077C151.625 84.5582 151.689 84.1733 151.689 83.7528C151.689 83.3352 151.625 82.9517 151.497 82.6023C151.372 82.25 151.179 81.9673 150.917 81.7543C150.656 81.5412 150.326 81.4347 149.929 81.4347C149.528 81.4347 149.196 81.5412 148.932 81.7543C148.67 81.9673 148.476 82.25 148.348 82.6023C148.223 82.9517 148.16 83.3352 148.16 83.7528C148.16 84.1733 148.223 84.5582 148.348 84.9077C148.476 85.2571 148.67 85.5369 148.932 85.7472C149.196 85.9574 149.528 86.0625 149.929 86.0625ZM155.432 78.2727V87H154.158V78.2727H155.432ZM158.18 78.2727V87H156.906V78.2727H158.18ZM162.411 87.1321C161.798 87.1321 161.262 86.9915 160.805 86.7102C160.348 86.429 159.992 86.0355 159.74 85.5298C159.487 85.0241 159.36 84.4332 159.36 83.7571C159.36 83.0781 159.487 82.4844 159.74 81.9759C159.992 81.4673 160.348 81.0724 160.805 80.7912C161.262 80.5099 161.798 80.3693 162.411 80.3693C163.025 80.3693 163.561 80.5099 164.018 80.7912C164.475 81.0724 164.83 81.4673 165.083 81.9759C165.336 82.4844 165.463 83.0781 165.463 83.7571C165.463 84.4332 165.336 85.0241 165.083 85.5298C164.83 86.0355 164.475 86.429 164.018 86.7102C163.561 86.9915 163.025 87.1321 162.411 87.1321ZM162.416 86.0625C162.813 86.0625 163.143 85.9574 163.404 85.7472C163.666 85.5369 163.859 85.2571 163.984 84.9077C164.112 84.5582 164.176 84.1733 164.176 83.7528C164.176 83.3352 164.112 82.9517 163.984 82.6023C163.859 82.25 163.666 81.9673 163.404 81.7543C163.143 81.5412 162.813 81.4347 162.416 81.4347C162.015 81.4347 161.683 81.5412 161.419 81.7543C161.157 81.9673 160.963 82.25 160.835 82.6023C160.71 82.9517 160.647 83.3352 160.647 83.7528C160.647 84.1733 160.71 84.5582 160.835 84.9077C160.963 85.2571 161.157 85.5369 161.419 85.7472C161.683 85.9574 162.015 86.0625 162.416 86.0625ZM167.865 87L165.938 80.4545H167.255L168.538 85.2614H168.602L169.889 80.4545H171.206L172.484 85.2401H172.548L173.822 80.4545H175.139L173.217 87H171.917L170.588 82.2741H170.49L169.16 87H167.865ZM178.73 87.1321C178.085 87.1321 177.529 86.9943 177.064 86.7188C176.6 86.4403 176.243 86.0497 175.99 85.5469C175.74 85.0412 175.615 84.4489 175.615 83.7699C175.615 83.0994 175.74 82.5085 175.99 81.9972C176.243 81.4858 176.595 81.0866 177.047 80.7997C177.501 80.5128 178.032 80.3693 178.64 80.3693C179.01 80.3693 179.368 80.4304 179.714 80.5526C180.061 80.6747 180.372 80.8665 180.647 81.1278C180.923 81.3892 181.14 81.7287 181.299 82.1463C181.458 82.5611 181.538 83.0653 181.538 83.6591V84.1108H176.335V83.1562H180.289C180.289 82.821 180.221 82.5241 180.085 82.2656C179.948 82.0043 179.757 81.7983 179.51 81.6477C179.265 81.4972 178.978 81.4219 178.649 81.4219C178.291 81.4219 177.978 81.5099 177.711 81.6861C177.447 81.8594 177.243 82.0866 177.098 82.3679C176.956 82.6463 176.885 82.9489 176.885 83.2756V84.0213C176.885 84.4588 176.961 84.831 177.115 85.1378C177.271 85.4446 177.488 85.679 177.767 85.8409C178.045 86 178.37 86.0795 178.743 86.0795C178.984 86.0795 179.204 86.0455 179.403 85.9773C179.602 85.9062 179.774 85.8011 179.919 85.6619C180.064 85.5227 180.174 85.3509 180.251 85.1463L181.457 85.3636C181.36 85.7187 181.187 86.0298 180.937 86.2969C180.69 86.5611 180.379 86.767 180.004 86.9148C179.632 87.0597 179.207 87.1321 178.73 87.1321ZM185.162 87.1278C184.634 87.1278 184.162 86.9929 183.747 86.723C183.335 86.4503 183.011 86.0625 182.776 85.5597C182.543 85.054 182.426 84.4474 182.426 83.7401C182.426 83.0327 182.544 82.4276 182.78 81.9247C183.019 81.4219 183.345 81.0369 183.76 80.7699C184.175 80.5028 184.645 80.3693 185.17 80.3693C185.577 80.3693 185.903 80.4375 186.151 80.5739C186.401 80.7074 186.594 80.8636 186.73 81.0426C186.869 81.2216 186.977 81.3793 187.054 81.5156H187.131V78.2727H188.405V87H187.161V85.9815H187.054C186.977 86.1207 186.867 86.2798 186.722 86.4588C186.58 86.6378 186.384 86.794 186.134 86.9276C185.884 87.0611 185.56 87.1278 185.162 87.1278ZM185.443 86.0412C185.81 86.0412 186.119 85.9446 186.372 85.7514C186.628 85.5554 186.821 85.2841 186.952 84.9375C187.085 84.5909 187.152 84.1875 187.152 83.7273C187.152 83.2727 187.087 82.875 186.956 82.5341C186.825 82.1932 186.634 81.9276 186.381 81.7372C186.128 81.5469 185.815 81.4517 185.443 81.4517C185.06 81.4517 184.74 81.5511 184.484 81.75C184.229 81.9489 184.036 82.2202 183.905 82.5639C183.777 82.9077 183.713 83.2955 183.713 83.7273C183.713 84.1648 183.778 84.5582 183.909 84.9077C184.04 85.2571 184.233 85.5341 184.489 85.7386C184.747 85.9403 185.065 86.0412 185.443 86.0412Z" fill="#B0B0B0"/>
<path d="M206 75C206 70.5817 209.582 67 214 67H307C311.418 67 315 70.5817 315 75V91C315 95.4183 311.418 99 307 99H214C209.582 99 206 95.4183 206 91V75Z" fill="#22242E"/>
<g clip-path="url(#clip8_51_3899)">
<path d="M223.333 82.9998L226 85.6665M226 85.6665L228.667 82.9998M226 85.6665V80.3332M219.333 82.9998C219.333 79.3179 222.318 76.3332 226 76.3332C229.682 76.3332 232.667 79.3179 232.667 82.9998C232.667 86.6817 229.682 89.6665 226 89.6665C222.318 89.6665 219.333 86.6817 219.333 82.9998Z" stroke="#FF0000" stroke-linecap="round" stroke-linejoin="round"/>
</g>
<path d="M246.571 78.2727H247.892V84.0128C247.892 84.6236 247.749 85.1648 247.462 85.6364C247.175 86.1051 246.771 86.4744 246.251 86.7443C245.732 87.0114 245.122 87.1449 244.423 87.1449C243.727 87.1449 243.119 87.0114 242.599 86.7443C242.08 86.4744 241.676 86.1051 241.389 85.6364C241.102 85.1648 240.959 84.6236 240.959 84.0128V78.2727H242.276V83.9062C242.276 84.3011 242.362 84.652 242.536 84.9588C242.712 85.2656 242.96 85.5071 243.281 85.6832C243.602 85.8565 243.983 85.9432 244.423 85.9432C244.866 85.9432 245.249 85.8565 245.57 85.6832C245.893 85.5071 246.141 85.2656 246.311 84.9588C246.484 84.652 246.571 84.3011 246.571 83.9062V78.2727ZM250.738 83.1136V87H249.464V80.4545H250.687V81.5199H250.768C250.919 81.1733 251.155 80.8949 251.476 80.6847C251.799 80.4744 252.207 80.3693 252.699 80.3693C253.145 80.3693 253.535 80.4631 253.87 80.6506C254.206 80.8352 254.466 81.1108 254.65 81.4773C254.835 81.8437 254.927 82.2969 254.927 82.8366V87H253.653V82.9901C253.653 82.5156 253.53 82.1449 253.282 81.8778C253.035 81.608 252.696 81.473 252.264 81.473C251.968 81.473 251.706 81.5369 251.476 81.6648C251.248 81.7926 251.068 81.9801 250.934 82.2273C250.804 82.4716 250.738 82.767 250.738 83.1136ZM259.511 80.4545V81.4773H255.812V80.4545H259.511ZM256.826 87V79.696C256.826 79.2869 256.916 78.9474 257.095 78.6776C257.274 78.4048 257.511 78.2017 257.807 78.0682C258.102 77.9318 258.423 77.8636 258.77 77.8636C259.025 77.8636 259.244 77.8849 259.426 77.9276C259.608 77.9673 259.743 78.0043 259.831 78.0384L259.532 79.0696C259.473 79.0526 259.396 79.0327 259.302 79.0099C259.209 78.9844 259.095 78.9716 258.961 78.9716C258.652 78.9716 258.43 79.0483 258.297 79.2017C258.166 79.3551 258.101 79.5767 258.101 79.8665V87H256.826ZM263.085 87.1321C262.471 87.1321 261.936 86.9915 261.479 86.7102C261.021 86.429 260.666 86.0355 260.413 85.5298C260.16 85.0241 260.034 84.4332 260.034 83.7571C260.034 83.0781 260.16 82.4844 260.413 81.9759C260.666 81.4673 261.021 81.0724 261.479 80.7912C261.936 80.5099 262.471 80.3693 263.085 80.3693C263.699 80.3693 264.234 80.5099 264.692 80.7912C265.149 81.0724 265.504 81.4673 265.757 81.9759C266.01 82.4844 266.136 83.0781 266.136 83.7571C266.136 84.4332 266.01 85.0241 265.757 85.5298C265.504 86.0355 265.149 86.429 264.692 86.7102C264.234 86.9915 263.699 87.1321 263.085 87.1321ZM263.089 86.0625C263.487 86.0625 263.817 85.9574 264.078 85.7472C264.339 85.5369 264.532 85.2571 264.657 84.9077C264.785 84.5582 264.849 84.1733 264.849 83.7528C264.849 83.3352 264.785 82.9517 264.657 82.6023C264.532 82.25 264.339 81.9673 264.078 81.7543C263.817 81.5412 263.487 81.4347 263.089 81.4347C262.689 81.4347 262.356 81.5412 262.092 81.7543C261.831 81.9673 261.636 82.25 261.508 82.6023C261.383 82.9517 261.321 83.3352 261.321 83.7528C261.321 84.1733 261.383 84.5582 261.508 84.9077C261.636 85.2571 261.831 85.5369 262.092 85.7472C262.356 85.9574 262.689 86.0625 263.089 86.0625ZM268.593 78.2727V87H267.318V78.2727H268.593ZM271.341 78.2727V87H270.067V78.2727H271.341ZM275.572 87.1321C274.958 87.1321 274.423 86.9915 273.966 86.7102C273.508 86.429 273.153 86.0355 272.9 85.5298C272.647 85.0241 272.521 84.4332 272.521 83.7571C272.521 83.0781 272.647 82.4844 272.9 81.9759C273.153 81.4673 273.508 81.0724 273.966 80.7912C274.423 80.5099 274.958 80.3693 275.572 80.3693C276.186 80.3693 276.721 80.5099 277.179 80.7912C277.636 81.0724 277.991 81.4673 278.244 81.9759C278.497 82.4844 278.623 83.0781 278.623 83.7571C278.623 84.4332 278.497 85.0241 278.244 85.5298C277.991 86.0355 277.636 86.429 277.179 86.7102C276.721 86.9915 276.186 87.1321 275.572 87.1321ZM275.576 86.0625C275.974 86.0625 276.304 85.9574 276.565 85.7472C276.826 85.5369 277.02 85.2571 277.145 84.9077C277.272 84.5582 277.336 84.1733 277.336 83.7528C277.336 83.3352 277.272 82.9517 277.145 82.6023C277.02 82.25 276.826 81.9673 276.565 81.7543C276.304 81.5412 275.974 81.4347 275.576 81.4347C275.176 81.4347 274.843 81.5412 274.579 81.7543C274.318 81.9673 274.123 82.25 273.995 82.6023C273.87 82.9517 273.808 83.3352 273.808 83.7528C273.808 84.1733 273.87 84.5582 273.995 84.9077C274.123 85.2571 274.318 85.5369 274.579 85.7472C274.843 85.9574 275.176 86.0625 275.576 86.0625ZM281.025 87L279.099 80.4545H280.416L281.699 85.2614H281.762L283.049 80.4545H284.366L285.645 85.2401H285.708L286.983 80.4545H288.299L286.378 87H285.078L283.748 82.2741H283.65L282.321 87H281.025ZM291.89 87.1321C291.245 87.1321 290.69 86.9943 290.224 86.7188C289.761 86.4403 289.403 86.0497 289.15 85.5469C288.9 85.0412 288.775 84.4489 288.775 83.7699C288.775 83.0994 288.9 82.5085 289.15 81.9972C289.403 81.4858 289.755 81.0866 290.207 80.7997C290.662 80.5128 291.193 80.3693 291.801 80.3693C292.17 80.3693 292.528 80.4304 292.875 80.5526C293.221 80.6747 293.532 80.8665 293.808 81.1278C294.084 81.3892 294.301 81.7287 294.46 82.1463C294.619 82.5611 294.699 83.0653 294.699 83.6591V84.1108H289.495V83.1562H293.45C293.45 82.821 293.382 82.5241 293.245 82.2656C293.109 82.0043 292.917 81.7983 292.67 81.6477C292.426 81.4972 292.139 81.4219 291.809 81.4219C291.451 81.4219 291.139 81.5099 290.872 81.6861C290.608 81.8594 290.403 82.0866 290.258 82.3679C290.116 82.6463 290.045 82.9489 290.045 83.2756V84.0213C290.045 84.4588 290.122 84.831 290.275 85.1378C290.432 85.4446 290.649 85.679 290.927 85.8409C291.206 86 291.531 86.0795 291.903 86.0795C292.145 86.0795 292.365 86.0455 292.564 85.9773C292.763 85.9062 292.934 85.8011 293.079 85.6619C293.224 85.5227 293.335 85.3509 293.412 85.1463L294.618 85.3636C294.521 85.7187 294.348 86.0298 294.098 86.2969C293.851 86.5611 293.54 86.767 293.165 86.9148C292.792 87.0597 292.368 87.1321 291.89 87.1321ZM298.323 87.1278C297.794 87.1278 297.323 86.9929 296.908 86.723C296.496 86.4503 296.172 86.0625 295.936 85.5597C295.703 85.054 295.587 84.4474 295.587 83.7401C295.587 83.0327 295.705 82.4276 295.94 81.9247C296.179 81.4219 296.506 81.0369 296.921 80.7699C297.335 80.5028 297.806 80.3693 298.331 80.3693C298.737 80.3693 299.064 80.4375 299.311 80.5739C299.561 80.7074 299.754 80.8636 299.891 81.0426C300.03 81.2216 300.138 81.3793 300.215 81.5156H300.291V78.2727H301.565V87H300.321V85.9815H300.215C300.138 86.1207 300.027 86.2798 299.882 86.4588C299.74 86.6378 299.544 86.794 299.294 86.9276C299.044 87.0611 298.72 87.1278 298.323 87.1278ZM298.604 86.0412C298.97 86.0412 299.28 85.9446 299.533 85.7514C299.789 85.5554 299.982 85.2841 300.112 84.9375C300.246 84.5909 300.313 84.1875 300.313 83.7273C300.313 83.2727 300.247 82.875 300.117 82.5341C299.986 82.1932 299.794 81.9276 299.541 81.7372C299.289 81.5469 298.976 81.4517 298.604 81.4517C298.22 81.4517 297.901 81.5511 297.645 81.75C297.389 81.9489 297.196 82.2202 297.065 82.5639C296.938 82.9077 296.874 83.2955 296.874 83.7273C296.874 84.1648 296.939 84.5582 297.07 84.9077C297.2 85.2571 297.394 85.5341 297.649 85.7386C297.908 85.9403 298.226 86.0412 298.604 86.0412Z" fill="#B0B0B0"/>
<rect x="319" y="67" width="96" height="32" rx="8" fill="#22242E"/>
<g clip-path="url(#clip9_51_3899)">
<path d="M341.667 83.0002L339 80.3335M339 80.3335L336.333 83.0002M339 80.3335V85.6668M345.667 83.0002C345.667 86.6821 342.682 89.6668 339 89.6668C335.318 89.6668 332.333 86.6821 332.333 83.0002C332.333 79.3183 335.318 76.3335 339 76.3335C342.682 76.3335 345.667 79.3183 345.667 83.0002Z" stroke="#30A5FF" stroke-linecap="round" stroke-linejoin="round"/>
</g>
<path d="M353.959 87V78.2727H359.371V79.4062H355.276V82.0653H358.983V83.1946H355.276V87H353.959ZM362.924 87.1321C362.311 87.1321 361.775 86.9915 361.318 86.7102C360.86 86.429 360.505 86.0355 360.253 85.5298C360 85.0241 359.873 84.4332 359.873 83.7571C359.873 83.0781 360 82.4844 360.253 81.9759C360.505 81.4673 360.86 81.0724 361.318 80.7912C361.775 80.5099 362.311 80.3693 362.924 80.3693C363.538 80.3693 364.074 80.5099 364.531 80.7912C364.988 81.0724 365.343 81.4673 365.596 81.9759C365.849 82.4844 365.976 83.0781 365.976 83.7571C365.976 84.4332 365.849 85.0241 365.596 85.5298C365.343 86.0355 364.988 86.429 364.531 86.7102C364.074 86.9915 363.538 87.1321 362.924 87.1321ZM362.929 86.0625C363.326 86.0625 363.656 85.9574 363.917 85.7472C364.179 85.5369 364.372 85.2571 364.497 84.9077C364.625 84.5582 364.689 84.1733 364.689 83.7528C364.689 83.3352 364.625 82.9517 364.497 82.6023C364.372 82.25 364.179 81.9673 363.917 81.7543C363.656 81.5412 363.326 81.4347 362.929 81.4347C362.528 81.4347 362.196 81.5412 361.932 81.7543C361.67 81.9673 361.476 82.25 361.348 82.6023C361.223 82.9517 361.16 83.3352 361.16 83.7528C361.16 84.1733 361.223 84.5582 361.348 84.9077C361.476 85.2571 361.67 85.5369 361.932 85.7472C362.196 85.9574 362.528 86.0625 362.929 86.0625ZM368.432 78.2727V87H367.158V78.2727H368.432ZM371.18 78.2727V87H369.906V78.2727H371.18ZM375.411 87.1321C374.798 87.1321 374.262 86.9915 373.805 86.7102C373.348 86.429 372.992 86.0355 372.74 85.5298C372.487 85.0241 372.36 84.4332 372.36 83.7571C372.36 83.0781 372.487 82.4844 372.74 81.9759C372.992 81.4673 373.348 81.0724 373.805 80.7912C374.262 80.5099 374.798 80.3693 375.411 80.3693C376.025 80.3693 376.561 80.5099 377.018 80.7912C377.475 81.0724 377.83 81.4673 378.083 81.9759C378.336 82.4844 378.463 83.0781 378.463 83.7571C378.463 84.4332 378.336 85.0241 378.083 85.5298C377.83 86.0355 377.475 86.429 377.018 86.7102C376.561 86.9915 376.025 87.1321 375.411 87.1321ZM375.416 86.0625C375.813 86.0625 376.143 85.9574 376.404 85.7472C376.666 85.5369 376.859 85.2571 376.984 84.9077C377.112 84.5582 377.176 84.1733 377.176 83.7528C377.176 83.3352 377.112 82.9517 376.984 82.6023C376.859 82.25 376.666 81.9673 376.404 81.7543C376.143 81.5412 375.813 81.4347 375.416 81.4347C375.015 81.4347 374.683 81.5412 374.419 81.7543C374.157 81.9673 373.963 82.25 373.835 82.6023C373.71 82.9517 373.647 83.3352 373.647 83.7528C373.647 84.1733 373.71 84.5582 373.835 84.9077C373.963 85.2571 374.157 85.5369 374.419 85.7472C374.683 85.9574 375.015 86.0625 375.416 86.0625ZM380.865 87L378.938 80.4545H380.255L381.538 85.2614H381.602L382.889 80.4545H384.206L385.484 85.2401H385.548L386.822 80.4545H388.139L386.217 87H384.917L383.588 82.2741H383.49L382.16 87H380.865ZM391.73 87.1321C391.085 87.1321 390.529 86.9943 390.064 86.7188C389.6 86.4403 389.243 86.0497 388.99 85.5469C388.74 85.0412 388.615 84.4489 388.615 83.7699C388.615 83.0994 388.74 82.5085 388.99 81.9972C389.243 81.4858 389.595 81.0866 390.047 80.7997C390.501 80.5128 391.032 80.3693 391.64 80.3693C392.01 80.3693 392.368 80.4304 392.714 80.5526C393.061 80.6747 393.372 80.8665 393.647 81.1278C393.923 81.3892 394.14 81.7287 394.299 82.1463C394.458 82.5611 394.538 83.0653 394.538 83.6591V84.1108H389.335V83.1562H393.289C393.289 82.821 393.221 82.5241 393.085 82.2656C392.948 82.0043 392.757 81.7983 392.51 81.6477C392.265 81.4972 391.978 81.4219 391.649 81.4219C391.291 81.4219 390.978 81.5099 390.711 81.6861C390.447 81.8594 390.243 82.0866 390.098 82.3679C389.956 82.6463 389.885 82.9489 389.885 83.2756V84.0213C389.885 84.4588 389.961 84.831 390.115 85.1378C390.271 85.4446 390.488 85.679 390.767 85.8409C391.045 86 391.37 86.0795 391.743 86.0795C391.984 86.0795 392.204 86.0455 392.403 85.9773C392.602 85.9062 392.774 85.8011 392.919 85.6619C393.064 85.5227 393.174 85.3509 393.251 85.1463L394.457 85.3636C394.36 85.7187 394.187 86.0298 393.937 86.2969C393.69 86.5611 393.379 86.767 393.004 86.9148C392.632 87.0597 392.207 87.1321 391.73 87.1321ZM398.162 87.1278C397.634 87.1278 397.162 86.9929 396.747 86.723C396.335 86.4503 396.011 86.0625 395.776 85.5597C395.543 85.054 395.426 84.4474 395.426 83.7401C395.426 83.0327 395.544 82.4276 395.78 81.9247C396.019 81.4219 396.345 81.0369 396.76 80.7699C397.175 80.5028 397.645 80.3693 398.17 80.3693C398.577 80.3693 398.903 80.4375 399.151 80.5739C399.401 80.7074 399.594 80.8636 399.73 81.0426C399.869 81.2216 399.977 81.3793 400.054 81.5156H400.131V78.2727H401.405V87H400.161V85.9815H400.054C399.977 86.1207 399.867 86.2798 399.722 86.4588C399.58 86.6378 399.384 86.794 399.134 86.9276C398.884 87.0611 398.56 87.1278 398.162 87.1278ZM398.443 86.0412C398.81 86.0412 399.119 85.9446 399.372 85.7514C399.628 85.5554 399.821 85.2841 399.952 84.9375C400.085 84.5909 400.152 84.1875 400.152 83.7273C400.152 83.2727 400.087 82.875 399.956 82.5341C399.825 82.1932 399.634 81.9276 399.381 81.7372C399.128 81.5469 398.815 81.4517 398.443 81.4517C398.06 81.4517 397.74 81.5511 397.484 81.75C397.229 81.9489 397.036 82.2202 396.905 82.5639C396.777 82.9077 396.713 83.2955 396.713 83.7273C396.713 84.1648 396.778 84.5582 396.909 84.9077C397.04 85.2571 397.233 85.5341 397.489 85.7386C397.747 85.9403 398.065 86.0412 398.443 86.0412Z" fill="#B0B0B0"/>
<path d="M419 75C419 70.5817 422.582 67 427 67H520C524.418 67 528 70.5817 528 75V91C528 95.4183 524.418 99 520 99H427C422.582 99 419 95.4183 419 91V75Z" fill="#22242E"/>
<g clip-path="url(#clip10_51_3899)">
<path d="M436.333 82.9998L439 85.6665M439 85.6665L441.667 82.9998M439 85.6665V80.3332M432.333 82.9998C432.333 79.3179 435.318 76.3332 439 76.3332C442.682 76.3332 445.667 79.3179 445.667 82.9998C445.667 86.6817 442.682 89.6665 439 89.6665C435.318 89.6665 432.333 86.6817 432.333 82.9998Z" stroke="#FF0000" stroke-linecap="round" stroke-linejoin="round"/>
</g>
<path d="M459.571 78.2727H460.892V84.0128C460.892 84.6236 460.749 85.1648 460.462 85.6364C460.175 86.1051 459.771 86.4744 459.251 86.7443C458.732 87.0114 458.122 87.1449 457.423 87.1449C456.727 87.1449 456.119 87.0114 455.599 86.7443C455.08 86.4744 454.676 86.1051 454.389 85.6364C454.102 85.1648 453.959 84.6236 453.959 84.0128V78.2727H455.276V83.9062C455.276 84.3011 455.362 84.652 455.536 84.9588C455.712 85.2656 455.96 85.5071 456.281 85.6832C456.602 85.8565 456.983 85.9432 457.423 85.9432C457.866 85.9432 458.249 85.8565 458.57 85.6832C458.893 85.5071 459.141 85.2656 459.311 84.9588C459.484 84.652 459.571 84.3011 459.571 83.9062V78.2727ZM463.738 83.1136V87H462.464V80.4545H463.687V81.5199H463.768C463.919 81.1733 464.155 80.8949 464.476 80.6847C464.799 80.4744 465.207 80.3693 465.699 80.3693C466.145 80.3693 466.535 80.4631 466.87 80.6506C467.206 80.8352 467.466 81.1108 467.65 81.4773C467.835 81.8437 467.927 82.2969 467.927 82.8366V87H466.653V82.9901C466.653 82.5156 466.53 82.1449 466.282 81.8778C466.035 81.608 465.696 81.473 465.264 81.473C464.968 81.473 464.706 81.5369 464.476 81.6648C464.248 81.7926 464.068 81.9801 463.934 82.2273C463.804 82.4716 463.738 82.767 463.738 83.1136ZM472.511 80.4545V81.4773H468.812V80.4545H472.511ZM469.826 87V79.696C469.826 79.2869 469.916 78.9474 470.095 78.6776C470.274 78.4048 470.511 78.2017 470.807 78.0682C471.102 77.9318 471.423 77.8636 471.77 77.8636C472.025 77.8636 472.244 77.8849 472.426 77.9276C472.608 77.9673 472.743 78.0043 472.831 78.0384L472.532 79.0696C472.473 79.0526 472.396 79.0327 472.302 79.0099C472.209 78.9844 472.095 78.9716 471.961 78.9716C471.652 78.9716 471.43 79.0483 471.297 79.2017C471.166 79.3551 471.101 79.5767 471.101 79.8665V87H469.826ZM476.085 87.1321C475.471 87.1321 474.936 86.9915 474.479 86.7102C474.021 86.429 473.666 86.0355 473.413 85.5298C473.16 85.0241 473.034 84.4332 473.034 83.7571C473.034 83.0781 473.16 82.4844 473.413 81.9759C473.666 81.4673 474.021 81.0724 474.479 80.7912C474.936 80.5099 475.471 80.3693 476.085 80.3693C476.699 80.3693 477.234 80.5099 477.692 80.7912C478.149 81.0724 478.504 81.4673 478.757 81.9759C479.01 82.4844 479.136 83.0781 479.136 83.7571C479.136 84.4332 479.01 85.0241 478.757 85.5298C478.504 86.0355 478.149 86.429 477.692 86.7102C477.234 86.9915 476.699 87.1321 476.085 87.1321ZM476.089 86.0625C476.487 86.0625 476.817 85.9574 477.078 85.7472C477.339 85.5369 477.532 85.2571 477.657 84.9077C477.785 84.5582 477.849 84.1733 477.849 83.7528C477.849 83.3352 477.785 82.9517 477.657 82.6023C477.532 82.25 477.339 81.9673 477.078 81.7543C476.817 81.5412 476.487 81.4347 476.089 81.4347C475.689 81.4347 475.356 81.5412 475.092 81.7543C474.831 81.9673 474.636 82.25 474.508 82.6023C474.383 82.9517 474.321 83.3352 474.321 83.7528C474.321 84.1733 474.383 84.5582 474.508 84.9077C474.636 85.2571 474.831 85.5369 475.092 85.7472C475.356 85.9574 475.689 86.0625 476.089 86.0625ZM481.593 78.2727V87H480.318V78.2727H481.593ZM484.341 78.2727V87H483.067V78.2727H484.341ZM488.572 87.1321C487.958 87.1321 487.423 86.9915 486.966 86.7102C486.508 86.429 486.153 86.0355 485.9 85.5298C485.647 85.0241 485.521 84.4332 485.521 83.7571C485.521 83.0781 485.647 82.4844 485.9 81.9759C486.153 81.4673 486.508 81.0724 486.966 80.7912C487.423 80.5099 487.958 80.3693 488.572 80.3693C489.186 80.3693 489.721 80.5099 490.179 80.7912C490.636 81.0724 490.991 81.4673 491.244 81.9759C491.497 82.4844 491.623 83.0781 491.623 83.7571C491.623 84.4332 491.497 85.0241 491.244 85.5298C490.991 86.0355 490.636 86.429 490.179 86.7102C489.721 86.9915 489.186 87.1321 488.572 87.1321ZM488.576 86.0625C488.974 86.0625 489.304 85.9574 489.565 85.7472C489.826 85.5369 490.02 85.2571 490.145 84.9077C490.272 84.5582 490.336 84.1733 490.336 83.7528C490.336 83.3352 490.272 82.9517 490.145 82.6023C490.02 82.25 489.826 81.9673 489.565 81.7543C489.304 81.5412 488.974 81.4347 488.576 81.4347C488.176 81.4347 487.843 81.5412 487.579 81.7543C487.318 81.9673 487.123 82.25 486.995 82.6023C486.87 82.9517 486.808 83.3352 486.808 83.7528C486.808 84.1733 486.87 84.5582 486.995 84.9077C487.123 85.2571 487.318 85.5369 487.579 85.7472C487.843 85.9574 488.176 86.0625 488.576 86.0625ZM494.025 87L492.099 80.4545H493.416L494.699 85.2614H494.762L496.049 80.4545H497.366L498.645 85.2401H498.708L499.983 80.4545H501.299L499.378 87H498.078L496.748 82.2741H496.65L495.321 87H494.025ZM504.89 87.1321C504.245 87.1321 503.69 86.9943 503.224 86.7188C502.761 86.4403 502.403 86.0497 502.15 85.5469C501.9 85.0412 501.775 84.4489 501.775 83.7699C501.775 83.0994 501.9 82.5085 502.15 81.9972C502.403 81.4858 502.755 81.0866 503.207 80.7997C503.662 80.5128 504.193 80.3693 504.801 80.3693C505.17 80.3693 505.528 80.4304 505.875 80.5526C506.221 80.6747 506.532 80.8665 506.808 81.1278C507.084 81.3892 507.301 81.7287 507.46 82.1463C507.619 82.5611 507.699 83.0653 507.699 83.6591V84.1108H502.495V83.1562H506.45C506.45 82.821 506.382 82.5241 506.245 82.2656C506.109 82.0043 505.917 81.7983 505.67 81.6477C505.426 81.4972 505.139 81.4219 504.809 81.4219C504.451 81.4219 504.139 81.5099 503.872 81.6861C503.608 81.8594 503.403 82.0866 503.258 82.3679C503.116 82.6463 503.045 82.9489 503.045 83.2756V84.0213C503.045 84.4588 503.122 84.831 503.275 85.1378C503.432 85.4446 503.649 85.679 503.927 85.8409C504.206 86 504.531 86.0795 504.903 86.0795C505.145 86.0795 505.365 86.0455 505.564 85.9773C505.763 85.9062 505.934 85.8011 506.079 85.6619C506.224 85.5227 506.335 85.3509 506.412 85.1463L507.618 85.3636C507.521 85.7187 507.348 86.0298 507.098 86.2969C506.851 86.5611 506.54 86.767 506.165 86.9148C505.792 87.0597 505.368 87.1321 504.89 87.1321ZM511.323 87.1278C510.794 87.1278 510.323 86.9929 509.908 86.723C509.496 86.4503 509.172 86.0625 508.936 85.5597C508.703 85.054 508.587 84.4474 508.587 83.7401C508.587 83.0327 508.705 82.4276 508.94 81.9247C509.179 81.4219 509.506 81.0369 509.921 80.7699C510.335 80.5028 510.806 80.3693 511.331 80.3693C511.737 80.3693 512.064 80.4375 512.311 80.5739C512.561 80.7074 512.754 80.8636 512.891 81.0426C513.03 81.2216 513.138 81.3793 513.215 81.5156H513.291V78.2727H514.565V87H513.321V85.9815H513.215C513.138 86.1207 513.027 86.2798 512.882 86.4588C512.74 86.6378 512.544 86.794 512.294 86.9276C512.044 87.0611 511.72 87.1278 511.323 87.1278ZM511.604 86.0412C511.97 86.0412 512.28 85.9446 512.533 85.7514C512.789 85.5554 512.982 85.2841 513.112 84.9375C513.246 84.5909 513.313 84.1875 513.313 83.7273C513.313 83.2727 513.247 82.875 513.117 82.5341C512.986 82.1932 512.794 81.9276 512.541 81.7372C512.289 81.5469 511.976 81.4517 511.604 81.4517C511.22 81.4517 510.901 81.5511 510.645 81.75C510.389 81.9489 510.196 82.2202 510.065 82.5639C509.938 82.9077 509.874 83.2955 509.874 83.7273C509.874 84.1648 509.939 84.5582 510.07 84.9077C510.2 85.2571 510.394 85.5341 510.649 85.7386C510.908 85.9403 511.226 86.0412 511.604 86.0412Z" fill="#B0B0B0"/>
</g>
<rect x="166" y="83" width="146" height="35" rx="8" fill="url(#paint0_linear_51_3899)"/>
<path d="M182.562 104.045V96.3636H184.091V104.045H182.562ZM179.489 100.966V99.4432H187.17V100.966H179.489ZM193.296 106.159C192.584 106.159 191.944 106.023 191.376 105.75C190.812 105.473 190.361 105.095 190.024 104.614C189.687 104.133 189.507 103.583 189.484 102.966H191.189C191.23 103.466 191.452 103.877 191.853 104.199C192.255 104.521 192.736 104.682 193.296 104.682C193.743 104.682 194.139 104.58 194.484 104.375C194.832 104.167 195.105 103.881 195.302 103.517C195.503 103.153 195.603 102.739 195.603 102.273C195.603 101.799 195.501 101.377 195.296 101.006C195.092 100.634 194.81 100.343 194.45 100.131C194.094 99.9186 193.685 99.8106 193.223 99.8068C192.87 99.8068 192.516 99.8674 192.16 99.9886C191.804 100.11 191.516 100.269 191.296 100.466L189.689 100.227L190.342 94.3636H196.74V95.8693H191.802L191.433 99.125H191.501C191.728 98.9053 192.029 98.7216 192.404 98.5739C192.783 98.4261 193.189 98.3523 193.62 98.3523C194.329 98.3523 194.959 98.5208 195.512 98.858C196.069 99.1951 196.507 99.6553 196.825 100.239C197.147 100.818 197.306 101.485 197.302 102.239C197.306 102.992 197.135 103.665 196.791 104.256C196.45 104.847 195.976 105.312 195.37 105.653C194.768 105.991 194.077 106.159 193.296 106.159ZM202.927 94.2045C203.446 94.2083 203.957 94.303 204.461 94.4886C204.965 94.6742 205.419 94.9773 205.824 95.3977C206.234 95.8182 206.559 96.3864 206.802 97.1023C207.048 97.8144 207.173 98.7008 207.177 99.7614C207.177 100.78 207.074 101.687 206.87 102.483C206.665 103.275 206.372 103.943 205.989 104.489C205.61 105.034 205.15 105.449 204.609 105.733C204.067 106.017 203.457 106.159 202.779 106.159C202.086 106.159 201.47 106.023 200.932 105.75C200.395 105.477 199.957 105.1 199.62 104.619C199.283 104.134 199.073 103.578 198.989 102.949H200.722C200.836 103.449 201.067 103.854 201.415 104.165C201.768 104.472 202.222 104.625 202.779 104.625C203.631 104.625 204.296 104.254 204.773 103.511C205.251 102.765 205.491 101.723 205.495 100.386H205.404C205.207 100.712 204.961 100.992 204.665 101.227C204.374 101.462 204.046 101.644 203.682 101.773C203.319 101.902 202.931 101.966 202.518 101.966C201.847 101.966 201.237 101.801 200.688 101.472C200.139 101.142 199.701 100.689 199.376 100.114C199.05 99.5379 198.887 98.8807 198.887 98.142C198.887 97.4072 199.054 96.7405 199.387 96.142C199.724 95.5436 200.194 95.0701 200.796 94.7216C201.402 94.3693 202.112 94.197 202.927 94.2045ZM202.932 95.6818C202.489 95.6818 202.09 95.7917 201.734 96.0114C201.381 96.2273 201.103 96.5208 200.898 96.892C200.694 97.2595 200.592 97.6686 200.592 98.1193C200.592 98.5701 200.69 98.9792 200.887 99.3466C201.088 99.7102 201.36 100 201.705 100.216C202.054 100.428 202.451 100.534 202.898 100.534C203.232 100.534 203.542 100.47 203.83 100.341C204.118 100.212 204.37 100.034 204.586 99.8068C204.802 99.5758 204.97 99.3144 205.092 99.0227C205.213 98.7311 205.273 98.4242 205.273 98.1023C205.273 97.6742 205.171 97.2765 204.967 96.9091C204.766 96.5417 204.489 96.2462 204.137 96.0227C203.785 95.7955 203.383 95.6818 202.932 95.6818ZM210.392 94.3636V95.4545C210.392 95.7765 210.332 96.1155 210.21 96.4716C210.093 96.8239 209.926 97.1629 209.71 97.4886C209.495 97.8144 209.241 98.0947 208.949 98.3295L208.108 97.7273C208.332 97.4015 208.525 97.0549 208.688 96.6875C208.854 96.3201 208.938 95.9148 208.938 95.4716V94.3636H210.392ZM211.777 106V104.727L215.714 100.648C216.135 100.205 216.481 99.8163 216.754 99.483C217.031 99.1458 217.237 98.8258 217.373 98.5227C217.51 98.2197 217.578 97.8977 217.578 97.5568C217.578 97.1705 217.487 96.8371 217.305 96.5568C217.123 96.2727 216.875 96.0549 216.561 95.9034C216.247 95.7481 215.892 95.6705 215.498 95.6705C215.082 95.6705 214.718 95.7557 214.408 95.9261C214.097 96.0966 213.858 96.3371 213.692 96.6477C213.525 96.9583 213.442 97.322 213.442 97.7386H211.765C211.765 97.0303 211.928 96.411 212.254 95.8807C212.58 95.3504 213.027 94.9394 213.595 94.6477C214.163 94.3523 214.809 94.2045 215.533 94.2045C216.264 94.2045 216.908 94.3504 217.464 94.642C218.025 94.9299 218.462 95.3239 218.777 95.8239C219.091 96.3201 219.248 96.8807 219.248 97.5057C219.248 97.9375 219.167 98.3598 219.004 98.7727C218.845 99.1856 218.567 99.6458 218.169 100.153C217.771 100.657 217.218 101.269 216.51 101.989L214.197 104.409V104.494H219.436V106H211.777ZM225.32 106.193C224.423 106.189 223.656 105.953 223.019 105.483C222.383 105.013 221.896 104.33 221.559 103.432C221.222 102.534 221.053 101.453 221.053 100.188C221.053 98.9261 221.222 97.8485 221.559 96.9545C221.9 96.0606 222.389 95.3788 223.025 94.9091C223.665 94.4394 224.43 94.2045 225.32 94.2045C226.211 94.2045 226.974 94.4413 227.61 94.9148C228.247 95.3845 228.733 96.0663 229.07 96.9602C229.411 97.8504 229.582 98.9261 229.582 100.188C229.582 101.456 229.413 102.54 229.076 103.438C228.739 104.331 228.252 105.015 227.616 105.489C226.98 105.958 226.214 106.193 225.32 106.193ZM225.32 104.676C226.108 104.676 226.724 104.292 227.167 103.523C227.614 102.754 227.838 101.642 227.838 100.188C227.838 99.2216 227.735 98.4053 227.531 97.7386C227.33 97.0682 227.04 96.5606 226.661 96.2159C226.286 95.8674 225.839 95.6932 225.32 95.6932C224.536 95.6932 223.921 96.0795 223.474 96.8523C223.027 97.625 222.802 98.7367 222.798 100.188C222.798 101.157 222.898 101.977 223.099 102.648C223.303 103.314 223.593 103.82 223.968 104.165C224.343 104.506 224.794 104.676 225.32 104.676ZM235.329 106.159C234.548 106.159 233.851 106.025 233.238 105.756C232.628 105.487 232.145 105.114 231.789 104.636C231.437 104.155 231.247 103.598 231.221 102.966H233.005C233.027 103.311 233.143 103.61 233.351 103.864C233.563 104.114 233.84 104.307 234.181 104.443C234.522 104.58 234.901 104.648 235.317 104.648C235.776 104.648 236.181 104.568 236.533 104.409C236.889 104.25 237.168 104.028 237.368 103.744C237.569 103.456 237.669 103.125 237.669 102.75C237.669 102.36 237.569 102.017 237.368 101.722C237.171 101.422 236.882 101.187 236.499 101.017C236.12 100.847 235.662 100.761 235.124 100.761H234.141V99.3295H235.124C235.556 99.3295 235.935 99.2519 236.26 99.0966C236.59 98.9413 236.848 98.7254 237.033 98.4489C237.219 98.1686 237.312 97.8409 237.312 97.4659C237.312 97.1061 237.23 96.7936 237.067 96.5284C236.908 96.2595 236.681 96.0492 236.385 95.8977C236.094 95.7462 235.749 95.6705 235.351 95.6705C234.973 95.6705 234.618 95.7405 234.289 95.8807C233.963 96.017 233.698 96.214 233.493 96.4716C233.289 96.7254 233.179 97.0303 233.164 97.3864H231.465C231.484 96.7576 231.669 96.2045 232.022 95.7273C232.378 95.25 232.848 94.8769 233.431 94.608C234.014 94.339 234.662 94.2045 235.374 94.2045C236.12 94.2045 236.764 94.3504 237.306 94.642C237.851 94.9299 238.272 95.3144 238.567 95.7955C238.866 96.2765 239.014 96.803 239.01 97.375C239.014 98.0265 238.832 98.5795 238.465 99.0341C238.101 99.4886 237.616 99.7936 237.01 99.9489V100.04C237.783 100.157 238.382 100.464 238.806 100.96C239.234 101.456 239.446 102.072 239.442 102.807C239.446 103.447 239.268 104.021 238.908 104.528C238.552 105.036 238.065 105.436 237.448 105.727C236.83 106.015 236.124 106.159 235.329 106.159ZM245.343 106V94.3636H252.559V95.875H247.099V99.4205H252.042V100.926H247.099V106H245.343ZM257.298 106.176C256.479 106.176 255.765 105.989 255.156 105.614C254.546 105.239 254.072 104.714 253.735 104.04C253.398 103.366 253.229 102.578 253.229 101.676C253.229 100.771 253.398 99.9792 253.735 99.3011C254.072 98.6231 254.546 98.0966 255.156 97.7216C255.765 97.3466 256.479 97.1591 257.298 97.1591C258.116 97.1591 258.83 97.3466 259.44 97.7216C260.049 98.0966 260.523 98.6231 260.86 99.3011C261.197 99.9792 261.366 100.771 261.366 101.676C261.366 102.578 261.197 103.366 260.86 104.04C260.523 104.714 260.049 105.239 259.44 105.614C258.83 105.989 258.116 106.176 257.298 106.176ZM257.303 104.75C257.834 104.75 258.273 104.61 258.621 104.33C258.97 104.049 259.227 103.676 259.394 103.21C259.565 102.744 259.65 102.231 259.65 101.67C259.65 101.114 259.565 100.602 259.394 100.136C259.227 99.6667 258.97 99.2898 258.621 99.0057C258.273 98.7216 257.834 98.5795 257.303 98.5795C256.769 98.5795 256.326 98.7216 255.974 99.0057C255.625 99.2898 255.366 99.6667 255.195 100.136C255.029 100.602 254.945 101.114 254.945 101.67C254.945 102.231 255.029 102.744 255.195 103.21C255.366 103.676 255.625 104.049 255.974 104.33C256.326 104.61 256.769 104.75 257.303 104.75ZM264.641 94.3636V106H262.942V94.3636H264.641ZM268.305 94.3636V106H266.606V94.3636H268.305ZM273.947 106.176C273.129 106.176 272.415 105.989 271.805 105.614C271.195 105.239 270.722 104.714 270.384 104.04C270.047 103.366 269.879 102.578 269.879 101.676C269.879 100.771 270.047 99.9792 270.384 99.3011C270.722 98.6231 271.195 98.0966 271.805 97.7216C272.415 97.3466 273.129 97.1591 273.947 97.1591C274.765 97.1591 275.479 97.3466 276.089 97.7216C276.699 98.0966 277.172 98.6231 277.509 99.3011C277.847 99.9792 278.015 100.771 278.015 101.676C278.015 102.578 277.847 103.366 277.509 104.04C277.172 104.714 276.699 105.239 276.089 105.614C275.479 105.989 274.765 106.176 273.947 106.176ZM273.953 104.75C274.483 104.75 274.922 104.61 275.271 104.33C275.619 104.049 275.877 103.676 276.044 103.21C276.214 102.744 276.299 102.231 276.299 101.67C276.299 101.114 276.214 100.602 276.044 100.136C275.877 99.6667 275.619 99.2898 275.271 99.0057C274.922 98.7216 274.483 98.5795 273.953 98.5795C273.419 98.5795 272.975 98.7216 272.623 99.0057C272.275 99.2898 272.015 99.6667 271.845 100.136C271.678 100.602 271.595 101.114 271.595 101.67C271.595 102.231 271.678 102.744 271.845 103.21C272.015 103.676 272.275 104.049 272.623 104.33C272.975 104.61 273.419 104.75 273.953 104.75ZM281.218 106L278.65 97.2727H280.405L282.116 103.682H282.201L283.917 97.2727H285.672L287.377 103.653H287.462L289.161 97.2727H290.917L288.354 106H286.621L284.849 99.6989H284.718L282.945 106H281.218ZM298.749 99.4034L297.209 99.6761C297.145 99.4792 297.042 99.2917 296.902 99.1136C296.766 98.9356 296.58 98.7898 296.345 98.6761C296.11 98.5625 295.817 98.5057 295.465 98.5057C294.984 98.5057 294.582 98.6136 294.26 98.8295C293.938 99.0417 293.777 99.3163 293.777 99.6534C293.777 99.9451 293.885 100.18 294.101 100.358C294.317 100.536 294.665 100.682 295.146 100.795L296.533 101.114C297.336 101.299 297.934 101.585 298.328 101.972C298.722 102.358 298.919 102.86 298.919 103.477C298.919 104 298.768 104.466 298.465 104.875C298.165 105.28 297.747 105.598 297.209 105.83C296.675 106.061 296.056 106.176 295.351 106.176C294.374 106.176 293.576 105.968 292.959 105.551C292.341 105.131 291.963 104.534 291.823 103.761L293.465 103.511C293.567 103.939 293.777 104.263 294.095 104.483C294.413 104.699 294.828 104.807 295.34 104.807C295.896 104.807 296.341 104.691 296.675 104.46C297.008 104.225 297.175 103.939 297.175 103.602C297.175 103.33 297.073 103.1 296.868 102.915C296.667 102.729 296.359 102.589 295.942 102.494L294.465 102.17C293.65 101.985 293.048 101.689 292.658 101.284C292.271 100.879 292.078 100.366 292.078 99.7443C292.078 99.2292 292.222 98.7784 292.51 98.392C292.798 98.0057 293.196 97.7045 293.703 97.4886C294.211 97.2689 294.792 97.1591 295.448 97.1591C296.391 97.1591 297.133 97.3636 297.675 97.7727C298.216 98.178 298.574 98.7216 298.749 99.4034Z" fill="white"/>
</g>
<path d="M28.5 1.5H457C465.56 1.5 472.5 8.43959 472.5 17V185C472.5 193.56 465.56 200.5 457 200.5H28.5C19.9396 200.5 13 193.56 13 185V17C13 8.43958 19.9396 1.5 28.5 1.5Z" stroke="white" stroke-opacity="0.1" shape-rendering="crispEdges"/>
</g>
<defs>
<filter id="filter0_dddddd_51_3899" x="0.5" y="0" width="484.5" height="237" filterUnits="userSpaceOnUse" color-interpolation-filters="sRGB">
<feFlood flood-opacity="0" result="BackgroundImageFix"/>
<feColorMatrix in="SourceAlpha" type="matrix" values="0 0 0 0 0 0 0 0 0 0 0 0 0 0 0 0 0 0 127 0" result="hardAlpha"/>
<feMorphology radius="12" operator="erode" in="SourceAlpha" result="effect1_dropShadow_51_3899"/>
<feOffset dy="24"/>
<feGaussianBlur stdDeviation="12"/>
<feComposite in2="hardAlpha" operator="out"/>
<feColorMatrix type="matrix" values="0 0 0 0 0.054902 0 0 0 0 0.247059 0 0 0 0 0.494118 0 0 0 0.04 0"/>
<feBlend mode="normal" in2="BackgroundImageFix" result="effect1_dropShadow_51_3899"/>
<feColorMatrix in="SourceAlpha" type="matrix" values="0 0 0 0 0 0 0 0 0 0 0 0 0 0 0 0 0 0 127 0" result="hardAlpha"/>
<feMorphology radius="6" operator="erode" in="SourceAlpha" result="effect2_dropShadow_51_3899"/>
<feOffset dy="12"/>
<feGaussianBlur stdDeviation="6"/>
<feComposite in2="hardAlpha" operator="out"/>
<feColorMatrix type="matrix" values="0 0 0 0 0.054902 0 0 0 0 0.247059 0 0 0 0 0.494118 0 0 0 0.04 0"/>
<feBlend mode="normal" in2="effect1_dropShadow_51_3899" result="effect2_dropShadow_51_3899"/>
<feColorMatrix in="SourceAlpha" type="matrix" values="0 0 0 0 0 0 0 0 0 0 0 0 0 0 0 0 0 0 127 0" result="hardAlpha"/>
<feMorphology radius="3" operator="erode" in="SourceAlpha" result="effect3_dropShadow_51_3899"/>
<feOffset dy="6"/>
<feGaussianBlur stdDeviation="3"/>
<feComposite in2="hardAlpha" operator="out"/>
<feColorMatrix type="matrix" values="0 0 0 0 0.164706 0 0 0 0 0.2 0 0 0 0 0.27451 0 0 0 0.04 0"/>
<feBlend mode="normal" in2="effect2_dropShadow_51_3899" result="effect3_dropShadow_51_3899"/>
<feColorMatrix in="SourceAlpha" type="matrix" values="0 0 0 0 0 0 0 0 0 0 0 0 0 0 0 0 0 0 127 0" result="hardAlpha"/>
<feMorphology radius="1.5" operator="erode" in="SourceAlpha" result="effect4_dropShadow_51_3899"/>
<feOffset dy="3"/>
<feGaussianBlur stdDeviation="1.5"/>
<feComposite in2="hardAlpha" operator="out"/>
<feColorMatrix type="matrix" values="0 0 0 0 0.164706 0 0 0 0 0.2 0 0 0 0 0.27451 0 0 0 0.04 0"/>
<feBlend mode="normal" in2="effect3_dropShadow_51_3899" result="effect4_dropShadow_51_3899"/>
<feColorMatrix in="SourceAlpha" type="matrix" values="0 0 0 0 0 0 0 0 0 0 0 0 0 0 0 0 0 0 127 0" result="hardAlpha"/>
<feMorphology radius="0.5" operator="erode" in="SourceAlpha" result="effect5_dropShadow_51_3899"/>
<feOffset dy="1"/>
<feGaussianBlur stdDeviation="0.5"/>
<feComposite in2="hardAlpha" operator="out"/>
<feColorMatrix type="matrix" values="0 0 0 0 0.164706 0 0 0 0 0.2 0 0 0 0 0.270588 0 0 0 0.04 0"/>
<feBlend mode="normal" in2="effect4_dropShadow_51_3899" result="effect5_dropShadow_51_3899"/>
<feColorMatrix in="SourceAlpha" type="matrix" values="0 0 0 0 0 0 0 0 0 0 0 0 0 0 0 0 0 0 127 0" result="hardAlpha"/>
<feMorphology radius="1" operator="dilate" in="SourceAlpha" result="effect6_dropShadow_51_3899"/>
<feOffset/>
<feComposite in2="hardAlpha" operator="out"/>
<feColorMatrix type="matrix" values="0 0 0 0 0.054902 0 0 0 0 0.247059 0 0 0 0 0.494118 0 0 0 0.04 0"/>
<feBlend mode="normal" in2="effect5_dropShadow_51_3899" result="effect6_dropShadow_51_3899"/>
<feBlend mode="normal" in="SourceGraphic" in2="effect6_dropShadow_51_3899" result="shape"/>
</filter>
<linearGradient id="paint0_linear_51_3899" x1="239" y1="83" x2="239" y2="118" gradientUnits="userSpaceOnUse">
<stop stop-color="#30A5FF"/>
<stop offset="1" stop-color="#0090FF"/>
</linearGradient>
<clipPath id="clip0_51_3899">
<path d="M12.5 17C12.5 8.16344 19.6634 1 28.5 1H457C465.837 1 473 8.16344 473 17V185C473 193.837 465.837 201 457 201H28.5C19.6635 201 12.5 193.837 12.5 185V17Z" fill="white"/>
</clipPath>
<clipPath id="clip1_51_3899">
<rect width="16" height="16" fill="white" transform="translate(34 111)"/>
</clipPath>
<clipPath id="clip2_51_3899">
<rect width="16" height="16" fill="white" transform="matrix(-1 0 0 -1 150 127)"/>
</clipPath>
<clipPath id="clip3_51_3899">
<rect width="16" height="16" fill="white" transform="translate(247 111)"/>
</clipPath>
<clipPath id="clip4_51_3899">
<rect width="16" height="16" fill="white" transform="matrix(-1 0 0 -1 363 127)"/>
</clipPath>
<clipPath id="clip5_51_3899">
<rect width="16" height="16" fill="white" transform="translate(460 111)"/>
</clipPath>
<clipPath id="clip6_51_3899">
<rect width="16" height="16" fill="white" transform="matrix(-1 0 0 -1 21 91)"/>
</clipPath>
<clipPath id="clip7_51_3899">
<rect width="16" height="16" fill="white" transform="translate(118 75)"/>
</clipPath>
<clipPath id="clip8_51_3899">
<rect width="16" height="16" fill="white" transform="matrix(-1 0 0 -1 234 91)"/>
</clipPath>
<clipPath id="clip9_51_3899">
<rect width="16" height="16" fill="white" transform="translate(331 75)"/>
</clipPath>
<clipPath id="clip10_51_3899">
<rect width="16" height="16" fill="white" transform="matrix(-1 0 0 -1 447 91)"/>
</clipPath>
</defs>
</svg>
