<svg width="485" height="237" viewBox="0 0 485 237" fill="none" xmlns="http://www.w3.org/2000/svg">
<g filter="url(#filter0_dddddd_51_3890)">
<path d="M28 1.5H456.5C465.06 1.5 472 8.43959 472 17V185C472 193.56 465.06 200.5 456.5 200.5H28C19.4396 200.5 12.5 193.56 12.5 185V17C12.5 8.43958 19.4396 1.5 28 1.5Z" stroke="white" stroke-opacity="0.1" shape-rendering="crispEdges"/>
<path d="M54 68C54 63.5817 57.5817 60 62 60H422C426.418 60 430 63.5817 430 68V142H62C57.5817 142 54 138.418 54 134V68Z" fill="#22242E"/>
<path d="M70.9588 86V77.2727H72.2756V81.0653H76.6264V77.2727H77.9474V86H76.6264V82.1946H72.2756V86H70.9588ZM82.2799 86.1321C81.6663 86.1321 81.1307 85.9915 80.6734 85.7102C80.216 85.429 79.8609 85.0355 79.608 84.5298C79.3552 84.0241 79.2288 83.4332 79.2288 82.7571C79.2288 82.0781 79.3552 81.4844 79.608 80.9759C79.8609 80.4673 80.216 80.0724 80.6734 79.7912C81.1307 79.5099 81.6663 79.3693 82.2799 79.3693C82.8935 79.3693 83.429 79.5099 83.8864 79.7912C84.3438 80.0724 84.6989 80.4673 84.9518 80.9759C85.2046 81.4844 85.331 82.0781 85.331 82.7571C85.331 83.4332 85.2046 84.0241 84.9518 84.5298C84.6989 85.0355 84.3438 85.429 83.8864 85.7102C83.429 85.9915 82.8935 86.1321 82.2799 86.1321ZM82.2841 85.0625C82.6819 85.0625 83.0114 84.9574 83.2728 84.7472C83.5341 84.5369 83.7273 84.2571 83.8523 83.9077C83.9802 83.5582 84.0441 83.1733 84.0441 82.7528C84.0441 82.3352 83.9802 81.9517 83.8523 81.6023C83.7273 81.25 83.5341 80.9673 83.2728 80.7543C83.0114 80.5412 82.6819 80.4347 82.2841 80.4347C81.8836 80.4347 81.5512 80.5412 81.287 80.7543C81.0256 80.9673 80.831 81.25 80.7032 81.6023C80.5782 81.9517 80.5157 82.3352 80.5157 82.7528C80.5157 83.1733 80.5782 83.5582 80.7032 83.9077C80.831 84.2571 81.0256 84.5369 81.287 84.7472C81.5512 84.9574 81.8836 85.0625 82.2841 85.0625ZM87.7331 86L85.8069 79.4545H87.1237L88.4064 84.2614H88.4703L89.7572 79.4545H91.074L92.3524 84.2401H92.4163L93.6905 79.4545H95.0072L93.0853 86H91.7856L90.4561 81.2741H90.3581L89.0285 86H87.7331ZM100.817 86.1449C100.402 86.1449 100.027 86.0682 99.692 85.9148C99.3568 85.7585 99.0911 85.5327 98.8951 85.2372C98.7019 84.9418 98.6053 84.5795 98.6053 84.1506C98.6053 83.7812 98.6764 83.4773 98.8184 83.2386C98.9605 83 99.1522 82.8111 99.3937 82.6719C99.6352 82.5327 99.9051 82.4276 100.203 82.3565C100.502 82.2855 100.806 82.2315 101.115 82.1946C101.507 82.1491 101.826 82.1122 102.07 82.0838C102.314 82.0526 102.492 82.0028 102.603 81.9347C102.713 81.8665 102.769 81.7557 102.769 81.6023V81.5724C102.769 81.2003 102.664 80.9119 102.453 80.7074C102.246 80.5028 101.936 80.4006 101.524 80.4006C101.095 80.4006 100.757 80.4957 100.51 80.6861C100.266 80.8736 100.097 81.0824 100.003 81.3125L98.8056 81.0398C98.9477 80.642 99.1551 80.321 99.4278 80.0767C99.7034 79.8295 100.02 79.6506 100.378 79.5398C100.736 79.4261 101.112 79.3693 101.507 79.3693C101.769 79.3693 102.046 79.4006 102.338 79.4631C102.634 79.5227 102.909 79.6335 103.165 79.7955C103.424 79.9574 103.635 80.1889 103.8 80.4901C103.965 80.7884 104.047 81.1761 104.047 81.6534V86H102.803V85.1051H102.752C102.669 85.2699 102.546 85.4318 102.381 85.5909C102.216 85.75 102.004 85.8821 101.746 85.9872C101.487 86.0923 101.178 86.1449 100.817 86.1449ZM101.094 85.1222C101.446 85.1222 101.747 85.0526 101.997 84.9134C102.25 84.7741 102.442 84.5923 102.573 84.3679C102.706 84.1406 102.773 83.8977 102.773 83.6392V82.7955C102.728 82.8409 102.639 82.8835 102.509 82.9233C102.381 82.9602 102.235 82.9929 102.07 83.0213C101.905 83.0469 101.745 83.071 101.588 83.0938C101.432 83.1136 101.301 83.1307 101.196 83.1449C100.949 83.1761 100.723 83.2287 100.519 83.3026C100.317 83.3764 100.155 83.483 100.033 83.6222C99.9136 83.7585 99.8539 83.9403 99.8539 84.1676C99.8539 84.483 99.9704 84.7216 100.203 84.8835C100.436 85.0426 100.733 85.1222 101.094 85.1222ZM105.504 86V79.4545H106.736V80.4943H106.804C106.923 80.142 107.133 79.8651 107.435 79.6634C107.739 79.4588 108.082 79.3565 108.466 79.3565C108.545 79.3565 108.639 79.3594 108.747 79.3651C108.858 79.3707 108.945 79.3778 109.007 79.3864V80.6051C108.956 80.5909 108.865 80.5753 108.734 80.5582C108.604 80.5384 108.473 80.5284 108.342 80.5284C108.041 80.5284 107.773 80.5923 107.537 80.7202C107.304 80.8452 107.119 81.0199 106.983 81.2443C106.847 81.4659 106.778 81.7187 106.778 82.0028V86H105.504ZM112.456 86.1321C111.811 86.1321 111.256 85.9943 110.79 85.7188C110.327 85.4403 109.969 85.0497 109.716 84.5469C109.466 84.0412 109.341 83.4489 109.341 82.7699C109.341 82.0994 109.466 81.5085 109.716 80.9972C109.969 80.4858 110.321 80.0866 110.773 79.7997C111.228 79.5128 111.759 79.3693 112.367 79.3693C112.736 79.3693 113.094 79.4304 113.441 79.5526C113.787 79.6747 114.098 79.8665 114.374 80.1278C114.649 80.3892 114.867 80.7287 115.026 81.1463C115.185 81.5611 115.265 82.0653 115.265 82.6591V83.1108H110.061V82.1562H114.016C114.016 81.821 113.948 81.5241 113.811 81.2656C113.675 81.0043 113.483 80.7983 113.236 80.6477C112.992 80.4972 112.705 80.4219 112.375 80.4219C112.017 80.4219 111.705 80.5099 111.438 80.6861C111.174 80.8594 110.969 81.0866 110.824 81.3679C110.682 81.6463 110.611 81.9489 110.611 82.2756V83.0213C110.611 83.4588 110.688 83.831 110.841 84.1378C110.998 84.4446 111.215 84.679 111.493 84.8409C111.772 85 112.097 85.0795 112.469 85.0795C112.711 85.0795 112.931 85.0455 113.13 84.9773C113.328 84.9062 113.5 84.8011 113.645 84.6619C113.79 84.5227 113.901 84.3509 113.978 84.1463L115.184 84.3636C115.087 84.7187 114.914 85.0298 114.664 85.2969C114.417 85.5611 114.105 85.767 113.73 85.9148C113.358 86.0597 112.934 86.1321 112.456 86.1321ZM120.179 88.4545C119.989 88.4545 119.816 88.4389 119.66 88.4077C119.503 88.3793 119.387 88.348 119.31 88.3139L119.617 87.2699C119.85 87.3324 120.057 87.3594 120.239 87.3509C120.421 87.3423 120.581 87.2741 120.721 87.1463C120.863 87.0185 120.988 86.8097 121.096 86.5199L121.253 86.0852L118.858 79.4545H120.222L121.88 84.5341H121.948L123.606 79.4545H124.973L122.276 86.8736C122.151 87.2145 121.992 87.5028 121.799 87.7386C121.606 87.9773 121.375 88.1563 121.108 88.2756C120.841 88.3949 120.532 88.4545 120.179 88.4545ZM128.465 86.1321C127.852 86.1321 127.316 85.9915 126.859 85.7102C126.401 85.429 126.046 85.0355 125.793 84.5298C125.541 84.0241 125.414 83.4332 125.414 82.7571C125.414 82.0781 125.541 81.4844 125.793 80.9759C126.046 80.4673 126.401 80.0724 126.859 79.7912C127.316 79.5099 127.852 79.3693 128.465 79.3693C129.079 79.3693 129.615 79.5099 130.072 79.7912C130.529 80.0724 130.884 80.4673 131.137 80.9759C131.39 81.4844 131.516 82.0781 131.516 82.7571C131.516 83.4332 131.39 84.0241 131.137 84.5298C130.884 85.0355 130.529 85.429 130.072 85.7102C129.615 85.9915 129.079 86.1321 128.465 86.1321ZM128.47 85.0625C128.867 85.0625 129.197 84.9574 129.458 84.7472C129.72 84.5369 129.913 84.2571 130.038 83.9077C130.166 83.5582 130.23 83.1733 130.23 82.7528C130.23 82.3352 130.166 81.9517 130.038 81.6023C129.913 81.25 129.72 80.9673 129.458 80.7543C129.197 80.5412 128.867 80.4347 128.47 80.4347C128.069 80.4347 127.737 80.5412 127.472 80.7543C127.211 80.9673 127.016 81.25 126.889 81.6023C126.764 81.9517 126.701 82.3352 126.701 82.7528C126.701 83.1733 126.764 83.5582 126.889 83.9077C127.016 84.2571 127.211 84.5369 127.472 84.7472C127.737 84.9574 128.069 85.0625 128.47 85.0625ZM136.845 83.2855V79.4545H138.123V86H136.871V84.8665H136.802C136.652 85.2159 136.41 85.5071 136.078 85.7401C135.748 85.9702 135.338 86.0852 134.846 86.0852C134.426 86.0852 134.054 85.9929 133.73 85.8082C133.409 85.6207 133.156 85.3438 132.971 84.9773C132.79 84.6108 132.699 84.1577 132.699 83.6179V79.4545H133.973V83.4645C133.973 83.9105 134.096 84.2656 134.344 84.5298C134.591 84.794 134.912 84.9261 135.307 84.9261C135.545 84.9261 135.783 84.8665 136.018 84.7472C136.257 84.6278 136.454 84.4474 136.611 84.206C136.77 83.9645 136.848 83.6577 136.845 83.2855ZM144.982 86.1278C144.453 86.1278 143.982 85.9929 143.567 85.723C143.155 85.4503 142.831 85.0625 142.595 84.5597C142.362 84.054 142.246 83.4474 142.246 82.7401C142.246 82.0327 142.364 81.4276 142.599 80.9247C142.838 80.4219 143.165 80.0369 143.58 79.7699C143.994 79.5028 144.464 79.3693 144.99 79.3693C145.396 79.3693 145.723 79.4375 145.97 79.5739C146.22 79.7074 146.413 79.8636 146.55 80.0426C146.689 80.2216 146.797 80.3793 146.874 80.5156H146.95V77.2727H148.224V86H146.98V84.9815H146.874C146.797 85.1207 146.686 85.2798 146.541 85.4588C146.399 85.6378 146.203 85.794 145.953 85.9276C145.703 86.0611 145.379 86.1278 144.982 86.1278ZM145.263 85.0412C145.629 85.0412 145.939 84.9446 146.192 84.7514C146.447 84.5554 146.641 84.2841 146.771 83.9375C146.905 83.5909 146.972 83.1875 146.972 82.7273C146.972 82.2727 146.906 81.875 146.776 81.5341C146.645 81.1932 146.453 80.9276 146.2 80.7372C145.947 80.5469 145.635 80.4517 145.263 80.4517C144.879 80.4517 144.56 80.5511 144.304 80.75C144.048 80.9489 143.855 81.2202 143.724 81.5639C143.597 81.9077 143.533 82.2955 143.533 82.7273C143.533 83.1648 143.598 83.5582 143.729 83.9077C143.859 84.2571 144.053 84.5341 144.308 84.7386C144.567 84.9403 144.885 85.0412 145.263 85.0412ZM152.56 86.1321C151.946 86.1321 151.411 85.9915 150.954 85.7102C150.496 85.429 150.141 85.0355 149.888 84.5298C149.635 84.0241 149.509 83.4332 149.509 82.7571C149.509 82.0781 149.635 81.4844 149.888 80.9759C150.141 80.4673 150.496 80.0724 150.954 79.7912C151.411 79.5099 151.946 79.3693 152.56 79.3693C153.174 79.3693 153.709 79.5099 154.167 79.7912C154.624 80.0724 154.979 80.4673 155.232 80.9759C155.485 81.4844 155.611 82.0781 155.611 82.7571C155.611 83.4332 155.485 84.0241 155.232 84.5298C154.979 85.0355 154.624 85.429 154.167 85.7102C153.709 85.9915 153.174 86.1321 152.56 86.1321ZM152.564 85.0625C152.962 85.0625 153.292 84.9574 153.553 84.7472C153.814 84.5369 154.007 84.2571 154.132 83.9077C154.26 83.5582 154.324 83.1733 154.324 82.7528C154.324 82.3352 154.26 81.9517 154.132 81.6023C154.007 81.25 153.814 80.9673 153.553 80.7543C153.292 80.5412 152.962 80.4347 152.564 80.4347C152.164 80.4347 151.831 80.5412 151.567 80.7543C151.306 80.9673 151.111 81.25 150.983 81.6023C150.858 81.9517 150.796 82.3352 150.796 82.7528C150.796 83.1733 150.858 83.5582 150.983 83.9077C151.111 84.2571 151.306 84.5369 151.567 84.7472C151.831 84.9574 152.164 85.0625 152.564 85.0625ZM156.793 86V79.4545H158.068V86H156.793ZM157.437 78.4446C157.215 78.4446 157.025 78.3707 156.866 78.223C156.71 78.0724 156.631 77.8935 156.631 77.6861C156.631 77.4759 156.71 77.2969 156.866 77.1491C157.025 76.9986 157.215 76.9233 157.437 76.9233C157.658 76.9233 157.847 76.9986 158.004 77.1491C158.163 77.2969 158.242 77.4759 158.242 77.6861C158.242 77.8935 158.163 78.0724 158.004 78.223C157.847 78.3707 157.658 78.4446 157.437 78.4446ZM160.816 82.1136V86H159.542V79.4545H160.765V80.5199H160.846C160.996 80.1733 161.232 79.8949 161.553 79.6847C161.877 79.4744 162.285 79.3693 162.776 79.3693C163.222 79.3693 163.613 79.4631 163.948 79.6506C164.283 79.8352 164.543 80.1108 164.728 80.4773C164.912 80.8437 165.005 81.2969 165.005 81.8366V86H163.731V81.9901C163.731 81.5156 163.607 81.1449 163.36 80.8778C163.113 80.608 162.773 80.473 162.341 80.473C162.046 80.473 161.783 80.5369 161.553 80.6648C161.326 80.7926 161.145 80.9801 161.012 81.2273C160.881 81.4716 160.816 81.767 160.816 82.1136ZM169.218 88.5909C168.698 88.5909 168.251 88.5227 167.876 88.3864C167.503 88.25 167.199 88.0696 166.964 87.8452C166.728 87.6207 166.552 87.375 166.435 87.108L167.53 86.6562C167.607 86.7812 167.709 86.9134 167.837 87.0526C167.968 87.1946 168.144 87.3153 168.366 87.4148C168.59 87.5142 168.878 87.5639 169.231 87.5639C169.714 87.5639 170.113 87.446 170.428 87.2102C170.743 86.9773 170.901 86.6051 170.901 86.0938V84.8068H170.82C170.743 84.946 170.633 85.1009 170.488 85.2713C170.346 85.4418 170.15 85.5895 169.9 85.7145C169.65 85.8395 169.324 85.902 168.924 85.902C168.407 85.902 167.941 85.7812 167.526 85.5398C167.114 85.2955 166.787 84.9361 166.546 84.4616C166.307 83.9844 166.188 83.3977 166.188 82.7017C166.188 82.0057 166.306 81.4091 166.542 80.9119C166.78 80.4148 167.107 80.0341 167.522 79.7699C167.937 79.5028 168.407 79.3693 168.932 79.3693C169.339 79.3693 169.667 79.4375 169.917 79.5739C170.167 79.7074 170.361 79.8636 170.501 80.0426C170.643 80.2216 170.752 80.3793 170.829 80.5156H170.922V79.4545H172.171V86.1449C172.171 86.7074 172.04 87.169 171.779 87.5298C171.518 87.8906 171.164 88.1577 170.718 88.331C170.275 88.5043 169.775 88.5909 169.218 88.5909ZM169.205 84.8452C169.572 84.8452 169.881 84.7599 170.134 84.5895C170.39 84.4162 170.583 84.169 170.714 83.848C170.847 83.5241 170.914 83.1364 170.914 82.6847C170.914 82.2443 170.849 81.8565 170.718 81.5213C170.587 81.1861 170.395 80.9247 170.143 80.7372C169.89 80.5469 169.577 80.4517 169.205 80.4517C168.822 80.4517 168.502 80.5511 168.246 80.75C167.991 80.946 167.797 81.2131 167.667 81.5511C167.539 81.8892 167.475 82.267 167.475 82.6847C167.475 83.1136 167.54 83.4901 167.671 83.8139C167.802 84.1378 167.995 84.3906 168.251 84.5724C168.509 84.7543 168.827 84.8452 169.205 84.8452ZM220.188 83.4901V83.4091C220.193 82.8807 220.246 82.4602 220.345 82.1477C220.447 81.8352 220.592 81.5824 220.78 81.3892C220.967 81.196 221.193 81.0199 221.457 80.8608C221.628 80.7528 221.781 80.6321 221.918 80.4986C222.054 80.3651 222.162 80.2116 222.241 80.0384C222.321 79.8651 222.361 79.6733 222.361 79.4631C222.361 79.2102 222.301 78.9915 222.182 78.8068C222.062 78.6222 221.903 78.4801 221.705 78.3807C221.509 78.2784 221.29 78.2273 221.048 78.2273C220.83 78.2273 220.621 78.2727 220.422 78.3636C220.223 78.4545 220.058 78.5966 219.928 78.7898C219.797 78.9801 219.722 79.2259 219.702 79.527H218.406C218.426 79.0156 218.555 78.5838 218.794 78.2315C219.033 77.8764 219.348 77.608 219.74 77.4261C220.135 77.2443 220.571 77.1534 221.048 77.1534C221.571 77.1534 222.028 77.2514 222.42 77.4474C222.813 77.6406 223.116 77.9119 223.332 78.2614C223.551 78.608 223.661 79.0128 223.661 79.4759C223.661 79.794 223.611 80.081 223.511 80.3366C223.412 80.5895 223.27 80.8153 223.085 81.0142C222.903 81.2131 222.685 81.3892 222.429 81.5426C222.188 81.6932 221.991 81.8494 221.841 82.0114C221.693 82.1733 221.585 82.3651 221.517 82.5866C221.449 82.8082 221.412 83.0824 221.406 83.4091V83.4901H220.188ZM220.831 86.081C220.598 86.081 220.398 85.9986 220.23 85.8338C220.063 85.6662 219.979 85.4645 219.979 85.2287C219.979 84.9957 220.063 84.7969 220.23 84.6321C220.398 84.4645 220.598 84.3807 220.831 84.3807C221.061 84.3807 221.26 84.4645 221.428 84.6321C221.598 84.7969 221.683 84.9957 221.683 85.2287C221.683 85.3849 221.643 85.5284 221.564 85.6591C221.487 85.7869 221.385 85.8892 221.257 85.9659C221.129 86.0426 220.987 86.081 220.831 86.081Z" fill="#B0B0B0"/>
<path d="M177.087 87.8153V76.9446H179.887V77.9545H178.306V86.8054H179.887V87.8153H177.087ZM182.145 82.1136V86H180.871V79.4545H182.094V80.5199H182.175C182.325 80.1733 182.561 79.8949 182.882 79.6847C183.206 79.4744 183.614 79.3693 184.105 79.3693C184.551 79.3693 184.942 79.4631 185.277 79.6506C185.612 79.8352 185.872 80.1108 186.057 80.4773C186.241 80.8437 186.334 81.2969 186.334 81.8366V86H185.06V81.9901C185.06 81.5156 184.936 81.1449 184.689 80.8778C184.442 80.608 184.102 80.473 183.67 80.473C183.375 80.473 183.112 80.5369 182.882 80.6648C182.655 80.7926 182.474 80.9801 182.341 81.2273C182.21 81.4716 182.145 81.767 182.145 82.1136ZM189.707 86.1449C189.293 86.1449 188.918 86.0682 188.582 85.9148C188.247 85.7585 187.982 85.5327 187.786 85.2372C187.592 84.9418 187.496 84.5795 187.496 84.1506C187.496 83.7812 187.567 83.4773 187.709 83.2386C187.851 83 188.043 82.8111 188.284 82.6719C188.526 82.5327 188.796 82.4276 189.094 82.3565C189.392 82.2855 189.696 82.2315 190.006 82.1946C190.398 82.1491 190.716 82.1122 190.96 82.0838C191.205 82.0526 191.382 82.0028 191.493 81.9347C191.604 81.8665 191.659 81.7557 191.659 81.6023V81.5724C191.659 81.2003 191.554 80.9119 191.344 80.7074C191.136 80.5028 190.827 80.4006 190.415 80.4006C189.986 80.4006 189.648 80.4957 189.401 80.6861C189.156 80.8736 188.987 81.0824 188.894 81.3125L187.696 81.0398C187.838 80.642 188.046 80.321 188.318 80.0767C188.594 79.8295 188.911 79.6506 189.269 79.5398C189.626 79.4261 190.003 79.3693 190.398 79.3693C190.659 79.3693 190.936 79.4006 191.229 79.4631C191.524 79.5227 191.8 79.6335 192.055 79.7955C192.314 79.9574 192.526 80.1889 192.69 80.4901C192.855 80.7884 192.938 81.1761 192.938 81.6534V86H191.693V85.1051H191.642C191.56 85.2699 191.436 85.4318 191.271 85.5909C191.107 85.75 190.895 85.8821 190.636 85.9872C190.378 86.0923 190.068 86.1449 189.707 86.1449ZM189.984 85.1222C190.337 85.1222 190.638 85.0526 190.888 84.9134C191.141 84.7741 191.332 84.5923 191.463 84.3679C191.597 84.1406 191.663 83.8977 191.663 83.6392V82.7955C191.618 82.8409 191.53 82.8835 191.399 82.9233C191.271 82.9602 191.125 82.9929 190.96 83.0213C190.796 83.0469 190.635 83.071 190.479 83.0938C190.323 83.1136 190.192 83.1307 190.087 83.1449C189.84 83.1761 189.614 83.2287 189.409 83.3026C189.207 83.3764 189.046 83.483 188.923 83.6222C188.804 83.7585 188.744 83.9403 188.744 84.1676C188.744 84.483 188.861 84.7216 189.094 84.8835C189.327 85.0426 189.624 85.1222 189.984 85.1222ZM194.395 86V79.4545H195.618V80.5199H195.699C195.835 80.1591 196.058 79.8778 196.368 79.6761C196.677 79.4716 197.048 79.3693 197.48 79.3693C197.917 79.3693 198.284 79.4716 198.579 79.6761C198.878 79.8807 199.098 80.1619 199.24 80.5199H199.308C199.464 80.1705 199.713 79.892 200.054 79.6847C200.395 79.4744 200.801 79.3693 201.272 79.3693C201.866 79.3693 202.351 79.5554 202.726 79.9276C203.103 80.2997 203.292 80.8608 203.292 81.6108V86H202.018V81.7301C202.018 81.2869 201.897 80.9659 201.656 80.767C201.415 80.5682 201.126 80.4688 200.791 80.4688C200.376 80.4688 200.054 80.5966 199.824 80.8523C199.594 81.1051 199.478 81.4304 199.478 81.8281V86H198.209V81.6491C198.209 81.294 198.098 81.0085 197.876 80.7926C197.655 80.5767 197.366 80.4688 197.011 80.4688C196.77 80.4688 196.547 80.5327 196.342 80.6605C196.14 80.7855 195.977 80.9602 195.852 81.1847C195.73 81.4091 195.669 81.669 195.669 81.9645V86H194.395ZM207.581 86.1321C206.936 86.1321 206.381 85.9943 205.915 85.7188C205.452 85.4403 205.094 85.0497 204.841 84.5469C204.591 84.0412 204.466 83.4489 204.466 82.7699C204.466 82.0994 204.591 81.5085 204.841 80.9972C205.094 80.4858 205.446 80.0866 205.898 79.7997C206.352 79.5128 206.884 79.3693 207.492 79.3693C207.861 79.3693 208.219 79.4304 208.566 79.5526C208.912 79.6747 209.223 79.8665 209.499 80.1278C209.774 80.3892 209.992 80.7287 210.151 81.1463C210.31 81.5611 210.389 82.0653 210.389 82.6591V83.1108H205.186V82.1562H209.141C209.141 81.821 209.073 81.5241 208.936 81.2656C208.8 81.0043 208.608 80.7983 208.361 80.6477C208.117 80.4972 207.83 80.4219 207.5 80.4219C207.142 80.4219 206.83 80.5099 206.563 80.6861C206.298 80.8594 206.094 81.0866 205.949 81.3679C205.807 81.6463 205.736 81.9489 205.736 82.2756V83.0213C205.736 83.4588 205.813 83.831 205.966 84.1378C206.122 84.4446 206.34 84.679 206.618 84.8409C206.896 85 207.222 85.0795 207.594 85.0795C207.835 85.0795 208.056 85.0455 208.254 84.9773C208.453 84.9062 208.625 84.8011 208.77 84.6619C208.915 84.5227 209.026 84.3509 209.102 84.1463L210.308 84.3636C210.212 84.7187 210.039 85.0298 209.789 85.2969C209.541 85.5611 209.23 85.767 208.855 85.9148C208.483 86.0597 208.058 86.1321 207.581 86.1321ZM213.873 76.9446V87.8153H211.073V86.8054H212.654V77.9545H211.073V76.9446H213.873Z" fill="#30A5FF"/>
<path d="M72.2756 96.2727V105H70.9588V96.2727H72.2756ZM78.2057 105L76.2796 98.4545H77.5963L78.879 103.261H78.9429L80.2299 98.4545H81.5466L82.825 103.24H82.889L84.1631 98.4545H85.4799L83.558 105H82.2583L80.9287 100.274H80.8307L79.5012 105H78.2057ZM89.0069 105.132C88.3933 105.132 87.8578 104.991 87.4004 104.71C86.943 104.429 86.5879 104.036 86.335 103.53C86.0822 103.024 85.9558 102.433 85.9558 101.757C85.9558 101.078 86.0822 100.484 86.335 99.9759C86.5879 99.4673 86.943 99.0724 87.4004 98.7912C87.8578 98.5099 88.3933 98.3693 89.0069 98.3693C89.6206 98.3693 90.1561 98.5099 90.6135 98.7912C91.0708 99.0724 91.426 99.4673 91.6788 99.9759C91.9316 100.484 92.0581 101.078 92.0581 101.757C92.0581 102.433 91.9316 103.024 91.6788 103.53C91.426 104.036 91.0708 104.429 90.6135 104.71C90.1561 104.991 89.6206 105.132 89.0069 105.132ZM89.0112 104.062C89.4089 104.062 89.7385 103.957 89.9998 103.747C90.2612 103.537 90.4544 103.257 90.5794 102.908C90.7072 102.558 90.7711 102.173 90.7711 101.753C90.7711 101.335 90.7072 100.952 90.5794 100.602C90.4544 100.25 90.2612 99.9673 89.9998 99.7543C89.7385 99.5412 89.4089 99.4347 89.0112 99.4347C88.6106 99.4347 88.2782 99.5412 88.014 99.7543C87.7527 99.9673 87.5581 100.25 87.4302 100.602C87.3052 100.952 87.2427 101.335 87.2427 101.753C87.2427 102.173 87.3052 102.558 87.4302 102.908C87.5581 103.257 87.7527 103.537 88.014 103.747C88.2782 103.957 88.6106 104.062 89.0112 104.062ZM97.3866 102.286V98.4545H98.665V105H97.4122V103.866H97.344C97.1934 104.216 96.9519 104.507 96.6195 104.74C96.29 104.97 95.8795 105.085 95.388 105.085C94.9676 105.085 94.5954 104.993 94.2715 104.808C93.9505 104.621 93.6977 104.344 93.513 103.977C93.3312 103.611 93.2403 103.158 93.2403 102.618V98.4545H94.5144V102.464C94.5144 102.911 94.638 103.266 94.8852 103.53C95.1323 103.794 95.4534 103.926 95.8482 103.926C96.0869 103.926 96.3241 103.866 96.5599 103.747C96.7985 103.628 96.996 103.447 97.1522 103.206C97.3113 102.964 97.3894 102.658 97.3866 102.286ZM101.411 96.2727V105H100.137V96.2727H101.411ZM105.336 105.128C104.807 105.128 104.336 104.993 103.921 104.723C103.509 104.45 103.185 104.062 102.949 103.56C102.716 103.054 102.6 102.447 102.6 101.74C102.6 101.033 102.718 100.428 102.953 99.9247C103.192 99.4219 103.519 99.0369 103.934 98.7699C104.348 98.5028 104.819 98.3693 105.344 98.3693C105.75 98.3693 106.077 98.4375 106.324 98.5739C106.574 98.7074 106.767 98.8636 106.904 99.0426C107.043 99.2216 107.151 99.3793 107.228 99.5156H107.304V96.2727H108.578V105H107.334V103.982H107.228C107.151 104.121 107.04 104.28 106.895 104.459C106.753 104.638 106.557 104.794 106.307 104.928C106.057 105.061 105.733 105.128 105.336 105.128ZM105.617 104.041C105.983 104.041 106.293 103.945 106.546 103.751C106.801 103.555 106.995 103.284 107.125 102.938C107.259 102.591 107.326 102.187 107.326 101.727C107.326 101.273 107.26 100.875 107.13 100.534C106.999 100.193 106.807 99.9276 106.554 99.7372C106.301 99.5469 105.989 99.4517 105.617 99.4517C105.233 99.4517 104.914 99.5511 104.658 99.75C104.402 99.9489 104.209 100.22 104.078 100.564C103.951 100.908 103.887 101.295 103.887 101.727C103.887 102.165 103.952 102.558 104.083 102.908C104.213 103.257 104.407 103.534 104.662 103.739C104.921 103.94 105.239 104.041 105.617 104.041ZM114.367 96.2727V105H113.093V96.2727H114.367ZM118.598 105.132C117.985 105.132 117.449 104.991 116.992 104.71C116.534 104.429 116.179 104.036 115.926 103.53C115.673 103.024 115.547 102.433 115.547 101.757C115.547 101.078 115.673 100.484 115.926 99.9759C116.179 99.4673 116.534 99.0724 116.992 98.7912C117.449 98.5099 117.985 98.3693 118.598 98.3693C119.212 98.3693 119.747 98.5099 120.205 98.7912C120.662 99.0724 121.017 99.4673 121.27 99.9759C121.523 100.484 121.649 101.078 121.649 101.757C121.649 102.433 121.523 103.024 121.27 103.53C121.017 104.036 120.662 104.429 120.205 104.71C119.747 104.991 119.212 105.132 118.598 105.132ZM118.602 104.062C119 104.062 119.33 103.957 119.591 103.747C119.852 103.537 120.046 103.257 120.171 102.908C120.298 102.558 120.362 102.173 120.362 101.753C120.362 101.335 120.298 100.952 120.171 100.602C120.046 100.25 119.852 99.9673 119.591 99.7543C119.33 99.5412 119 99.4347 118.602 99.4347C118.202 99.4347 117.869 99.5412 117.605 99.7543C117.344 99.9673 117.149 100.25 117.021 100.602C116.896 100.952 116.834 101.335 116.834 101.753C116.834 102.173 116.896 102.558 117.021 102.908C117.149 103.257 117.344 103.537 117.605 103.747C117.869 103.957 118.202 104.062 118.602 104.062ZM128.208 98.4545L125.835 105H124.471L122.093 98.4545H123.461L125.119 103.491H125.187L126.84 98.4545H128.208ZM131.764 105.132C131.119 105.132 130.564 104.994 130.098 104.719C129.635 104.44 129.277 104.05 129.024 103.547C128.774 103.041 128.649 102.449 128.649 101.77C128.649 101.099 128.774 100.509 129.024 99.9972C129.277 99.4858 129.629 99.0866 130.081 98.7997C130.535 98.5128 131.067 98.3693 131.675 98.3693C132.044 98.3693 132.402 98.4304 132.748 98.5526C133.095 98.6747 133.406 98.8665 133.682 99.1278C133.957 99.3892 134.175 99.7287 134.334 100.146C134.493 100.561 134.572 101.065 134.572 101.659V102.111H129.369V101.156H133.324C133.324 100.821 133.256 100.524 133.119 100.266C132.983 100.004 132.791 99.7983 132.544 99.6477C132.3 99.4972 132.013 99.4219 131.683 99.4219C131.325 99.4219 131.013 99.5099 130.746 99.6861C130.481 99.8594 130.277 100.087 130.132 100.368C129.99 100.646 129.919 100.949 129.919 101.276V102.021C129.919 102.459 129.996 102.831 130.149 103.138C130.305 103.445 130.523 103.679 130.801 103.841C131.079 104 131.405 104.08 131.777 104.08C132.018 104.08 132.239 104.045 132.437 103.977C132.636 103.906 132.808 103.801 132.953 103.662C133.098 103.523 133.209 103.351 133.285 103.146L134.491 103.364C134.395 103.719 134.222 104.03 133.972 104.297C133.724 104.561 133.413 104.767 133.038 104.915C132.666 105.06 132.241 105.132 131.764 105.132ZM141.737 98.4545V99.4773H138.162V98.4545H141.737ZM139.121 96.8864H140.395V103.078C140.395 103.325 140.432 103.511 140.506 103.636C140.58 103.759 140.675 103.842 140.791 103.888C140.911 103.93 141.04 103.952 141.179 103.952C141.281 103.952 141.371 103.945 141.447 103.93C141.524 103.916 141.584 103.905 141.626 103.896L141.857 104.949C141.783 104.977 141.678 105.006 141.541 105.034C141.405 105.065 141.234 105.082 141.03 105.085C140.695 105.091 140.382 105.031 140.092 104.906C139.803 104.781 139.568 104.588 139.389 104.327C139.21 104.065 139.121 103.737 139.121 103.342V96.8864ZM145.593 105.132C144.98 105.132 144.444 104.991 143.987 104.71C143.53 104.429 143.174 104.036 142.922 103.53C142.669 103.024 142.542 102.433 142.542 101.757C142.542 101.078 142.669 100.484 142.922 99.9759C143.174 99.4673 143.53 99.0724 143.987 98.7912C144.444 98.5099 144.98 98.3693 145.593 98.3693C146.207 98.3693 146.743 98.5099 147.2 98.7912C147.657 99.0724 148.013 99.4673 148.265 99.9759C148.518 100.484 148.645 101.078 148.645 101.757C148.645 102.433 148.518 103.024 148.265 103.53C148.013 104.036 147.657 104.429 147.2 104.71C146.743 104.991 146.207 105.132 145.593 105.132ZM145.598 104.062C145.995 104.062 146.325 103.957 146.586 103.747C146.848 103.537 147.041 103.257 147.166 102.908C147.294 102.558 147.358 102.173 147.358 101.753C147.358 101.335 147.294 100.952 147.166 100.602C147.041 100.25 146.848 99.9673 146.586 99.7543C146.325 99.5412 145.995 99.4347 145.598 99.4347C145.197 99.4347 144.865 99.5412 144.601 99.7543C144.339 99.9673 144.145 100.25 144.017 100.602C143.892 100.952 143.829 101.335 143.829 101.753C143.829 102.173 143.892 102.558 144.017 102.908C144.145 103.257 144.339 103.537 144.601 103.747C144.865 103.957 145.197 104.062 145.598 104.062ZM154.037 101.114V105H152.763V96.2727H154.02V99.5199H154.101C154.254 99.1676 154.488 98.8878 154.804 98.6804C155.119 98.473 155.531 98.3693 156.04 98.3693C156.488 98.3693 156.881 98.4616 157.216 98.6463C157.554 98.831 157.815 99.1065 158 99.473C158.187 99.8366 158.281 100.291 158.281 100.837V105H157.007V100.99C157.007 100.51 156.883 100.138 156.636 99.8736C156.389 99.6065 156.045 99.473 155.605 99.473C155.304 99.473 155.034 99.5369 154.795 99.6648C154.56 99.7926 154.373 99.9801 154.237 100.227C154.104 100.472 154.037 100.767 154.037 101.114ZM161.646 105.145C161.231 105.145 160.856 105.068 160.521 104.915C160.186 104.759 159.92 104.533 159.724 104.237C159.531 103.942 159.435 103.58 159.435 103.151C159.435 102.781 159.506 102.477 159.648 102.239C159.79 102 159.981 101.811 160.223 101.672C160.464 101.533 160.734 101.428 161.033 101.357C161.331 101.286 161.635 101.232 161.945 101.195C162.337 101.149 162.655 101.112 162.899 101.084C163.143 101.053 163.321 101.003 163.432 100.935C163.543 100.866 163.598 100.756 163.598 100.602V100.572C163.598 100.2 163.493 99.9119 163.283 99.7074C163.075 99.5028 162.766 99.4006 162.354 99.4006C161.925 99.4006 161.587 99.4957 161.339 99.6861C161.095 99.8736 160.926 100.082 160.832 100.312L159.635 100.04C159.777 99.642 159.984 99.321 160.257 99.0767C160.533 98.8295 160.849 98.6506 161.207 98.5398C161.565 98.4261 161.942 98.3693 162.337 98.3693C162.598 98.3693 162.875 98.4006 163.168 98.4631C163.463 98.5227 163.739 98.6335 163.994 98.7955C164.253 98.9574 164.464 99.1889 164.629 99.4901C164.794 99.7884 164.876 100.176 164.876 100.653V105H163.632V104.105H163.581C163.498 104.27 163.375 104.432 163.21 104.591C163.045 104.75 162.834 104.882 162.575 104.987C162.317 105.092 162.007 105.145 161.646 105.145ZM161.923 104.122C162.275 104.122 162.577 104.053 162.827 103.913C163.079 103.774 163.271 103.592 163.402 103.368C163.535 103.141 163.602 102.898 163.602 102.639V101.795C163.557 101.841 163.469 101.884 163.338 101.923C163.21 101.96 163.064 101.993 162.899 102.021C162.734 102.047 162.574 102.071 162.418 102.094C162.261 102.114 162.131 102.131 162.025 102.145C161.778 102.176 161.552 102.229 161.348 102.303C161.146 102.376 160.984 102.483 160.862 102.622C160.743 102.759 160.683 102.94 160.683 103.168C160.683 103.483 160.8 103.722 161.033 103.884C161.266 104.043 161.562 104.122 161.923 104.122ZM171.698 98.4545L169.325 105H167.961L165.583 98.4545H166.951L168.609 103.491H168.677L170.331 98.4545H171.698ZM175.254 105.132C174.609 105.132 174.054 104.994 173.588 104.719C173.125 104.44 172.767 104.05 172.514 103.547C172.264 103.041 172.139 102.449 172.139 101.77C172.139 101.099 172.264 100.509 172.514 99.9972C172.767 99.4858 173.119 99.0866 173.571 98.7997C174.026 98.5128 174.557 98.3693 175.165 98.3693C175.534 98.3693 175.892 98.4304 176.239 98.5526C176.585 98.6747 176.896 98.8665 177.172 99.1278C177.447 99.3892 177.665 99.7287 177.824 100.146C177.983 100.561 178.063 101.065 178.063 101.659V102.111H172.859V101.156H176.814C176.814 100.821 176.746 100.524 176.609 100.266C176.473 100.004 176.281 99.7983 176.034 99.6477C175.79 99.4972 175.503 99.4219 175.173 99.4219C174.815 99.4219 174.503 99.5099 174.236 99.6861C173.972 99.8594 173.767 100.087 173.622 100.368C173.48 100.646 173.409 100.949 173.409 101.276V102.021C173.409 102.459 173.486 102.831 173.639 103.138C173.795 103.445 174.013 103.679 174.291 103.841C174.57 104 174.895 104.08 175.267 104.08C175.509 104.08 175.729 104.045 175.928 103.977C176.126 103.906 176.298 103.801 176.443 103.662C176.588 103.523 176.699 103.351 176.776 103.146L177.982 103.364C177.885 103.719 177.712 104.03 177.462 104.297C177.215 104.561 176.903 104.767 176.528 104.915C176.156 105.06 175.732 105.132 175.254 105.132ZM184.077 105.145C183.662 105.145 183.287 105.068 182.952 104.915C182.617 104.759 182.351 104.533 182.155 104.237C181.962 103.942 181.865 103.58 181.865 103.151C181.865 102.781 181.936 102.477 182.078 102.239C182.22 102 182.412 101.811 182.654 101.672C182.895 101.533 183.165 101.428 183.463 101.357C183.761 101.286 184.065 101.232 184.375 101.195C184.767 101.149 185.085 101.112 185.33 101.084C185.574 101.053 185.752 101.003 185.862 100.935C185.973 100.866 186.029 100.756 186.029 100.602V100.572C186.029 100.2 185.923 99.9119 185.713 99.7074C185.506 99.5028 185.196 99.4006 184.784 99.4006C184.355 99.4006 184.017 99.4957 183.77 99.6861C183.526 99.8736 183.357 100.082 183.263 100.312L182.065 100.04C182.208 99.642 182.415 99.321 182.688 99.0767C182.963 98.8295 183.28 98.6506 183.638 98.5398C183.996 98.4261 184.372 98.3693 184.767 98.3693C185.029 98.3693 185.306 98.4006 185.598 98.4631C185.894 98.5227 186.169 98.6335 186.425 98.7955C186.683 98.9574 186.895 99.1889 187.06 99.4901C187.225 99.7884 187.307 100.176 187.307 100.653V105H186.063V104.105H186.011C185.929 104.27 185.806 104.432 185.641 104.591C185.476 104.75 185.264 104.882 185.006 104.987C184.747 105.092 184.438 105.145 184.077 105.145ZM184.354 104.122C184.706 104.122 185.007 104.053 185.257 103.913C185.51 103.774 185.702 103.592 185.833 103.368C185.966 103.141 186.033 102.898 186.033 102.639V101.795C185.987 101.841 185.899 101.884 185.769 101.923C185.641 101.96 185.494 101.993 185.33 102.021C185.165 102.047 185.004 102.071 184.848 102.094C184.692 102.114 184.561 102.131 184.456 102.145C184.209 102.176 183.983 102.229 183.779 102.303C183.577 102.376 183.415 102.483 183.293 102.622C183.173 102.759 183.114 102.94 183.114 103.168C183.114 103.483 183.23 103.722 183.463 103.884C183.696 104.043 183.993 104.122 184.354 104.122ZM194.457 105.132C193.823 105.132 193.278 104.989 192.821 104.702C192.366 104.412 192.017 104.013 191.772 103.504C191.528 102.996 191.406 102.413 191.406 101.757C191.406 101.092 191.531 100.506 191.781 99.9972C192.031 99.4858 192.383 99.0866 192.838 98.7997C193.292 98.5128 193.828 98.3693 194.444 98.3693C194.941 98.3693 195.384 98.4616 195.774 98.6463C196.163 98.8281 196.477 99.0838 196.715 99.4134C196.957 99.7429 197.1 100.128 197.146 100.568H195.906C195.838 100.261 195.681 99.9972 195.437 99.7756C195.196 99.554 194.872 99.4432 194.465 99.4432C194.11 99.4432 193.799 99.5369 193.532 99.7244C193.268 99.9091 193.062 100.173 192.914 100.517C192.767 100.858 192.693 101.261 192.693 101.727C192.693 102.205 192.765 102.616 192.91 102.963C193.055 103.31 193.259 103.578 193.524 103.768C193.791 103.959 194.105 104.054 194.465 104.054C194.707 104.054 194.926 104.01 195.122 103.922C195.321 103.831 195.487 103.702 195.62 103.534C195.757 103.366 195.852 103.165 195.906 102.929H197.146C197.1 103.352 196.963 103.73 196.732 104.062C196.502 104.395 196.194 104.656 195.808 104.847C195.424 105.037 194.974 105.132 194.457 105.132ZM201.026 105.132C200.412 105.132 199.876 104.991 199.419 104.71C198.962 104.429 198.606 104.036 198.354 103.53C198.101 103.024 197.974 102.433 197.974 101.757C197.974 101.078 198.101 100.484 198.354 99.9759C198.606 99.4673 198.962 99.0724 199.419 98.7912C199.876 98.5099 200.412 98.3693 201.026 98.3693C201.639 98.3693 202.175 98.5099 202.632 98.7912C203.089 99.0724 203.445 99.4673 203.697 99.9759C203.95 100.484 204.077 101.078 204.077 101.757C204.077 102.433 203.95 103.024 203.697 103.53C203.445 104.036 203.089 104.429 202.632 104.71C202.175 104.991 201.639 105.132 201.026 105.132ZM201.03 104.062C201.427 104.062 201.757 103.957 202.018 103.747C202.28 103.537 202.473 103.257 202.598 102.908C202.726 102.558 202.79 102.173 202.79 101.753C202.79 101.335 202.726 100.952 202.598 100.602C202.473 100.25 202.28 99.9673 202.018 99.7543C201.757 99.5412 201.427 99.4347 201.03 99.4347C200.629 99.4347 200.297 99.5412 200.033 99.7543C199.771 99.9673 199.577 100.25 199.449 100.602C199.324 100.952 199.261 101.335 199.261 101.753C199.261 102.173 199.324 102.558 199.449 102.908C199.577 103.257 199.771 103.537 200.033 103.747C200.297 103.957 200.629 104.062 201.03 104.062ZM206.533 101.114V105H205.259V98.4545H206.482V99.5199H206.563C206.713 99.1733 206.949 98.8949 207.27 98.6847C207.594 98.4744 208.002 98.3693 208.493 98.3693C208.939 98.3693 209.33 98.4631 209.665 98.6506C210 98.8352 210.26 99.1108 210.445 99.4773C210.63 99.8437 210.722 100.297 210.722 100.837V105H209.448V100.99C209.448 100.516 209.324 100.145 209.077 99.8778C208.83 99.608 208.49 99.473 208.059 99.473C207.763 99.473 207.5 99.5369 207.27 99.6648C207.043 99.7926 206.863 99.9801 206.729 100.227C206.598 100.472 206.533 100.767 206.533 101.114ZM215.012 105.132C214.367 105.132 213.811 104.994 213.346 104.719C212.883 104.44 212.525 104.05 212.272 103.547C212.022 103.041 211.897 102.449 211.897 101.77C211.897 101.099 212.022 100.509 212.272 99.9972C212.525 99.4858 212.877 99.0866 213.329 98.7997C213.783 98.5128 214.314 98.3693 214.922 98.3693C215.292 98.3693 215.65 98.4304 215.996 98.5526C216.343 98.6747 216.654 98.8665 216.929 99.1278C217.205 99.3892 217.422 99.7287 217.581 100.146C217.74 100.561 217.82 101.065 217.82 101.659V102.111H212.617V101.156H216.571C216.571 100.821 216.503 100.524 216.367 100.266C216.231 100.004 216.039 99.7983 215.792 99.6477C215.547 99.4972 215.26 99.4219 214.931 99.4219C214.573 99.4219 214.26 99.5099 213.993 99.6861C213.729 99.8594 213.525 100.087 213.38 100.368C213.238 100.646 213.167 100.949 213.167 101.276V102.021C213.167 102.459 213.243 102.831 213.397 103.138C213.553 103.445 213.77 103.679 214.049 103.841C214.327 104 214.652 104.08 215.025 104.08C215.266 104.08 215.486 104.045 215.685 103.977C215.884 103.906 216.056 103.801 216.201 103.662C216.346 103.523 216.456 103.351 216.533 103.146L217.739 103.364C217.642 103.719 217.469 104.03 217.219 104.297C216.972 104.561 216.661 104.767 216.286 104.915C215.914 105.06 215.489 105.132 215.012 105.132ZM218.994 105V98.4545H220.225V99.4943H220.293C220.413 99.142 220.623 98.8651 220.924 98.6634C221.228 98.4588 221.572 98.3565 221.955 98.3565C222.035 98.3565 222.129 98.3594 222.237 98.3651C222.347 98.3707 222.434 98.3778 222.497 98.3864V99.6051C222.445 99.5909 222.355 99.5753 222.224 99.5582C222.093 99.5384 221.962 99.5284 221.832 99.5284C221.531 99.5284 221.262 99.5923 221.026 99.7202C220.793 99.8452 220.609 100.02 220.472 100.244C220.336 100.466 220.268 100.719 220.268 101.003V105H218.994ZM228.264 100.053L227.109 100.257C227.061 100.109 226.984 99.9687 226.879 99.8352C226.777 99.7017 226.638 99.5923 226.461 99.5071C226.285 99.4219 226.065 99.3793 225.801 99.3793C225.44 99.3793 225.139 99.4602 224.898 99.6222C224.656 99.7812 224.535 99.9872 224.535 100.24C224.535 100.459 224.616 100.635 224.778 100.768C224.94 100.902 225.202 101.011 225.562 101.097L226.602 101.335C227.204 101.474 227.653 101.689 227.949 101.979C228.244 102.268 228.392 102.645 228.392 103.108C228.392 103.5 228.278 103.849 228.051 104.156C227.827 104.46 227.513 104.699 227.109 104.872C226.709 105.045 226.244 105.132 225.716 105.132C224.983 105.132 224.385 104.976 223.922 104.663C223.459 104.348 223.175 103.901 223.069 103.321L224.301 103.134C224.378 103.455 224.535 103.697 224.774 103.862C225.013 104.024 225.324 104.105 225.707 104.105C226.125 104.105 226.459 104.018 226.709 103.845C226.959 103.669 227.084 103.455 227.084 103.202C227.084 102.997 227.007 102.825 226.854 102.686C226.703 102.547 226.471 102.442 226.159 102.371L225.051 102.128C224.44 101.989 223.988 101.767 223.696 101.463C223.406 101.159 223.261 100.774 223.261 100.308C223.261 99.9219 223.369 99.5838 223.585 99.294C223.801 99.0043 224.099 98.7784 224.48 98.6165C224.861 98.4517 225.297 98.3693 225.788 98.3693C226.496 98.3693 227.052 98.5227 227.459 98.8295C227.865 99.1335 228.133 99.5412 228.264 100.053ZM231.458 105.145C231.043 105.145 230.668 105.068 230.333 104.915C229.997 104.759 229.732 104.533 229.536 104.237C229.343 103.942 229.246 103.58 229.246 103.151C229.246 102.781 229.317 102.477 229.459 102.239C229.601 102 229.793 101.811 230.034 101.672C230.276 101.533 230.546 101.428 230.844 101.357C231.142 101.286 231.446 101.232 231.756 101.195C232.148 101.149 232.466 101.112 232.71 101.084C232.955 101.053 233.132 101.003 233.243 100.935C233.354 100.866 233.409 100.756 233.409 100.602V100.572C233.409 100.2 233.304 99.9119 233.094 99.7074C232.887 99.5028 232.577 99.4006 232.165 99.4006C231.736 99.4006 231.398 99.4957 231.151 99.6861C230.906 99.8736 230.737 100.082 230.644 100.312L229.446 100.04C229.588 99.642 229.796 99.321 230.068 99.0767C230.344 98.8295 230.661 98.6506 231.019 98.5398C231.377 98.4261 231.753 98.3693 232.148 98.3693C232.409 98.3693 232.686 98.4006 232.979 98.4631C233.274 98.5227 233.55 98.6335 233.806 98.7955C234.064 98.9574 234.276 99.1889 234.441 99.4901C234.605 99.7884 234.688 100.176 234.688 100.653V105H233.443V104.105H233.392C233.31 104.27 233.186 104.432 233.022 104.591C232.857 104.75 232.645 104.882 232.387 104.987C232.128 105.092 231.818 105.145 231.458 105.145ZM231.735 104.122C232.087 104.122 232.388 104.053 232.638 103.913C232.891 103.774 233.083 103.592 233.213 103.368C233.347 103.141 233.414 102.898 233.414 102.639V101.795C233.368 101.841 233.28 101.884 233.149 101.923C233.022 101.96 232.875 101.993 232.71 102.021C232.546 102.047 232.385 102.071 232.229 102.094C232.073 102.114 231.942 102.131 231.837 102.145C231.59 102.176 231.364 102.229 231.159 102.303C230.958 102.376 230.796 102.483 230.674 102.622C230.554 102.759 230.495 102.94 230.495 103.168C230.495 103.483 230.611 103.722 230.844 103.884C231.077 104.043 231.374 104.122 231.735 104.122ZM239.2 98.4545V99.4773H235.625V98.4545H239.2ZM236.584 96.8864H237.858V103.078C237.858 103.325 237.895 103.511 237.969 103.636C238.043 103.759 238.138 103.842 238.254 103.888C238.374 103.93 238.503 103.952 238.642 103.952C238.744 103.952 238.834 103.945 238.91 103.93C238.987 103.916 239.047 103.905 239.089 103.896L239.32 104.949C239.246 104.977 239.141 105.006 239.004 105.034C238.868 105.065 238.697 105.082 238.493 105.085C238.158 105.091 237.845 105.031 237.555 104.906C237.266 104.781 237.031 104.588 236.852 104.327C236.673 104.065 236.584 103.737 236.584 103.342V96.8864ZM240.37 105V98.4545H241.644V105H240.37ZM241.013 97.4446C240.792 97.4446 240.601 97.3707 240.442 97.223C240.286 97.0724 240.208 96.8935 240.208 96.6861C240.208 96.4759 240.286 96.2969 240.442 96.1491C240.601 95.9986 240.792 95.9233 241.013 95.9233C241.235 95.9233 241.424 95.9986 241.58 96.1491C241.739 96.2969 241.819 96.4759 241.819 96.6861C241.819 96.8935 241.739 97.0724 241.58 97.223C241.424 97.3707 241.235 97.4446 241.013 97.4446ZM245.875 105.132C245.261 105.132 244.726 104.991 244.269 104.71C243.811 104.429 243.456 104.036 243.203 103.53C242.95 103.024 242.824 102.433 242.824 101.757C242.824 101.078 242.95 100.484 243.203 99.9759C243.456 99.4673 243.811 99.0724 244.269 98.7912C244.726 98.5099 245.261 98.3693 245.875 98.3693C246.489 98.3693 247.024 98.5099 247.482 98.7912C247.939 99.0724 248.294 99.4673 248.547 99.9759C248.8 100.484 248.926 101.078 248.926 101.757C248.926 102.433 248.8 103.024 248.547 103.53C248.294 104.036 247.939 104.429 247.482 104.71C247.024 104.991 246.489 105.132 245.875 105.132ZM245.879 104.062C246.277 104.062 246.607 103.957 246.868 103.747C247.129 103.537 247.322 103.257 247.447 102.908C247.575 102.558 247.639 102.173 247.639 101.753C247.639 101.335 247.575 100.952 247.447 100.602C247.322 100.25 247.129 99.9673 246.868 99.7543C246.607 99.5412 246.277 99.4347 245.879 99.4347C245.479 99.4347 245.146 99.5412 244.882 99.7543C244.621 99.9673 244.426 100.25 244.298 100.602C244.173 100.952 244.111 101.335 244.111 101.753C244.111 102.173 244.173 102.558 244.298 102.908C244.426 103.257 244.621 103.537 244.882 103.747C245.146 103.957 245.479 104.062 245.879 104.062ZM251.383 101.114V105H250.108V98.4545H251.331V99.5199H251.412C251.563 99.1733 251.799 98.8949 252.12 98.6847C252.444 98.4744 252.851 98.3693 253.343 98.3693C253.789 98.3693 254.179 98.4631 254.515 98.6506C254.85 98.8352 255.11 99.1108 255.294 99.4773C255.479 99.8437 255.571 100.297 255.571 100.837V105H254.297V100.99C254.297 100.516 254.174 100.145 253.927 99.8778C253.679 99.608 253.34 99.473 252.908 99.473C252.613 99.473 252.35 99.5369 252.12 99.6648C251.893 99.7926 251.712 99.9801 251.579 100.227C251.448 100.472 251.383 100.767 251.383 101.114ZM261.881 105.145C261.466 105.145 261.091 105.068 260.756 104.915C260.421 104.759 260.155 104.533 259.959 104.237C259.766 103.942 259.669 103.58 259.669 103.151C259.669 102.781 259.74 102.477 259.882 102.239C260.024 102 260.216 101.811 260.458 101.672C260.699 101.533 260.969 101.428 261.267 101.357C261.566 101.286 261.87 101.232 262.179 101.195C262.571 101.149 262.889 101.112 263.134 101.084C263.378 101.053 263.556 101.003 263.666 100.935C263.777 100.866 263.833 100.756 263.833 100.602V100.572C263.833 100.2 263.727 99.9119 263.517 99.7074C263.31 99.5028 263 99.4006 262.588 99.4006C262.159 99.4006 261.821 99.4957 261.574 99.6861C261.33 99.8736 261.161 100.082 261.067 100.312L259.87 100.04C260.012 99.642 260.219 99.321 260.492 99.0767C260.767 98.8295 261.084 98.6506 261.442 98.5398C261.8 98.4261 262.176 98.3693 262.571 98.3693C262.833 98.3693 263.11 98.4006 263.402 98.4631C263.698 98.5227 263.973 98.6335 264.229 98.7955C264.487 98.9574 264.699 99.1889 264.864 99.4901C265.029 99.7884 265.111 100.176 265.111 100.653V105H263.867V104.105H263.816C263.733 104.27 263.61 104.432 263.445 104.591C263.28 104.75 263.068 104.882 262.81 104.987C262.551 105.092 262.242 105.145 261.881 105.145ZM262.158 104.122C262.51 104.122 262.811 104.053 263.061 103.913C263.314 103.774 263.506 103.592 263.637 103.368C263.77 103.141 263.837 102.898 263.837 102.639V101.795C263.791 101.841 263.703 101.884 263.573 101.923C263.445 101.96 263.299 101.993 263.134 102.021C262.969 102.047 262.808 102.071 262.652 102.094C262.496 102.114 262.365 102.131 262.26 102.145C262.013 102.176 261.787 102.229 261.583 102.303C261.381 102.376 261.219 102.483 261.097 102.622C260.977 102.759 260.918 102.94 260.918 103.168C260.918 103.483 261.034 103.722 261.267 103.884C261.5 104.043 261.797 104.122 262.158 104.122ZM266.67 105V96.2727H267.945V99.5156H268.021C268.095 99.3793 268.202 99.2216 268.341 99.0426C268.48 98.8636 268.673 98.7074 268.92 98.5739C269.168 98.4375 269.494 98.3693 269.9 98.3693C270.429 98.3693 270.9 98.5028 271.315 98.7699C271.73 99.0369 272.055 99.4219 272.291 99.9247C272.53 100.428 272.649 101.033 272.649 101.74C272.649 102.447 272.531 103.054 272.295 103.56C272.06 104.062 271.736 104.45 271.324 104.723C270.912 104.993 270.442 105.128 269.913 105.128C269.516 105.128 269.19 105.061 268.937 104.928C268.687 104.794 268.491 104.638 268.349 104.459C268.207 104.28 268.098 104.121 268.021 103.982H267.915V105H266.67ZM267.919 101.727C267.919 102.187 267.986 102.591 268.119 102.938C268.253 103.284 268.446 103.555 268.699 103.751C268.952 103.945 269.261 104.041 269.628 104.041C270.008 104.041 270.327 103.94 270.582 103.739C270.838 103.534 271.031 103.257 271.162 102.908C271.295 102.558 271.362 102.165 271.362 101.727C271.362 101.295 271.297 100.908 271.166 100.564C271.038 100.22 270.845 99.9489 270.587 99.75C270.331 99.5511 270.011 99.4517 269.628 99.4517C269.258 99.4517 268.946 99.5469 268.69 99.7372C268.437 99.9276 268.246 100.193 268.115 100.534C267.984 100.875 267.919 101.273 267.919 101.727ZM276.597 105.132C275.983 105.132 275.448 104.991 274.99 104.71C274.533 104.429 274.178 104.036 273.925 103.53C273.672 103.024 273.546 102.433 273.546 101.757C273.546 101.078 273.672 100.484 273.925 99.9759C274.178 99.4673 274.533 99.0724 274.99 98.7912C275.448 98.5099 275.983 98.3693 276.597 98.3693C277.211 98.3693 277.746 98.5099 278.203 98.7912C278.661 99.0724 279.016 99.4673 279.269 99.9759C279.522 100.484 279.648 101.078 279.648 101.757C279.648 102.433 279.522 103.024 279.269 103.53C279.016 104.036 278.661 104.429 278.203 104.71C277.746 104.991 277.211 105.132 276.597 105.132ZM276.601 104.062C276.999 104.062 277.328 103.957 277.59 103.747C277.851 103.537 278.044 103.257 278.169 102.908C278.297 102.558 278.361 102.173 278.361 101.753C278.361 101.335 278.297 100.952 278.169 100.602C278.044 100.25 277.851 99.9673 277.59 99.7543C277.328 99.5412 276.999 99.4347 276.601 99.4347C276.201 99.4347 275.868 99.5412 275.604 99.7543C275.343 99.9673 275.148 100.25 275.02 100.602C274.895 100.952 274.833 101.335 274.833 101.753C274.833 102.173 274.895 102.558 275.02 102.908C275.148 103.257 275.343 103.537 275.604 103.747C275.868 103.957 276.201 104.062 276.601 104.062ZM284.977 102.286V98.4545H286.255V105H285.002V103.866H284.934C284.783 104.216 284.542 104.507 284.21 104.74C283.88 104.97 283.469 105.085 282.978 105.085C282.558 105.085 282.185 104.993 281.862 104.808C281.541 104.621 281.288 104.344 281.103 103.977C280.921 103.611 280.83 103.158 280.83 102.618V98.4545H282.104V102.464C282.104 102.911 282.228 103.266 282.475 103.53C282.722 103.794 283.043 103.926 283.438 103.926C283.677 103.926 283.914 103.866 284.15 103.747C284.389 103.628 284.586 103.447 284.742 103.206C284.901 102.964 284.979 102.658 284.977 102.286ZM290.782 98.4545V99.4773H287.207V98.4545H290.782ZM288.166 96.8864H289.44V103.078C289.44 103.325 289.477 103.511 289.551 103.636C289.625 103.759 289.72 103.842 289.836 103.888C289.956 103.93 290.085 103.952 290.224 103.952C290.326 103.952 290.416 103.945 290.493 103.93C290.569 103.916 290.629 103.905 290.672 103.896L290.902 104.949C290.828 104.977 290.723 105.006 290.586 105.034C290.45 105.065 290.28 105.082 290.075 105.085C289.74 105.091 289.427 105.031 289.138 104.906C288.848 104.781 288.613 104.588 288.434 104.327C288.255 104.065 288.166 103.737 288.166 103.342V96.8864Z" fill="#B0B0B0"/>
<path d="M295.399 106.815V95.9446H298.199V96.9545H296.618V105.805H298.199V106.815H295.399ZM299.183 105V98.4545H300.457V105H299.183ZM299.826 97.4446C299.605 97.4446 299.414 97.3707 299.255 97.223C299.099 97.0724 299.021 96.8935 299.021 96.6861C299.021 96.4759 299.099 96.2969 299.255 96.1491C299.414 95.9986 299.605 95.9233 299.826 95.9233C300.048 95.9233 300.237 95.9986 300.393 96.1491C300.552 96.2969 300.632 96.4759 300.632 96.6861C300.632 96.8935 300.552 97.0724 300.393 97.223C300.237 97.3707 300.048 97.4446 299.826 97.4446ZM303.205 101.114V105H301.931V98.4545H303.154V99.5199H303.235C303.386 99.1733 303.621 98.8949 303.942 98.6847C304.266 98.4744 304.674 98.3693 305.165 98.3693C305.611 98.3693 306.002 98.4631 306.337 98.6506C306.673 98.8352 306.932 99.1108 307.117 99.4773C307.302 99.8437 307.394 100.297 307.394 100.837V105H306.12V100.99C306.12 100.516 305.996 100.145 305.749 99.8778C305.502 99.608 305.163 99.473 304.731 99.473C304.435 99.473 304.173 99.5369 303.942 99.6648C303.715 99.7926 303.535 99.9801 303.401 100.227C303.271 100.472 303.205 100.767 303.205 101.114ZM311.918 98.4545V99.4773H308.343V98.4545H311.918ZM309.302 96.8864H310.576V103.078C310.576 103.325 310.613 103.511 310.687 103.636C310.761 103.759 310.856 103.842 310.972 103.888C311.092 103.93 311.221 103.952 311.36 103.952C311.462 103.952 311.552 103.945 311.629 103.93C311.705 103.916 311.765 103.905 311.808 103.896L312.038 104.949C311.964 104.977 311.859 105.006 311.722 105.034C311.586 105.065 311.415 105.082 311.211 105.085C310.876 105.091 310.563 105.031 310.273 104.906C309.984 104.781 309.749 104.588 309.57 104.327C309.391 104.065 309.302 103.737 309.302 103.342V96.8864ZM315.838 105.132C315.194 105.132 314.638 104.994 314.172 104.719C313.709 104.44 313.351 104.05 313.098 103.547C312.848 103.041 312.723 102.449 312.723 101.77C312.723 101.099 312.848 100.509 313.098 99.9972C313.351 99.4858 313.704 99.0866 314.155 98.7997C314.61 98.5128 315.141 98.3693 315.749 98.3693C316.118 98.3693 316.476 98.4304 316.823 98.5526C317.169 98.6747 317.481 98.8665 317.756 99.1278C318.032 99.3892 318.249 99.7287 318.408 100.146C318.567 100.561 318.647 101.065 318.647 101.659V102.111H313.444V101.156H317.398C317.398 100.821 317.33 100.524 317.194 100.266C317.057 100.004 316.865 99.7983 316.618 99.6477C316.374 99.4972 316.087 99.4219 315.758 99.4219C315.4 99.4219 315.087 99.5099 314.82 99.6861C314.556 99.8594 314.351 100.087 314.206 100.368C314.064 100.646 313.993 100.949 313.993 101.276V102.021C313.993 102.459 314.07 102.831 314.223 103.138C314.38 103.445 314.597 103.679 314.875 103.841C315.154 104 315.479 104.08 315.851 104.08C316.093 104.08 316.313 104.045 316.512 103.977C316.711 103.906 316.883 103.801 317.027 103.662C317.172 103.523 317.283 103.351 317.36 103.146L318.566 103.364C318.469 103.719 318.296 104.03 318.046 104.297C317.799 104.561 317.488 104.767 317.113 104.915C316.74 105.06 316.316 105.132 315.838 105.132ZM319.82 105V98.4545H321.052V99.4943H321.12C321.239 99.142 321.45 98.8651 321.751 98.6634C322.055 98.4588 322.399 98.3565 322.782 98.3565C322.862 98.3565 322.955 98.3594 323.063 98.3651C323.174 98.3707 323.261 98.3778 323.323 98.3864V99.6051C323.272 99.5909 323.181 99.5753 323.051 99.5582C322.92 99.5384 322.789 99.5284 322.659 99.5284C322.357 99.5284 322.089 99.5923 321.853 99.7202C321.62 99.8452 321.436 100.02 321.299 100.244C321.163 100.466 321.095 100.719 321.095 101.003V105H319.82ZM326.773 105.132C326.128 105.132 325.572 104.994 325.106 104.719C324.643 104.44 324.285 104.05 324.033 103.547C323.783 103.041 323.658 102.449 323.658 101.77C323.658 101.099 323.783 100.509 324.033 99.9972C324.285 99.4858 324.638 99.0866 325.089 98.7997C325.544 98.5128 326.075 98.3693 326.683 98.3693C327.052 98.3693 327.41 98.4304 327.757 98.5526C328.104 98.6747 328.415 98.8665 328.69 99.1278C328.966 99.3892 329.183 99.7287 329.342 100.146C329.501 100.561 329.581 101.065 329.581 101.659V102.111H324.378V101.156H328.332C328.332 100.821 328.264 100.524 328.128 100.266C327.991 100.004 327.8 99.7983 327.552 99.6477C327.308 99.4972 327.021 99.4219 326.692 99.4219C326.334 99.4219 326.021 99.5099 325.754 99.6861C325.49 99.8594 325.285 100.087 325.14 100.368C324.998 100.646 324.927 100.949 324.927 101.276V102.021C324.927 102.459 325.004 102.831 325.158 103.138C325.314 103.445 325.531 103.679 325.809 103.841C326.088 104 326.413 104.08 326.785 104.08C327.027 104.08 327.247 104.045 327.446 103.977C327.645 103.906 327.817 103.801 327.961 103.662C328.106 103.523 328.217 103.351 328.294 103.146L329.5 103.364C329.403 103.719 329.23 104.03 328.98 104.297C328.733 104.561 328.422 104.767 328.047 104.915C327.675 105.06 327.25 105.132 326.773 105.132ZM335.659 100.053L334.505 100.257C334.456 100.109 334.38 99.9687 334.274 99.8352C334.172 99.7017 334.033 99.5923 333.857 99.5071C333.681 99.4219 333.46 99.3793 333.196 99.3793C332.835 99.3793 332.534 99.4602 332.293 99.6222C332.051 99.7812 331.931 99.9872 331.931 100.24C331.931 100.459 332.012 100.635 332.174 100.768C332.335 100.902 332.597 101.011 332.958 101.097L333.997 101.335C334.6 101.474 335.049 101.689 335.344 101.979C335.639 102.268 335.787 102.645 335.787 103.108C335.787 103.5 335.674 103.849 335.446 104.156C335.222 104.46 334.908 104.699 334.505 104.872C334.104 105.045 333.639 105.132 333.111 105.132C332.378 105.132 331.78 104.976 331.317 104.663C330.854 104.348 330.57 103.901 330.465 103.321L331.696 103.134C331.773 103.455 331.931 103.697 332.169 103.862C332.408 104.024 332.719 104.105 333.103 104.105C333.52 104.105 333.854 104.018 334.104 103.845C334.354 103.669 334.479 103.455 334.479 103.202C334.479 102.997 334.402 102.825 334.249 102.686C334.098 102.547 333.867 102.442 333.554 102.371L332.446 102.128C331.835 101.989 331.384 101.767 331.091 101.463C330.801 101.159 330.657 100.774 330.657 100.308C330.657 99.9219 330.764 99.5838 330.98 99.294C331.196 99.0043 331.495 98.7784 331.875 98.6165C332.256 98.4517 332.692 98.3693 333.183 98.3693C333.891 98.3693 334.448 98.5227 334.854 98.8295C335.26 99.1335 335.529 99.5412 335.659 100.053ZM340.003 98.4545V99.4773H336.428V98.4545H340.003ZM337.387 96.8864H338.661V103.078C338.661 103.325 338.698 103.511 338.772 103.636C338.846 103.759 338.941 103.842 339.057 103.888C339.177 103.93 339.306 103.952 339.445 103.952C339.548 103.952 339.637 103.945 339.714 103.93C339.79 103.916 339.85 103.905 339.893 103.896L340.123 104.949C340.049 104.977 339.944 105.006 339.807 105.034C339.671 105.065 339.501 105.082 339.296 105.085C338.961 105.091 338.648 105.031 338.359 104.906C338.069 104.781 337.834 104.588 337.655 104.327C337.476 104.065 337.387 103.737 337.387 103.342V96.8864ZM343.483 95.9446V106.815H340.683V105.805H342.264V96.9545H340.683V95.9446H343.483Z" fill="#30A5FF"/>
<path d="M71.696 124H70.2983L73.4389 115.273H74.9602L78.1009 124H76.7031L74.2358 116.858H74.1676L71.696 124ZM71.9304 120.582H76.4645V121.69H71.9304V120.582ZM79.0189 124V117.455H80.2504V118.494H80.3186C80.4379 118.142 80.6481 117.865 80.9493 117.663C81.2533 117.459 81.597 117.357 81.9805 117.357C82.0601 117.357 82.1538 117.359 82.2618 117.365C82.3726 117.371 82.4592 117.378 82.5217 117.386V118.605C82.4706 118.591 82.3797 118.575 82.249 118.558C82.1183 118.538 81.9876 118.528 81.8569 118.528C81.5558 118.528 81.2873 118.592 81.0515 118.72C80.8186 118.845 80.6339 119.02 80.4976 119.244C80.3612 119.466 80.293 119.719 80.293 120.003V124H79.0189ZM85.971 124.132C85.3261 124.132 84.7707 123.994 84.3048 123.719C83.8417 123.44 83.4838 123.05 83.2309 122.547C82.9809 122.041 82.8559 121.449 82.8559 120.77C82.8559 120.099 82.9809 119.509 83.2309 118.997C83.4838 118.486 83.8361 118.087 84.2878 117.8C84.7423 117.513 85.2736 117.369 85.8815 117.369C86.2508 117.369 86.6088 117.43 86.9554 117.553C87.302 117.675 87.613 117.866 87.8886 118.128C88.1642 118.389 88.3815 118.729 88.5406 119.146C88.6997 119.561 88.7792 120.065 88.7792 120.659V121.111H83.5761V120.156H87.5307C87.5307 119.821 87.4625 119.524 87.3261 119.266C87.1897 119.004 86.998 118.798 86.7508 118.648C86.5065 118.497 86.2196 118.422 85.89 118.422C85.5321 118.422 85.2196 118.51 84.9525 118.686C84.6883 118.859 84.4838 119.087 84.3389 119.368C84.1968 119.646 84.1258 119.949 84.1258 120.276V121.021C84.1258 121.459 84.2025 121.831 84.3559 122.138C84.5122 122.445 84.7295 122.679 85.0079 122.841C85.2863 123 85.6116 123.08 85.9838 123.08C86.2253 123.08 86.4454 123.045 86.6443 122.977C86.8432 122.906 87.015 122.801 87.1599 122.662C87.3048 122.523 87.4156 122.351 87.4923 122.146L88.6983 122.364C88.6017 122.719 88.4284 123.03 88.1784 123.297C87.9312 123.561 87.6201 123.767 87.2451 123.915C86.873 124.06 86.4483 124.132 85.971 124.132ZM93.6941 126.455C93.5038 126.455 93.3305 126.439 93.1742 126.408C93.018 126.379 92.9015 126.348 92.8248 126.314L93.1316 125.27C93.3646 125.332 93.572 125.359 93.7538 125.351C93.9356 125.342 94.0961 125.274 94.2353 125.146C94.3774 125.018 94.5024 124.81 94.6103 124.52L94.768 124.085L92.3731 117.455H93.7367L95.3944 122.534H95.4626L97.1203 117.455H98.4882L95.7907 124.874C95.6657 125.214 95.5066 125.503 95.3134 125.739C95.1203 125.977 94.8901 126.156 94.6231 126.276C94.3561 126.395 94.0464 126.455 93.6941 126.455ZM101.98 124.132C101.366 124.132 100.831 123.991 100.374 123.71C99.9161 123.429 99.561 123.036 99.3082 122.53C99.0553 122.024 98.9289 121.433 98.9289 120.757C98.9289 120.078 99.0553 119.484 99.3082 118.976C99.561 118.467 99.9161 118.072 100.374 117.791C100.831 117.51 101.366 117.369 101.98 117.369C102.594 117.369 103.129 117.51 103.587 117.791C104.044 118.072 104.399 118.467 104.652 118.976C104.905 119.484 105.031 120.078 105.031 120.757C105.031 121.433 104.905 122.024 104.652 122.53C104.399 123.036 104.044 123.429 103.587 123.71C103.129 123.991 102.594 124.132 101.98 124.132ZM101.984 123.062C102.382 123.062 102.712 122.957 102.973 122.747C103.234 122.537 103.427 122.257 103.552 121.908C103.68 121.558 103.744 121.173 103.744 120.753C103.744 120.335 103.68 119.952 103.552 119.602C103.427 119.25 103.234 118.967 102.973 118.754C102.712 118.541 102.382 118.435 101.984 118.435C101.584 118.435 101.251 118.541 100.987 118.754C100.726 118.967 100.531 119.25 100.403 119.602C100.278 119.952 100.216 120.335 100.216 120.753C100.216 121.173 100.278 121.558 100.403 121.908C100.531 122.257 100.726 122.537 100.987 122.747C101.251 122.957 101.584 123.062 101.984 123.062ZM110.36 121.286V117.455H111.638V124H110.385V122.866H110.317C110.167 123.216 109.925 123.507 109.593 123.74C109.263 123.97 108.853 124.085 108.361 124.085C107.941 124.085 107.569 123.993 107.245 123.808C106.924 123.621 106.671 123.344 106.486 122.977C106.304 122.611 106.213 122.158 106.213 121.618V117.455H107.488V121.464C107.488 121.911 107.611 122.266 107.858 122.53C108.105 122.794 108.426 122.926 108.821 122.926C109.06 122.926 109.297 122.866 109.533 122.747C109.772 122.628 109.969 122.447 110.125 122.206C110.284 121.964 110.363 121.658 110.36 121.286ZM117.951 124.145C117.536 124.145 117.161 124.068 116.826 123.915C116.491 123.759 116.225 123.533 116.029 123.237C115.836 122.942 115.739 122.58 115.739 122.151C115.739 121.781 115.81 121.477 115.952 121.239C116.094 121 116.286 120.811 116.527 120.672C116.769 120.533 117.039 120.428 117.337 120.357C117.635 120.286 117.939 120.232 118.249 120.195C118.641 120.149 118.959 120.112 119.204 120.084C119.448 120.053 119.625 120.003 119.736 119.935C119.847 119.866 119.902 119.756 119.902 119.602V119.572C119.902 119.2 119.797 118.912 119.587 118.707C119.38 118.503 119.07 118.401 118.658 118.401C118.229 118.401 117.891 118.496 117.644 118.686C117.4 118.874 117.231 119.082 117.137 119.312L115.939 119.04C116.081 118.642 116.289 118.321 116.562 118.077C116.837 117.83 117.154 117.651 117.512 117.54C117.87 117.426 118.246 117.369 118.641 117.369C118.902 117.369 119.179 117.401 119.472 117.463C119.768 117.523 120.043 117.634 120.299 117.795C120.557 117.957 120.769 118.189 120.934 118.49C121.098 118.788 121.181 119.176 121.181 119.653V124H119.937V123.105H119.885C119.803 123.27 119.679 123.432 119.515 123.591C119.35 123.75 119.138 123.882 118.88 123.987C118.621 124.092 118.312 124.145 117.951 124.145ZM118.228 123.122C118.58 123.122 118.881 123.053 119.131 122.913C119.384 122.774 119.576 122.592 119.706 122.368C119.84 122.141 119.907 121.898 119.907 121.639V120.795C119.861 120.841 119.773 120.884 119.643 120.923C119.515 120.96 119.368 120.993 119.204 121.021C119.039 121.047 118.878 121.071 118.722 121.094C118.566 121.114 118.435 121.131 118.33 121.145C118.083 121.176 117.857 121.229 117.652 121.303C117.451 121.376 117.289 121.483 117.167 121.622C117.047 121.759 116.988 121.94 116.988 122.168C116.988 122.483 117.104 122.722 117.337 122.884C117.57 123.043 117.867 123.122 118.228 123.122ZM128.003 117.455L125.629 124H124.266L121.888 117.455H123.256L124.914 122.491H124.982L126.635 117.455H128.003ZM130.678 124.145C130.263 124.145 129.888 124.068 129.553 123.915C129.218 123.759 128.952 123.533 128.756 123.237C128.563 122.942 128.466 122.58 128.466 122.151C128.466 121.781 128.537 121.477 128.679 121.239C128.821 121 129.013 120.811 129.254 120.672C129.496 120.533 129.766 120.428 130.064 120.357C130.362 120.286 130.666 120.232 130.976 120.195C131.368 120.149 131.686 120.112 131.931 120.084C132.175 120.053 132.352 120.003 132.463 119.935C132.574 119.866 132.629 119.756 132.629 119.602V119.572C132.629 119.2 132.524 118.912 132.314 118.707C132.107 118.503 131.797 118.401 131.385 118.401C130.956 118.401 130.618 118.496 130.371 118.686C130.127 118.874 129.958 119.082 129.864 119.312L128.666 119.04C128.808 118.642 129.016 118.321 129.289 118.077C129.564 117.83 129.881 117.651 130.239 117.54C130.597 117.426 130.973 117.369 131.368 117.369C131.629 117.369 131.906 117.401 132.199 117.463C132.495 117.523 132.77 117.634 133.026 117.795C133.284 117.957 133.496 118.189 133.661 118.49C133.825 118.788 133.908 119.176 133.908 119.653V124H132.664V123.105H132.612C132.53 123.27 132.406 123.432 132.242 123.591C132.077 123.75 131.865 123.882 131.607 123.987C131.348 124.092 131.039 124.145 130.678 124.145ZM130.955 123.122C131.307 123.122 131.608 123.053 131.858 122.913C132.111 122.774 132.303 122.592 132.433 122.368C132.567 122.141 132.634 121.898 132.634 121.639V120.795C132.588 120.841 132.5 120.884 132.37 120.923C132.242 120.96 132.095 120.993 131.931 121.021C131.766 121.047 131.605 121.071 131.449 121.094C131.293 121.114 131.162 121.131 131.057 121.145C130.81 121.176 130.584 121.229 130.379 121.303C130.178 121.376 130.016 121.483 129.894 121.622C129.774 121.759 129.715 121.94 129.715 122.168C129.715 122.483 129.831 122.722 130.064 122.884C130.297 123.043 130.594 123.122 130.955 123.122ZM135.365 124V117.455H136.639V124H135.365ZM136.008 116.445C135.787 116.445 135.597 116.371 135.437 116.223C135.281 116.072 135.203 115.893 135.203 115.686C135.203 115.476 135.281 115.297 135.437 115.149C135.597 114.999 135.787 114.923 136.008 114.923C136.23 114.923 136.419 114.999 136.575 115.149C136.734 115.297 136.814 115.476 136.814 115.686C136.814 115.893 136.734 116.072 136.575 116.223C136.419 116.371 136.23 116.445 136.008 116.445ZM139.387 115.273V124H138.113V115.273H139.387ZM142.766 124.145C142.352 124.145 141.977 124.068 141.641 123.915C141.306 123.759 141.041 123.533 140.844 123.237C140.651 122.942 140.555 122.58 140.555 122.151C140.555 121.781 140.626 121.477 140.768 121.239C140.91 121 141.102 120.811 141.343 120.672C141.585 120.533 141.854 120.428 142.153 120.357C142.451 120.286 142.755 120.232 143.065 120.195C143.457 120.149 143.775 120.112 144.019 120.084C144.264 120.053 144.441 120.003 144.552 119.935C144.663 119.866 144.718 119.756 144.718 119.602V119.572C144.718 119.2 144.613 118.912 144.403 118.707C144.195 118.503 143.886 118.401 143.474 118.401C143.045 118.401 142.707 118.496 142.46 118.686C142.215 118.874 142.046 119.082 141.952 119.312L140.755 119.04C140.897 118.642 141.104 118.321 141.377 118.077C141.653 117.83 141.969 117.651 142.327 117.54C142.685 117.426 143.062 117.369 143.457 117.369C143.718 117.369 143.995 117.401 144.288 117.463C144.583 117.523 144.859 117.634 145.114 117.795C145.373 117.957 145.585 118.189 145.749 118.49C145.914 118.788 145.996 119.176 145.996 119.653V124H144.752V123.105H144.701C144.619 123.27 144.495 123.432 144.33 123.591C144.166 123.75 143.954 123.882 143.695 123.987C143.437 124.092 143.127 124.145 142.766 124.145ZM143.043 123.122C143.396 123.122 143.697 123.053 143.947 122.913C144.2 122.774 144.391 122.592 144.522 122.368C144.656 122.141 144.722 121.898 144.722 121.639V120.795C144.677 120.841 144.589 120.884 144.458 120.923C144.33 120.96 144.184 120.993 144.019 121.021C143.854 121.047 143.694 121.071 143.538 121.094C143.381 121.114 143.251 121.131 143.146 121.145C142.898 121.176 142.673 121.229 142.468 121.303C142.266 121.376 142.104 121.483 141.982 121.622C141.863 121.759 141.803 121.94 141.803 122.168C141.803 122.483 141.92 122.722 142.153 122.884C142.386 123.043 142.683 123.122 143.043 123.122ZM147.556 124V115.273H148.83V118.516H148.907C148.981 118.379 149.087 118.222 149.226 118.043C149.365 117.864 149.559 117.707 149.806 117.574C150.053 117.438 150.38 117.369 150.786 117.369C151.314 117.369 151.786 117.503 152.201 117.77C152.615 118.037 152.941 118.422 153.177 118.925C153.415 119.428 153.535 120.033 153.535 120.74C153.535 121.447 153.417 122.054 153.181 122.56C152.945 123.062 152.621 123.45 152.209 123.723C151.797 123.993 151.327 124.128 150.799 124.128C150.401 124.128 150.076 124.061 149.823 123.928C149.573 123.794 149.377 123.638 149.235 123.459C149.093 123.28 148.983 123.121 148.907 122.982H148.8V124H147.556ZM148.804 120.727C148.804 121.187 148.871 121.591 149.005 121.938C149.138 122.284 149.331 122.555 149.584 122.751C149.837 122.945 150.147 123.041 150.513 123.041C150.894 123.041 151.212 122.94 151.468 122.739C151.723 122.534 151.917 122.257 152.047 121.908C152.181 121.558 152.248 121.165 152.248 120.727C152.248 120.295 152.182 119.908 152.052 119.564C151.924 119.22 151.731 118.949 151.472 118.75C151.216 118.551 150.897 118.452 150.513 118.452C150.144 118.452 149.831 118.547 149.576 118.737C149.323 118.928 149.131 119.193 149 119.534C148.87 119.875 148.804 120.273 148.804 120.727ZM155.999 115.273V124H154.725V115.273H155.999ZM160.295 124.132C159.65 124.132 159.094 123.994 158.628 123.719C158.165 123.44 157.807 123.05 157.555 122.547C157.305 122.041 157.18 121.449 157.18 120.77C157.18 120.099 157.305 119.509 157.555 118.997C157.807 118.486 158.16 118.087 158.611 117.8C159.066 117.513 159.597 117.369 160.205 117.369C160.574 117.369 160.932 117.43 161.279 117.553C161.626 117.675 161.937 117.866 162.212 118.128C162.488 118.389 162.705 118.729 162.864 119.146C163.023 119.561 163.103 120.065 163.103 120.659V121.111H157.9V120.156H161.854C161.854 119.821 161.786 119.524 161.65 119.266C161.513 119.004 161.322 118.798 161.074 118.648C160.83 118.497 160.543 118.422 160.214 118.422C159.856 118.422 159.543 118.51 159.276 118.686C159.012 118.859 158.807 119.087 158.662 119.368C158.52 119.646 158.449 119.949 158.449 120.276V121.021C158.449 121.459 158.526 121.831 158.68 122.138C158.836 122.445 159.053 122.679 159.332 122.841C159.61 123 159.935 123.08 160.307 123.08C160.549 123.08 160.769 123.045 160.968 122.977C161.167 122.906 161.339 122.801 161.484 122.662C161.628 122.523 161.739 122.351 161.816 122.146L163.022 122.364C162.925 122.719 162.752 123.03 162.502 123.297C162.255 123.561 161.944 123.767 161.569 123.915C161.197 124.06 160.772 124.132 160.295 124.132ZM170.327 117.455V118.477H166.629V117.455H170.327ZM167.643 124V116.696C167.643 116.287 167.732 115.947 167.911 115.678C168.09 115.405 168.327 115.202 168.623 115.068C168.918 114.932 169.239 114.864 169.586 114.864C169.842 114.864 170.06 114.885 170.242 114.928C170.424 114.967 170.559 115.004 170.647 115.038L170.349 116.07C170.289 116.053 170.212 116.033 170.119 116.01C170.025 115.984 169.911 115.972 169.778 115.972C169.468 115.972 169.246 116.048 169.113 116.202C168.982 116.355 168.917 116.577 168.917 116.866V124H167.643ZM173.901 124.132C173.288 124.132 172.752 123.991 172.295 123.71C171.837 123.429 171.482 123.036 171.229 122.53C170.977 122.024 170.85 121.433 170.85 120.757C170.85 120.078 170.977 119.484 171.229 118.976C171.482 118.467 171.837 118.072 172.295 117.791C172.752 117.51 173.288 117.369 173.901 117.369C174.515 117.369 175.05 117.51 175.508 117.791C175.965 118.072 176.32 118.467 176.573 118.976C176.826 119.484 176.952 120.078 176.952 120.757C176.952 121.433 176.826 122.024 176.573 122.53C176.32 123.036 175.965 123.429 175.508 123.71C175.05 123.991 174.515 124.132 173.901 124.132ZM173.906 123.062C174.303 123.062 174.633 122.957 174.894 122.747C175.156 122.537 175.349 122.257 175.474 121.908C175.602 121.558 175.665 121.173 175.665 120.753C175.665 120.335 175.602 119.952 175.474 119.602C175.349 119.25 175.156 118.967 174.894 118.754C174.633 118.541 174.303 118.435 173.906 118.435C173.505 118.435 173.173 118.541 172.908 118.754C172.647 118.967 172.452 119.25 172.325 119.602C172.2 119.952 172.137 120.335 172.137 120.753C172.137 121.173 172.2 121.558 172.325 121.908C172.452 122.257 172.647 122.537 172.908 122.747C173.173 122.957 173.505 123.062 173.906 123.062ZM178.135 124V117.455H179.366V118.494H179.434C179.554 118.142 179.764 117.865 180.065 117.663C180.369 117.459 180.713 117.357 181.096 117.357C181.176 117.357 181.27 117.359 181.378 117.365C181.488 117.371 181.575 117.378 181.637 117.386V118.605C181.586 118.591 181.495 118.575 181.365 118.558C181.234 118.538 181.103 118.528 180.973 118.528C180.672 118.528 180.403 118.592 180.167 118.72C179.934 118.845 179.75 119.02 179.613 119.244C179.477 119.466 179.409 119.719 179.409 120.003V124H178.135ZM187.341 124.145C186.926 124.145 186.551 124.068 186.216 123.915C185.881 123.759 185.615 123.533 185.419 123.237C185.226 122.942 185.129 122.58 185.129 122.151C185.129 121.781 185.2 121.477 185.342 121.239C185.484 121 185.676 120.811 185.917 120.672C186.159 120.533 186.429 120.428 186.727 120.357C187.025 120.286 187.329 120.232 187.639 120.195C188.031 120.149 188.349 120.112 188.594 120.084C188.838 120.053 189.015 120.003 189.126 119.935C189.237 119.866 189.292 119.756 189.292 119.602V119.572C189.292 119.2 189.187 118.912 188.977 118.707C188.77 118.503 188.46 118.401 188.048 118.401C187.619 118.401 187.281 118.496 187.034 118.686C186.79 118.874 186.621 119.082 186.527 119.312L185.329 119.04C185.471 118.642 185.679 118.321 185.952 118.077C186.227 117.83 186.544 117.651 186.902 117.54C187.26 117.426 187.636 117.369 188.031 117.369C188.292 117.369 188.569 117.401 188.862 117.463C189.158 117.523 189.433 117.634 189.689 117.795C189.947 117.957 190.159 118.189 190.324 118.49C190.488 118.788 190.571 119.176 190.571 119.653V124H189.327V123.105H189.275C189.193 123.27 189.069 123.432 188.905 123.591C188.74 123.75 188.528 123.882 188.27 123.987C188.011 124.092 187.702 124.145 187.341 124.145ZM187.618 123.122C187.97 123.122 188.271 123.053 188.521 122.913C188.774 122.774 188.966 122.592 189.096 122.368C189.23 122.141 189.297 121.898 189.297 121.639V120.795C189.251 120.841 189.163 120.884 189.033 120.923C188.905 120.96 188.758 120.993 188.594 121.021C188.429 121.047 188.268 121.071 188.112 121.094C187.956 121.114 187.825 121.131 187.72 121.145C187.473 121.176 187.247 121.229 187.042 121.303C186.841 121.376 186.679 121.483 186.557 121.622C186.437 121.759 186.378 121.94 186.378 122.168C186.378 122.483 186.494 122.722 186.727 122.884C186.96 123.043 187.257 123.122 187.618 123.122ZM199.383 126.455V122.982H199.306C199.229 123.121 199.119 123.28 198.974 123.459C198.832 123.638 198.636 123.794 198.386 123.928C198.136 124.061 197.812 124.128 197.414 124.128C196.886 124.128 196.414 123.993 195.999 123.723C195.587 123.45 195.263 123.062 195.028 122.56C194.795 122.054 194.678 121.447 194.678 120.74C194.678 120.033 194.796 119.428 195.032 118.925C195.271 118.422 195.597 118.037 196.012 117.77C196.427 117.503 196.897 117.369 197.423 117.369C197.829 117.369 198.155 117.438 198.403 117.574C198.653 117.707 198.846 117.864 198.982 118.043C199.121 118.222 199.229 118.379 199.306 118.516H199.413V117.455H200.657V126.455H199.383ZM197.695 123.041C198.062 123.041 198.371 122.945 198.624 122.751C198.88 122.555 199.073 122.284 199.204 121.938C199.337 121.591 199.404 121.187 199.404 120.727C199.404 120.273 199.339 119.875 199.208 119.534C199.077 119.193 198.886 118.928 198.633 118.737C198.38 118.547 198.067 118.452 197.695 118.452C197.312 118.452 196.992 118.551 196.736 118.75C196.481 118.949 196.288 119.22 196.157 119.564C196.029 119.908 195.965 120.295 195.965 120.727C195.965 121.165 196.03 121.558 196.161 121.908C196.292 122.257 196.485 122.534 196.741 122.739C196.999 122.94 197.317 123.041 197.695 123.041ZM206.276 121.286V117.455H207.555V124H206.302V122.866H206.234C206.083 123.216 205.842 123.507 205.509 123.74C205.18 123.97 204.769 124.085 204.278 124.085C203.857 124.085 203.485 123.993 203.161 123.808C202.84 123.621 202.587 123.344 202.403 122.977C202.221 122.611 202.13 122.158 202.13 121.618V117.455H203.404V121.464C203.404 121.911 203.528 122.266 203.775 122.53C204.022 122.794 204.343 122.926 204.738 122.926C204.977 122.926 205.214 122.866 205.45 122.747C205.688 122.628 205.886 122.447 206.042 122.206C206.201 121.964 206.279 121.658 206.276 121.286ZM209.027 124V117.455H210.301V124H209.027ZM209.67 116.445C209.449 116.445 209.258 116.371 209.099 116.223C208.943 116.072 208.865 115.893 208.865 115.686C208.865 115.476 208.943 115.297 209.099 115.149C209.258 114.999 209.449 114.923 209.67 114.923C209.892 114.923 210.081 114.999 210.237 115.149C210.396 115.297 210.476 115.476 210.476 115.686C210.476 115.893 210.396 116.072 210.237 116.223C210.081 116.371 209.892 116.445 209.67 116.445ZM214.532 124.132C213.899 124.132 213.353 123.989 212.896 123.702C212.441 123.412 212.092 123.013 211.847 122.504C211.603 121.996 211.481 121.413 211.481 120.757C211.481 120.092 211.606 119.506 211.856 118.997C212.106 118.486 212.458 118.087 212.913 117.8C213.367 117.513 213.903 117.369 214.519 117.369C215.016 117.369 215.46 117.462 215.849 117.646C216.238 117.828 216.552 118.084 216.791 118.413C217.032 118.743 217.176 119.128 217.221 119.568H215.981C215.913 119.261 215.757 118.997 215.512 118.776C215.271 118.554 214.947 118.443 214.541 118.443C214.185 118.443 213.874 118.537 213.607 118.724C213.343 118.909 213.137 119.173 212.989 119.517C212.842 119.858 212.768 120.261 212.768 120.727C212.768 121.205 212.84 121.616 212.985 121.963C213.13 122.31 213.335 122.578 213.599 122.768C213.866 122.959 214.18 123.054 214.541 123.054C214.782 123.054 215.001 123.01 215.197 122.922C215.396 122.831 215.562 122.702 215.695 122.534C215.832 122.366 215.927 122.165 215.981 121.929H217.221C217.176 122.352 217.038 122.73 216.808 123.062C216.578 123.395 216.269 123.656 215.883 123.847C215.499 124.037 215.049 124.132 214.532 124.132ZM219.515 121.78L219.507 120.224H219.729L222.336 117.455H223.862L220.888 120.608H220.687L219.515 121.78ZM218.344 124V115.273H219.618V124H218.344ZM222.477 124L220.133 120.889L221.011 119.999L224.041 124H222.477ZM230.476 124.132C229.843 124.132 229.297 123.989 228.84 123.702C228.385 123.412 228.036 123.013 227.791 122.504C227.547 121.996 227.425 121.413 227.425 120.757C227.425 120.092 227.55 119.506 227.8 118.997C228.05 118.486 228.402 118.087 228.857 117.8C229.311 117.513 229.847 117.369 230.463 117.369C230.961 117.369 231.404 117.462 231.793 117.646C232.182 117.828 232.496 118.084 232.735 118.413C232.976 118.743 233.12 119.128 233.165 119.568H231.925C231.857 119.261 231.701 118.997 231.456 118.776C231.215 118.554 230.891 118.443 230.485 118.443C230.13 118.443 229.818 118.537 229.551 118.724C229.287 118.909 229.081 119.173 228.934 119.517C228.786 119.858 228.712 120.261 228.712 120.727C228.712 121.205 228.784 121.616 228.929 121.963C229.074 122.31 229.279 122.578 229.543 122.768C229.81 122.959 230.124 123.054 230.485 123.054C230.726 123.054 230.945 123.01 231.141 122.922C231.34 122.831 231.506 122.702 231.639 122.534C231.776 122.366 231.871 122.165 231.925 121.929H233.165C233.12 122.352 232.982 122.73 232.752 123.062C232.522 123.395 232.213 123.656 231.827 123.847C231.443 124.037 230.993 124.132 230.476 124.132ZM236.192 124.145C235.778 124.145 235.403 124.068 235.067 123.915C234.732 123.759 234.467 123.533 234.271 123.237C234.077 122.942 233.981 122.58 233.981 122.151C233.981 121.781 234.052 121.477 234.194 121.239C234.336 121 234.528 120.811 234.769 120.672C235.011 120.533 235.281 120.428 235.579 120.357C235.877 120.286 236.181 120.232 236.491 120.195C236.883 120.149 237.201 120.112 237.445 120.084C237.69 120.053 237.867 120.003 237.978 119.935C238.089 119.866 238.144 119.756 238.144 119.602V119.572C238.144 119.2 238.039 118.912 237.829 118.707C237.621 118.503 237.312 118.401 236.9 118.401C236.471 118.401 236.133 118.496 235.886 118.686C235.641 118.874 235.472 119.082 235.379 119.312L234.181 119.04C234.323 118.642 234.531 118.321 234.803 118.077C235.079 117.83 235.396 117.651 235.754 117.54C236.111 117.426 236.488 117.369 236.883 117.369C237.144 117.369 237.421 117.401 237.714 117.463C238.009 117.523 238.285 117.634 238.54 117.795C238.799 117.957 239.011 118.189 239.175 118.49C239.34 118.788 239.423 119.176 239.423 119.653V124H238.178V123.105H238.127C238.045 123.27 237.921 123.432 237.756 123.591C237.592 123.75 237.38 123.882 237.121 123.987C236.863 124.092 236.553 124.145 236.192 124.145ZM236.469 123.122C236.822 123.122 237.123 123.053 237.373 122.913C237.626 122.774 237.817 122.592 237.948 122.368C238.082 122.141 238.148 121.898 238.148 121.639V120.795C238.103 120.841 238.015 120.884 237.884 120.923C237.756 120.96 237.61 120.993 237.445 121.021C237.281 121.047 237.12 121.071 236.964 121.094C236.808 121.114 236.677 121.131 236.572 121.145C236.325 121.176 236.099 121.229 235.894 121.303C235.692 121.376 235.531 121.483 235.408 121.622C235.289 121.759 235.229 121.94 235.229 122.168C235.229 122.483 235.346 122.722 235.579 122.884C235.812 123.043 236.109 123.122 236.469 123.122ZM242.154 115.273V124H240.88V115.273H242.154ZM244.902 115.273V124H243.628V115.273H244.902ZM252.069 124.132C251.455 124.132 250.92 123.991 250.463 123.71C250.005 123.429 249.65 123.036 249.397 122.53C249.144 122.024 249.018 121.433 249.018 120.757C249.018 120.078 249.144 119.484 249.397 118.976C249.65 118.467 250.005 118.072 250.463 117.791C250.92 117.51 251.455 117.369 252.069 117.369C252.683 117.369 253.218 117.51 253.676 117.791C254.133 118.072 254.488 118.467 254.741 118.976C254.994 119.484 255.12 120.078 255.12 120.757C255.12 121.433 254.994 122.024 254.741 122.53C254.488 123.036 254.133 123.429 253.676 123.71C253.218 123.991 252.683 124.132 252.069 124.132ZM252.073 123.062C252.471 123.062 252.801 122.957 253.062 122.747C253.323 122.537 253.517 122.257 253.642 121.908C253.769 121.558 253.833 121.173 253.833 120.753C253.833 120.335 253.769 119.952 253.642 119.602C253.517 119.25 253.323 118.967 253.062 118.754C252.801 118.541 252.471 118.435 252.073 118.435C251.673 118.435 251.34 118.541 251.076 118.754C250.815 118.967 250.62 119.25 250.492 119.602C250.367 119.952 250.305 120.335 250.305 120.753C250.305 121.173 250.367 121.558 250.492 121.908C250.62 122.257 250.815 122.537 251.076 122.747C251.34 122.957 251.673 123.062 252.073 123.062ZM257.577 120.114V124H256.302V117.455H257.525V118.52H257.606C257.757 118.173 257.993 117.895 258.314 117.685C258.638 117.474 259.045 117.369 259.537 117.369C259.983 117.369 260.373 117.463 260.709 117.651C261.044 117.835 261.304 118.111 261.489 118.477C261.673 118.844 261.766 119.297 261.766 119.837V124H260.491V119.99C260.491 119.516 260.368 119.145 260.121 118.878C259.873 118.608 259.534 118.473 259.102 118.473C258.807 118.473 258.544 118.537 258.314 118.665C258.087 118.793 257.906 118.98 257.773 119.227C257.642 119.472 257.577 119.767 257.577 120.114ZM303.794 121.49V121.409C303.799 120.881 303.852 120.46 303.951 120.148C304.054 119.835 304.199 119.582 304.386 119.389C304.574 119.196 304.799 119.02 305.064 118.861C305.234 118.753 305.387 118.632 305.524 118.499C305.66 118.365 305.768 118.212 305.848 118.038C305.927 117.865 305.967 117.673 305.967 117.463C305.967 117.21 305.907 116.991 305.788 116.807C305.669 116.622 305.51 116.48 305.311 116.381C305.115 116.278 304.896 116.227 304.655 116.227C304.436 116.227 304.227 116.273 304.028 116.364C303.829 116.455 303.664 116.597 303.534 116.79C303.403 116.98 303.328 117.226 303.308 117.527H302.012C302.032 117.016 302.162 116.584 302.4 116.232C302.639 115.876 302.954 115.608 303.346 115.426C303.741 115.244 304.177 115.153 304.655 115.153C305.177 115.153 305.635 115.251 306.027 115.447C306.419 115.641 306.723 115.912 306.939 116.261C307.157 116.608 307.267 117.013 307.267 117.476C307.267 117.794 307.217 118.081 307.118 118.337C307.018 118.589 306.876 118.815 306.691 119.014C306.51 119.213 306.291 119.389 306.035 119.543C305.794 119.693 305.598 119.849 305.447 120.011C305.299 120.173 305.191 120.365 305.123 120.587C305.055 120.808 305.018 121.082 305.012 121.409V121.49H303.794ZM304.437 124.081C304.204 124.081 304.004 123.999 303.836 123.834C303.669 123.666 303.585 123.464 303.585 123.229C303.585 122.996 303.669 122.797 303.836 122.632C304.004 122.464 304.204 122.381 304.437 122.381C304.667 122.381 304.866 122.464 305.034 122.632C305.204 122.797 305.289 122.996 305.289 123.229C305.289 123.385 305.25 123.528 305.17 123.659C305.093 123.787 304.991 123.889 304.863 123.966C304.736 124.043 304.593 124.081 304.437 124.081Z" fill="#B0B0B0"/>
<path d="M266.681 125.815V114.945H269.481V115.955H267.9V124.805H269.481V125.815H266.681ZM272.798 124.128C272.27 124.128 271.798 123.993 271.384 123.723C270.972 123.45 270.648 123.062 270.412 122.56C270.179 122.054 270.063 121.447 270.063 120.74C270.063 120.033 270.18 119.428 270.416 118.925C270.655 118.422 270.982 118.037 271.396 117.77C271.811 117.503 272.281 117.369 272.807 117.369C273.213 117.369 273.54 117.438 273.787 117.574C274.037 117.707 274.23 117.864 274.367 118.043C274.506 118.222 274.614 118.379 274.69 118.516H274.767V115.273H276.041V124H274.797V122.982H274.69C274.614 123.121 274.503 123.28 274.358 123.459C274.216 123.638 274.02 123.794 273.77 123.928C273.52 124.061 273.196 124.128 272.798 124.128ZM273.08 123.041C273.446 123.041 273.756 122.945 274.009 122.751C274.264 122.555 274.457 122.284 274.588 121.938C274.722 121.591 274.788 121.187 274.788 120.727C274.788 120.273 274.723 119.875 274.592 119.534C274.462 119.193 274.27 118.928 274.017 118.737C273.764 118.547 273.452 118.452 273.08 118.452C272.696 118.452 272.377 118.551 272.121 118.75C271.865 118.949 271.672 119.22 271.541 119.564C271.413 119.908 271.35 120.295 271.35 120.727C271.35 121.165 271.415 121.558 271.546 121.908C271.676 122.257 271.869 122.534 272.125 122.739C272.384 122.94 272.702 123.041 273.08 123.041ZM279.525 124.145C279.11 124.145 278.735 124.068 278.4 123.915C278.064 123.759 277.799 123.533 277.603 123.237C277.41 122.942 277.313 122.58 277.313 122.151C277.313 121.781 277.384 121.477 277.526 121.239C277.668 121 277.86 120.811 278.101 120.672C278.343 120.533 278.613 120.428 278.911 120.357C279.209 120.286 279.513 120.232 279.823 120.195C280.215 120.149 280.533 120.112 280.777 120.084C281.022 120.053 281.199 120.003 281.31 119.935C281.421 119.866 281.476 119.756 281.476 119.602V119.572C281.476 119.2 281.371 118.912 281.161 118.707C280.954 118.503 280.644 118.401 280.232 118.401C279.803 118.401 279.465 118.496 279.218 118.686C278.974 118.874 278.804 119.082 278.711 119.312L277.513 119.04C277.655 118.642 277.863 118.321 278.135 118.077C278.411 117.83 278.728 117.651 279.086 117.54C279.444 117.426 279.82 117.369 280.215 117.369C280.476 117.369 280.753 117.401 281.046 117.463C281.341 117.523 281.617 117.634 281.873 117.795C282.131 117.957 282.343 118.189 282.508 118.49C282.672 118.788 282.755 119.176 282.755 119.653V124H281.51V123.105H281.459C281.377 123.27 281.253 123.432 281.089 123.591C280.924 123.75 280.712 123.882 280.454 123.987C280.195 124.092 279.885 124.145 279.525 124.145ZM279.802 123.122C280.154 123.122 280.455 123.053 280.705 122.913C280.958 122.774 281.15 122.592 281.28 122.368C281.414 122.141 281.481 121.898 281.481 121.639V120.795C281.435 120.841 281.347 120.884 281.216 120.923C281.089 120.96 280.942 120.993 280.777 121.021C280.613 121.047 280.452 121.071 280.296 121.094C280.14 121.114 280.009 121.131 279.904 121.145C279.657 121.176 279.431 121.229 279.226 121.303C279.025 121.376 278.863 121.483 278.741 121.622C278.621 121.759 278.562 121.94 278.562 122.168C278.562 122.483 278.678 122.722 278.911 122.884C279.144 123.043 279.441 123.122 279.802 123.122ZM287.267 117.455V118.477H283.692V117.455H287.267ZM284.651 115.886H285.925V122.078C285.925 122.325 285.962 122.511 286.036 122.636C286.11 122.759 286.205 122.842 286.321 122.888C286.441 122.93 286.57 122.952 286.709 122.952C286.811 122.952 286.901 122.945 286.977 122.93C287.054 122.916 287.114 122.905 287.156 122.896L287.387 123.949C287.313 123.977 287.208 124.006 287.071 124.034C286.935 124.065 286.764 124.082 286.56 124.085C286.225 124.091 285.912 124.031 285.622 123.906C285.333 123.781 285.098 123.588 284.919 123.327C284.74 123.065 284.651 122.737 284.651 122.342V115.886ZM291.187 124.132C290.543 124.132 289.987 123.994 289.521 123.719C289.058 123.44 288.7 123.05 288.447 122.547C288.197 122.041 288.072 121.449 288.072 120.77C288.072 120.099 288.197 119.509 288.447 118.997C288.7 118.486 289.052 118.087 289.504 117.8C289.959 117.513 290.49 117.369 291.098 117.369C291.467 117.369 291.825 117.43 292.172 117.553C292.518 117.675 292.829 117.866 293.105 118.128C293.381 118.389 293.598 118.729 293.757 119.146C293.916 119.561 293.996 120.065 293.996 120.659V121.111H288.793V120.156H292.747C292.747 119.821 292.679 119.524 292.543 119.266C292.406 119.004 292.214 118.798 291.967 118.648C291.723 118.497 291.436 118.422 291.106 118.422C290.748 118.422 290.436 118.51 290.169 118.686C289.905 118.859 289.7 119.087 289.555 119.368C289.413 119.646 289.342 119.949 289.342 120.276V121.021C289.342 121.459 289.419 121.831 289.572 122.138C289.729 122.445 289.946 122.679 290.224 122.841C290.503 123 290.828 123.08 291.2 123.08C291.442 123.08 291.662 123.045 291.861 122.977C292.06 122.906 292.231 122.801 292.376 122.662C292.521 122.523 292.632 122.351 292.709 122.146L293.915 122.364C293.818 122.719 293.645 123.03 293.395 123.297C293.148 123.561 292.837 123.767 292.462 123.915C292.089 124.06 291.665 124.132 291.187 124.132ZM297.479 114.945V125.815H294.679V124.805H296.26V115.955H294.679V114.945H297.479Z" fill="#30A5FF"/>
</g>
<defs>
<filter id="filter0_dddddd_51_3890" x="0" y="0" width="484.5" height="237" filterUnits="userSpaceOnUse" color-interpolation-filters="sRGB">
<feFlood flood-opacity="0" result="BackgroundImageFix"/>
<feColorMatrix in="SourceAlpha" type="matrix" values="0 0 0 0 0 0 0 0 0 0 0 0 0 0 0 0 0 0 127 0" result="hardAlpha"/>
<feMorphology radius="12" operator="erode" in="SourceAlpha" result="effect1_dropShadow_51_3890"/>
<feOffset dy="24"/>
<feGaussianBlur stdDeviation="12"/>
<feComposite in2="hardAlpha" operator="out"/>
<feColorMatrix type="matrix" values="0 0 0 0 0.054902 0 0 0 0 0.247059 0 0 0 0 0.494118 0 0 0 0.04 0"/>
<feBlend mode="normal" in2="BackgroundImageFix" result="effect1_dropShadow_51_3890"/>
<feColorMatrix in="SourceAlpha" type="matrix" values="0 0 0 0 0 0 0 0 0 0 0 0 0 0 0 0 0 0 127 0" result="hardAlpha"/>
<feMorphology radius="6" operator="erode" in="SourceAlpha" result="effect2_dropShadow_51_3890"/>
<feOffset dy="12"/>
<feGaussianBlur stdDeviation="6"/>
<feComposite in2="hardAlpha" operator="out"/>
<feColorMatrix type="matrix" values="0 0 0 0 0.054902 0 0 0 0 0.247059 0 0 0 0 0.494118 0 0 0 0.04 0"/>
<feBlend mode="normal" in2="effect1_dropShadow_51_3890" result="effect2_dropShadow_51_3890"/>
<feColorMatrix in="SourceAlpha" type="matrix" values="0 0 0 0 0 0 0 0 0 0 0 0 0 0 0 0 0 0 127 0" result="hardAlpha"/>
<feMorphology radius="3" operator="erode" in="SourceAlpha" result="effect3_dropShadow_51_3890"/>
<feOffset dy="6"/>
<feGaussianBlur stdDeviation="3"/>
<feComposite in2="hardAlpha" operator="out"/>
<feColorMatrix type="matrix" values="0 0 0 0 0.164706 0 0 0 0 0.2 0 0 0 0 0.27451 0 0 0 0.04 0"/>
<feBlend mode="normal" in2="effect2_dropShadow_51_3890" result="effect3_dropShadow_51_3890"/>
<feColorMatrix in="SourceAlpha" type="matrix" values="0 0 0 0 0 0 0 0 0 0 0 0 0 0 0 0 0 0 127 0" result="hardAlpha"/>
<feMorphology radius="1.5" operator="erode" in="SourceAlpha" result="effect4_dropShadow_51_3890"/>
<feOffset dy="3"/>
<feGaussianBlur stdDeviation="1.5"/>
<feComposite in2="hardAlpha" operator="out"/>
<feColorMatrix type="matrix" values="0 0 0 0 0.164706 0 0 0 0 0.2 0 0 0 0 0.27451 0 0 0 0.04 0"/>
<feBlend mode="normal" in2="effect3_dropShadow_51_3890" result="effect4_dropShadow_51_3890"/>
<feColorMatrix in="SourceAlpha" type="matrix" values="0 0 0 0 0 0 0 0 0 0 0 0 0 0 0 0 0 0 127 0" result="hardAlpha"/>
<feMorphology radius="0.5" operator="erode" in="SourceAlpha" result="effect5_dropShadow_51_3890"/>
<feOffset dy="1"/>
<feGaussianBlur stdDeviation="0.5"/>
<feComposite in2="hardAlpha" operator="out"/>
<feColorMatrix type="matrix" values="0 0 0 0 0.164706 0 0 0 0 0.2 0 0 0 0 0.270588 0 0 0 0.04 0"/>
<feBlend mode="normal" in2="effect4_dropShadow_51_3890" result="effect5_dropShadow_51_3890"/>
<feColorMatrix in="SourceAlpha" type="matrix" values="0 0 0 0 0 0 0 0 0 0 0 0 0 0 0 0 0 0 127 0" result="hardAlpha"/>
<feMorphology radius="1" operator="dilate" in="SourceAlpha" result="effect6_dropShadow_51_3890"/>
<feOffset/>
<feComposite in2="hardAlpha" operator="out"/>
<feColorMatrix type="matrix" values="0 0 0 0 0.054902 0 0 0 0 0.247059 0 0 0 0 0.494118 0 0 0 0.04 0"/>
<feBlend mode="normal" in2="effect5_dropShadow_51_3890" result="effect6_dropShadow_51_3890"/>
<feBlend mode="normal" in="SourceGraphic" in2="effect6_dropShadow_51_3890" result="shape"/>
</filter>
</defs>
</svg>
