<svg width="485" height="237" viewBox="0 0 485 237" fill="none" xmlns="http://www.w3.org/2000/svg">
<g filter="url(#filter0_dddddd_51_3872)">
<path d="M28.5 1.5H457C465.56 1.5 472.5 8.43959 472.5 17V185C472.5 193.56 465.56 200.5 457 200.5H28.5C19.9396 200.5 13 193.56 13 185V17C13 8.43958 19.9396 1.5 28.5 1.5Z" stroke="white" stroke-opacity="0.1" shape-rendering="crispEdges"/>
<rect x="42" y="34" width="401" height="134" rx="8" fill="#22242E"/>
<path d="M56.6676 54L54.2472 45.2727H55.6321L57.3324 52.0312H57.4134L59.1818 45.2727H60.554L62.3224 52.0355H62.4034L64.0994 45.2727H65.4886L63.0639 54H61.7386L59.902 47.4631H59.8338L57.9972 54H56.6676ZM67.6212 50.1136V54H66.347V45.2727H67.6041V48.5199H67.6851C67.8385 48.1676 68.0729 47.8878 68.3882 47.6804C68.7035 47.473 69.1155 47.3693 69.624 47.3693C70.0729 47.3693 70.4649 47.4616 70.8001 47.6463C71.1382 47.831 71.3996 48.1065 71.5842 48.473C71.7717 48.8366 71.8655 49.2912 71.8655 49.8366V54H70.5913V49.9901C70.5913 49.5099 70.4677 49.1378 70.2206 48.8736C69.9734 48.6065 69.6297 48.473 69.1893 48.473C68.8882 48.473 68.6183 48.5369 68.3797 48.6648C68.1439 48.7926 67.9578 48.9801 67.8214 49.2273C67.6879 49.4716 67.6212 49.767 67.6212 50.1136ZM75.2306 54.1449C74.8158 54.1449 74.4408 54.0682 74.1056 53.9148C73.7704 53.7585 73.5047 53.5327 73.3087 53.2372C73.1155 52.9418 73.0189 52.5795 73.0189 52.1506C73.0189 51.7812 73.09 51.4773 73.232 51.2386C73.374 51 73.5658 50.8111 73.8073 50.6719C74.0488 50.5327 74.3187 50.4276 74.6169 50.3565C74.9152 50.2855 75.2192 50.2315 75.5289 50.1946C75.9209 50.1491 76.2391 50.1122 76.4834 50.0838C76.7277 50.0526 76.9053 50.0028 77.0161 49.9347C77.1269 49.8665 77.1823 49.7557 77.1823 49.6023V49.5724C77.1823 49.2003 77.0772 48.9119 76.8669 48.7074C76.6596 48.5028 76.3499 48.4006 75.938 48.4006C75.509 48.4006 75.1709 48.4957 74.9238 48.6861C74.6794 48.8736 74.5104 49.0824 74.4167 49.3125L73.2192 49.0398C73.3613 48.642 73.5687 48.321 73.8414 48.0767C74.1169 47.8295 74.4337 47.6506 74.7917 47.5398C75.1496 47.4261 75.526 47.3693 75.9209 47.3693C76.1823 47.3693 76.4593 47.4006 76.7519 47.4631C77.0473 47.5227 77.3229 47.6335 77.5786 47.7955C77.8371 47.9574 78.0488 48.1889 78.2135 48.4901C78.3783 48.7884 78.4607 49.1761 78.4607 49.6534V54H77.2164V53.1051H77.1652C77.0829 53.2699 76.9593 53.4318 76.7945 53.5909C76.6297 53.75 76.4181 53.8821 76.1596 53.9872C75.901 54.0923 75.5914 54.1449 75.2306 54.1449ZM75.5076 53.1222C75.8598 53.1222 76.161 53.0526 76.411 52.9134C76.6638 52.7741 76.8556 52.5923 76.9863 52.3679C77.1198 52.1406 77.1865 51.8977 77.1865 51.6392V50.7955C77.1411 50.8409 77.053 50.8835 76.9223 50.9233C76.7945 50.9602 76.6482 50.9929 76.4834 51.0213C76.3187 51.0469 76.1581 51.071 76.0019 51.0938C75.8456 51.1136 75.715 51.1307 75.6098 51.1449C75.3627 51.1761 75.1368 51.2287 74.9323 51.3026C74.7306 51.3764 74.5687 51.483 74.4465 51.6222C74.3272 51.7585 74.2675 51.9403 74.2675 52.1676C74.2675 52.483 74.384 52.7216 74.6169 52.8835C74.8499 53.0426 75.1468 53.1222 75.5076 53.1222ZM82.9732 47.4545V48.4773H79.3979V47.4545H82.9732ZM80.3567 45.8864H81.6309V52.0781C81.6309 52.3253 81.6678 52.5114 81.7416 52.6364C81.8155 52.7585 81.9107 52.8423 82.0272 52.8878C82.1465 52.9304 82.2757 52.9517 82.4149 52.9517C82.5172 52.9517 82.6067 52.9446 82.6834 52.9304C82.7601 52.9162 82.8198 52.9048 82.8624 52.8963L83.0925 53.9489C83.0186 53.9773 82.9135 54.0057 82.7772 54.0341C82.6408 54.0653 82.4703 54.0824 82.2658 54.0852C81.9306 54.0909 81.6181 54.0312 81.3283 53.9062C81.0385 53.7812 80.8041 53.5881 80.6252 53.3267C80.4462 53.0653 80.3567 52.7372 80.3567 52.3423V45.8864ZM85.5659 45.2727V46.0909C85.5659 46.3324 85.5205 46.5866 85.4296 46.8537C85.3415 47.1179 85.2165 47.3722 85.0546 47.6165C84.8926 47.8608 84.7023 48.071 84.4835 48.2472L83.8529 47.7955C84.0205 47.5511 84.1654 47.2912 84.2875 47.0156C84.4125 46.7401 84.475 46.4361 84.475 46.1037V45.2727H85.5659ZM90.6356 49.0526L89.4808 49.2571C89.4325 49.1094 89.3558 48.9687 89.2506 48.8352C89.1484 48.7017 89.0092 48.5923 88.833 48.5071C88.6569 48.4219 88.4367 48.3793 88.1725 48.3793C87.8117 48.3793 87.5106 48.4602 87.2691 48.6222C87.0276 48.7812 86.9069 48.9872 86.9069 49.2401C86.9069 49.4588 86.9879 49.6349 87.1498 49.7685C87.3117 49.902 87.5731 50.0114 87.9339 50.0966L88.9737 50.3352C89.5759 50.4744 90.0248 50.6889 90.3202 50.9787C90.6157 51.2685 90.7634 51.6449 90.7634 52.108C90.7634 52.5 90.6498 52.8494 90.4225 53.1562C90.1981 53.4602 89.8842 53.6989 89.4808 53.8722C89.0802 54.0455 88.6157 54.1321 88.0873 54.1321C87.3543 54.1321 86.7563 53.9759 86.2933 53.6634C85.8302 53.348 85.5461 52.9006 85.441 52.321L86.6725 52.1335C86.7492 52.4545 86.9069 52.6974 87.1455 52.8622C87.3842 53.0241 87.6952 53.1051 88.0788 53.1051C88.4964 53.1051 88.8302 53.0185 89.0802 52.8452C89.3302 52.669 89.4552 52.4545 89.4552 52.2017C89.4552 51.9972 89.3785 51.8253 89.2251 51.6861C89.0745 51.5469 88.843 51.4418 88.5305 51.3707L87.4225 51.1278C86.8117 50.9886 86.36 50.767 86.0674 50.4631C85.7776 50.1591 85.6327 49.7741 85.6327 49.3082C85.6327 48.9219 85.7407 48.5838 85.9566 48.294C86.1725 48.0043 86.4708 47.7784 86.8515 47.6165C87.2322 47.4517 87.6683 47.3693 88.1597 47.3693C88.8671 47.3693 89.4239 47.5227 89.8302 47.8295C90.2364 48.1335 90.5049 48.5412 90.6356 49.0526ZM94.8601 54V47.4545H96.0831V48.5199H96.1641C96.3005 48.1591 96.5235 47.8778 96.8331 47.6761C97.1428 47.4716 97.5135 47.3693 97.9454 47.3693C98.3829 47.3693 98.7493 47.4716 99.0448 47.6761C99.3431 47.8807 99.5633 48.1619 99.7053 48.5199H99.7735C99.9297 48.1705 100.178 47.892 100.519 47.6847C100.86 47.4744 101.266 47.3693 101.738 47.3693C102.332 47.3693 102.816 47.5554 103.191 47.9276C103.569 48.2997 103.758 48.8608 103.758 49.6108V54H102.484V49.7301C102.484 49.2869 102.363 48.9659 102.121 48.767C101.88 48.5682 101.592 48.4688 101.256 48.4688C100.842 48.4688 100.519 48.5966 100.289 48.8523C100.059 49.1051 99.9439 49.4304 99.9439 49.8281V54H98.674V49.6491C98.674 49.294 98.5633 49.0085 98.3417 48.7926C98.1201 48.5767 97.8317 48.4688 97.4766 48.4688C97.2351 48.4688 97.0121 48.5327 96.8076 48.6605C96.6059 48.7855 96.4425 48.9602 96.3175 49.1847C96.1954 49.4091 96.1343 49.669 96.1343 49.9645V54H94.8601ZM105.797 56.4545C105.606 56.4545 105.433 56.4389 105.277 56.4077C105.12 56.3793 105.004 56.348 104.927 56.3139L105.234 55.2699C105.467 55.3324 105.674 55.3594 105.856 55.3509C106.038 55.3423 106.199 55.2741 106.338 55.1463C106.48 55.0185 106.605 54.8097 106.713 54.5199L106.87 54.0852L104.476 47.4545H105.839L107.497 52.5341H107.565L109.223 47.4545H110.591L107.893 54.8736C107.768 55.2145 107.609 55.5028 107.416 55.7386C107.223 55.9773 106.993 56.1563 106.726 56.2756C106.459 56.3949 106.149 56.4545 105.797 56.4545ZM117.241 54.1321C116.607 54.1321 116.062 53.9886 115.605 53.7017C115.15 53.4119 114.801 53.0128 114.556 52.5043C114.312 51.9957 114.19 51.4134 114.19 50.7571C114.19 50.0923 114.315 49.5057 114.565 48.9972C114.815 48.4858 115.167 48.0866 115.622 47.7997C116.076 47.5128 116.612 47.3693 117.228 47.3693C117.725 47.3693 118.169 47.4616 118.558 47.6463C118.947 47.8281 119.261 48.0838 119.5 48.4134C119.741 48.7429 119.884 49.1278 119.93 49.5682H118.69C118.622 49.2614 118.465 48.9972 118.221 48.7756C117.98 48.554 117.656 48.4432 117.25 48.4432C116.894 48.4432 116.583 48.5369 116.316 48.7244C116.052 48.9091 115.846 49.1733 115.698 49.517C115.551 49.858 115.477 50.2614 115.477 50.7273C115.477 51.2045 115.549 51.6165 115.694 51.9631C115.839 52.3097 116.044 52.5781 116.308 52.7685C116.575 52.9588 116.889 53.054 117.25 53.054C117.491 53.054 117.71 53.0099 117.906 52.9219C118.105 52.831 118.271 52.7017 118.404 52.5341C118.541 52.3665 118.636 52.1648 118.69 51.929H119.93C119.884 52.3523 119.747 52.7301 119.517 53.0625C119.286 53.3949 118.978 53.6562 118.592 53.8466C118.208 54.0369 117.758 54.1321 117.241 54.1321ZM122.957 54.1449C122.543 54.1449 122.168 54.0682 121.832 53.9148C121.497 53.7585 121.231 53.5327 121.035 53.2372C120.842 52.9418 120.746 52.5795 120.746 52.1506C120.746 51.7812 120.817 51.4773 120.959 51.2386C121.101 51 121.293 50.8111 121.534 50.6719C121.775 50.5327 122.045 50.4276 122.344 50.3565C122.642 50.2855 122.946 50.2315 123.256 50.1946C123.648 50.1491 123.966 50.1122 124.21 50.0838C124.454 50.0526 124.632 50.0028 124.743 49.9347C124.854 49.8665 124.909 49.7557 124.909 49.6023V49.5724C124.909 49.2003 124.804 48.9119 124.594 48.7074C124.386 48.5028 124.077 48.4006 123.665 48.4006C123.236 48.4006 122.898 48.4957 122.65 48.6861C122.406 48.8736 122.237 49.0824 122.143 49.3125L120.946 49.0398C121.088 48.642 121.295 48.321 121.568 48.0767C121.844 47.8295 122.16 47.6506 122.518 47.5398C122.876 47.4261 123.253 47.3693 123.648 47.3693C123.909 47.3693 124.186 47.4006 124.479 47.4631C124.774 47.5227 125.05 47.6335 125.305 47.7955C125.564 47.9574 125.775 48.1889 125.94 48.4901C126.105 48.7884 126.187 49.1761 126.187 49.6534V54H124.943V53.1051H124.892C124.81 53.2699 124.686 53.4318 124.521 53.5909C124.356 53.75 124.145 53.8821 123.886 53.9872C123.628 54.0923 123.318 54.1449 122.957 54.1449ZM123.234 53.1222C123.587 53.1222 123.888 53.0526 124.138 52.9134C124.391 52.7741 124.582 52.5923 124.713 52.3679C124.847 52.1406 124.913 51.8977 124.913 51.6392V50.7955C124.868 50.8409 124.78 50.8835 124.649 50.9233C124.521 50.9602 124.375 50.9929 124.21 51.0213C124.045 51.0469 123.885 51.071 123.729 51.0938C123.572 51.1136 123.442 51.1307 123.337 51.1449C123.089 51.1761 122.864 51.2287 122.659 51.3026C122.457 51.3764 122.295 51.483 122.173 51.6222C122.054 51.7585 121.994 51.9403 121.994 52.1676C121.994 52.483 122.111 52.7216 122.344 52.8835C122.577 53.0426 122.873 53.1222 123.234 53.1222ZM130.7 47.4545V48.4773H127.125V47.4545H130.7ZM128.083 45.8864H129.358V52.0781C129.358 52.3253 129.395 52.5114 129.468 52.6364C129.542 52.7585 129.637 52.8423 129.754 52.8878C129.873 52.9304 130.002 52.9517 130.142 52.9517C130.244 52.9517 130.333 52.9446 130.41 52.9304C130.487 52.9162 130.546 52.9048 130.589 52.8963L130.819 53.9489C130.745 53.9773 130.64 54.0057 130.504 54.0341C130.368 54.0653 130.197 54.0824 129.993 54.0852C129.657 54.0909 129.345 54.0312 129.055 53.9062C128.765 53.7812 128.531 53.5881 128.352 53.3267C128.173 53.0653 128.083 52.7372 128.083 52.3423V45.8864ZM133.293 45.2727V46.0909C133.293 46.3324 133.247 46.5866 133.156 46.8537C133.068 47.1179 132.943 47.3722 132.781 47.6165C132.619 47.8608 132.429 48.071 132.21 48.2472L131.58 47.7955C131.747 47.5511 131.892 47.2912 132.014 47.0156C132.139 46.7401 132.202 46.4361 132.202 46.1037V45.2727H133.293ZM138.362 49.0526L137.207 49.2571C137.159 49.1094 137.082 48.9687 136.977 48.8352C136.875 48.7017 136.736 48.5923 136.56 48.5071C136.384 48.4219 136.163 48.3793 135.899 48.3793C135.538 48.3793 135.237 48.4602 134.996 48.6222C134.754 48.7812 134.634 48.9872 134.634 49.2401C134.634 49.4588 134.715 49.6349 134.877 49.7685C135.038 49.902 135.3 50.0114 135.661 50.0966L136.7 50.3352C137.303 50.4744 137.752 50.6889 138.047 50.9787C138.342 51.2685 138.49 51.6449 138.49 52.108C138.49 52.5 138.377 52.8494 138.149 53.1562C137.925 53.4602 137.611 53.6989 137.207 53.8722C136.807 54.0455 136.342 54.1321 135.814 54.1321C135.081 54.1321 134.483 53.9759 134.02 53.6634C133.557 53.348 133.273 52.9006 133.168 52.321L134.399 52.1335C134.476 52.4545 134.634 52.6974 134.872 52.8622C135.111 53.0241 135.422 53.1051 135.805 53.1051C136.223 53.1051 136.557 53.0185 136.807 52.8452C137.057 52.669 137.182 52.4545 137.182 52.2017C137.182 51.9972 137.105 51.8253 136.952 51.6861C136.801 51.5469 136.57 51.4418 136.257 51.3707L135.149 51.1278C134.538 50.9886 134.087 50.767 133.794 50.4631C133.504 50.1591 133.359 49.7741 133.359 49.3082C133.359 48.9219 133.467 48.5838 133.683 48.294C133.899 48.0043 134.198 47.7784 134.578 47.6165C134.959 47.4517 135.395 47.3693 135.886 47.3693C136.594 47.3693 137.151 47.5227 137.557 47.8295C137.963 48.1335 138.232 48.5412 138.362 49.0526ZM143.861 50.1136V54H142.587V47.4545H143.81V48.5199H143.891C144.041 48.1733 144.277 47.8949 144.598 47.6847C144.922 47.4744 145.33 47.3693 145.821 47.3693C146.267 47.3693 146.658 47.4631 146.993 47.6506C147.328 47.8352 147.588 48.1108 147.773 48.4773C147.958 48.8437 148.05 49.2969 148.05 49.8366V54H146.776V49.9901C146.776 49.5156 146.652 49.1449 146.405 48.8778C146.158 48.608 145.818 48.473 145.387 48.473C145.091 48.473 144.828 48.5369 144.598 48.6648C144.371 48.7926 144.191 48.9801 144.057 49.2273C143.926 49.4716 143.861 49.767 143.861 50.1136ZM151.424 54.1449C151.009 54.1449 150.634 54.0682 150.299 53.9148C149.963 53.7585 149.698 53.5327 149.502 53.2372C149.308 52.9418 149.212 52.5795 149.212 52.1506C149.212 51.7812 149.283 51.4773 149.425 51.2386C149.567 51 149.759 50.8111 150 50.6719C150.242 50.5327 150.512 50.4276 150.81 50.3565C151.108 50.2855 151.412 50.2315 151.722 50.1946C152.114 50.1491 152.432 50.1122 152.676 50.0838C152.921 50.0526 153.098 50.0028 153.209 49.9347C153.32 49.8665 153.375 49.7557 153.375 49.6023V49.5724C153.375 49.2003 153.27 48.9119 153.06 48.7074C152.853 48.5028 152.543 48.4006 152.131 48.4006C151.702 48.4006 151.364 48.4957 151.117 48.6861C150.872 48.8736 150.703 49.0824 150.61 49.3125L149.412 49.0398C149.554 48.642 149.762 48.321 150.034 48.0767C150.31 47.8295 150.627 47.6506 150.985 47.5398C151.343 47.4261 151.719 47.3693 152.114 47.3693C152.375 47.3693 152.652 47.4006 152.945 47.4631C153.24 47.5227 153.516 47.6335 153.772 47.7955C154.03 47.9574 154.242 48.1889 154.407 48.4901C154.571 48.7884 154.654 49.1761 154.654 49.6534V54H153.409V53.1051H153.358C153.276 53.2699 153.152 53.4318 152.987 53.5909C152.823 53.75 152.611 53.8821 152.353 53.9872C152.094 54.0923 151.784 54.1449 151.424 54.1449ZM151.701 53.1222C152.053 53.1222 152.354 53.0526 152.604 52.9134C152.857 52.7741 153.049 52.5923 153.179 52.3679C153.313 52.1406 153.38 51.8977 153.38 51.6392V50.7955C153.334 50.8409 153.246 50.8835 153.115 50.9233C152.987 50.9602 152.841 50.9929 152.676 51.0213C152.512 51.0469 152.351 51.071 152.195 51.0938C152.039 51.1136 151.908 51.1307 151.803 51.1449C151.556 51.1761 151.33 51.2287 151.125 51.3026C150.924 51.3764 150.762 51.483 150.639 51.6222C150.52 51.7585 150.46 51.9403 150.46 52.1676C150.46 52.483 150.577 52.7216 150.81 52.8835C151.043 53.0426 151.34 53.1222 151.701 53.1222ZM156.111 54V47.4545H157.334V48.5199H157.415C157.551 48.1591 157.774 47.8778 158.084 47.6761C158.393 47.4716 158.764 47.3693 159.196 47.3693C159.633 47.3693 160 47.4716 160.295 47.6761C160.594 47.8807 160.814 48.1619 160.956 48.5199H161.024C161.18 48.1705 161.429 47.892 161.77 47.6847C162.111 47.4744 162.517 47.3693 162.989 47.3693C163.582 47.3693 164.067 47.5554 164.442 47.9276C164.82 48.2997 165.008 48.8608 165.008 49.6108V54H163.734V49.7301C163.734 49.2869 163.614 48.9659 163.372 48.767C163.131 48.5682 162.842 48.4688 162.507 48.4688C162.092 48.4688 161.77 48.5966 161.54 48.8523C161.31 49.1051 161.195 49.4304 161.195 49.8281V54H159.925V49.6491C159.925 49.294 159.814 49.0085 159.592 48.7926C159.371 48.5767 159.082 48.4688 158.727 48.4688C158.486 48.4688 158.263 48.5327 158.058 48.6605C157.856 48.7855 157.693 48.9602 157.568 49.1847C157.446 49.4091 157.385 49.669 157.385 49.9645V54H156.111ZM169.297 54.1321C168.652 54.1321 168.097 53.9943 167.631 53.7188C167.168 53.4403 166.81 53.0497 166.557 52.5469C166.307 52.0412 166.182 51.4489 166.182 50.7699C166.182 50.0994 166.307 49.5085 166.557 48.9972C166.81 48.4858 167.162 48.0866 167.614 47.7997C168.069 47.5128 168.6 47.3693 169.208 47.3693C169.577 47.3693 169.935 47.4304 170.282 47.5526C170.628 47.6747 170.939 47.8665 171.215 48.1278C171.49 48.3892 171.708 48.7287 171.867 49.1463C172.026 49.5611 172.105 50.0653 172.105 50.6591V51.1108H166.902V50.1562H170.857C170.857 49.821 170.789 49.5241 170.652 49.2656C170.516 49.0043 170.324 48.7983 170.077 48.6477C169.833 48.4972 169.546 48.4219 169.216 48.4219C168.858 48.4219 168.546 48.5099 168.279 48.6861C168.015 48.8594 167.81 49.0866 167.665 49.3679C167.523 49.6463 167.452 49.9489 167.452 50.2756V51.0213C167.452 51.4588 167.529 51.831 167.682 52.1378C167.838 52.4446 168.056 52.679 168.334 52.8409C168.613 53 168.938 53.0795 169.31 53.0795C169.552 53.0795 169.772 53.0455 169.971 52.9773C170.169 52.9062 170.341 52.8011 170.486 52.6619C170.631 52.5227 170.742 52.3509 170.819 52.1463L172.025 52.3636C171.928 52.7187 171.755 53.0298 171.505 53.2969C171.257 53.5611 170.946 53.767 170.571 53.9148C170.199 54.0597 169.775 54.1321 169.297 54.1321ZM174.673 51.4901V51.4091C174.678 50.8807 174.731 50.4602 174.83 50.1477C174.933 49.8352 175.077 49.5824 175.265 49.3892C175.452 49.196 175.678 49.0199 175.943 48.8608C176.113 48.7528 176.266 48.6321 176.403 48.4986C176.539 48.3651 176.647 48.2116 176.727 48.0384C176.806 47.8651 176.846 47.6733 176.846 47.4631C176.846 47.2102 176.786 46.9915 176.667 46.8068C176.548 46.6222 176.389 46.4801 176.19 46.3807C175.994 46.2784 175.775 46.2273 175.533 46.2273C175.315 46.2273 175.106 46.2727 174.907 46.3636C174.708 46.4545 174.543 46.5966 174.413 46.7898C174.282 46.9801 174.207 47.2259 174.187 47.527H172.891C172.911 47.0156 173.041 46.5838 173.279 46.2315C173.518 45.8764 173.833 45.608 174.225 45.4261C174.62 45.2443 175.056 45.1534 175.533 45.1534C176.056 45.1534 176.514 45.2514 176.906 45.4474C177.298 45.6406 177.602 45.9119 177.818 46.2614C178.036 46.608 178.146 47.0128 178.146 47.4759C178.146 47.794 178.096 48.081 177.997 48.3366C177.897 48.5895 177.755 48.8153 177.57 49.0142C177.389 49.2131 177.17 49.3892 176.914 49.5426C176.673 49.6932 176.477 49.8494 176.326 50.0114C176.178 50.1733 176.07 50.3651 176.002 50.5866C175.934 50.8082 175.897 51.0824 175.891 51.4091V51.4901H174.673ZM175.316 54.081C175.083 54.081 174.883 53.9986 174.715 53.8338C174.548 53.6662 174.464 53.4645 174.464 53.2287C174.464 52.9957 174.548 52.7969 174.715 52.6321C174.883 52.4645 175.083 52.3807 175.316 52.3807C175.546 52.3807 175.745 52.4645 175.913 52.6321C176.083 52.7969 176.168 52.9957 176.168 53.2287C176.168 53.3849 176.129 53.5284 176.049 53.6591C175.972 53.7869 175.87 53.8892 175.742 53.9659C175.614 54.0426 175.472 54.081 175.316 54.081Z" fill="white"/>
<path d="M62.9588 86V77.2727H66.0696C66.7486 77.2727 67.3111 77.3963 67.7571 77.6435C68.2031 77.8906 68.5369 78.2287 68.7585 78.6577C68.9801 79.0838 69.0909 79.5639 69.0909 80.098C69.0909 80.6349 68.9787 81.1179 68.7543 81.5469C68.5327 81.973 68.1974 82.3111 67.7486 82.5611C67.3026 82.8082 66.7415 82.9318 66.0653 82.9318H63.9261V81.8153H65.946C66.375 81.8153 66.723 81.7415 66.9901 81.5938C67.2571 81.4432 67.4531 81.2386 67.5781 80.9801C67.7031 80.7216 67.7656 80.4276 67.7656 80.098C67.7656 79.7685 67.7031 79.4759 67.5781 79.2202C67.4531 78.9645 67.2557 78.7642 66.9858 78.6193C66.7188 78.4744 66.3665 78.402 65.929 78.402H64.2756V86H62.9588ZM74.4386 83.2855V79.4545H75.717V86H74.4642V84.8665H74.396C74.2454 85.2159 74.004 85.5071 73.6716 85.7401C73.342 85.9702 72.9315 86.0852 72.44 86.0852C72.0196 86.0852 71.6474 85.9929 71.3236 85.8082C71.0025 85.6207 70.7497 85.3438 70.565 84.9773C70.3832 84.6108 70.2923 84.1577 70.2923 83.6179V79.4545H71.5665V83.4645C71.5665 83.9105 71.69 84.2656 71.9372 84.5298C72.1844 84.794 72.5054 84.9261 72.9003 84.9261C73.1389 84.9261 73.3761 84.8665 73.6119 84.7472C73.8506 84.6278 74.048 84.4474 74.2042 84.206C74.3633 83.9645 74.4415 83.6577 74.4386 83.2855ZM77.189 86V79.4545H78.412V80.5199H78.493C78.6294 80.1591 78.8524 79.8778 79.162 79.6761C79.4717 79.4716 79.8424 79.3693 80.2743 79.3693C80.7118 79.3693 81.0782 79.4716 81.3737 79.6761C81.672 79.8807 81.8922 80.1619 82.0342 80.5199H82.1024C82.2586 80.1705 82.5072 79.892 82.8481 79.6847C83.189 79.4744 83.5953 79.3693 84.0669 79.3693C84.6606 79.3693 85.145 79.5554 85.52 79.9276C85.8978 80.2997 86.0868 80.8608 86.0868 81.6108V86H84.8126V81.7301C84.8126 81.2869 84.6919 80.9659 84.4504 80.767C84.2089 80.5682 83.9206 80.4688 83.5853 80.4688C83.1706 80.4688 82.8481 80.5966 82.618 80.8523C82.3879 81.1051 82.2728 81.4304 82.2728 81.8281V86H81.003V81.6491C81.003 81.294 80.8922 81.0085 80.6706 80.7926C80.449 80.5767 80.1606 80.4688 79.8055 80.4688C79.564 80.4688 79.341 80.5327 79.1365 80.6605C78.9348 80.7855 78.7714 80.9602 78.6464 81.1847C78.5243 81.4091 78.4632 81.669 78.4632 81.9645V86H77.189ZM87.5545 88.4545V79.4545H88.7988V80.5156H88.9054C88.9792 80.3793 89.0858 80.2216 89.225 80.0426C89.3642 79.8636 89.5573 79.7074 89.8045 79.5739C90.0517 79.4375 90.3784 79.3693 90.7846 79.3693C91.313 79.3693 91.7846 79.5028 92.1994 79.7699C92.6142 80.0369 92.9394 80.4219 93.1752 80.9247C93.4139 81.4276 93.5332 82.0327 93.5332 82.7401C93.5332 83.4474 93.4153 84.054 93.1795 84.5597C92.9437 85.0625 92.6198 85.4503 92.2079 85.723C91.796 85.9929 91.3258 86.1278 90.7974 86.1278C90.3997 86.1278 90.0744 86.0611 89.8215 85.9276C89.5715 85.794 89.3755 85.6378 89.2335 85.4588C89.0914 85.2798 88.9821 85.1207 88.9054 84.9815H88.8287V88.4545H87.5545ZM88.8031 82.7273C88.8031 83.1875 88.8698 83.5909 89.0034 83.9375C89.1369 84.2841 89.3301 84.5554 89.5829 84.7514C89.8358 84.9446 90.1454 85.0412 90.5119 85.0412C90.8926 85.0412 91.2108 84.9403 91.4664 84.7386C91.7221 84.5341 91.9153 84.2571 92.046 83.9077C92.1795 83.5582 92.2463 83.1648 92.2463 82.7273C92.2463 82.2955 92.1809 81.9077 92.0502 81.5639C91.9224 81.2202 91.7292 80.9489 91.4707 80.75C91.215 80.5511 90.8954 80.4517 90.5119 80.4517C90.1426 80.4517 89.8301 80.5469 89.5744 80.7372C89.3215 80.9276 89.1298 81.1932 88.9991 81.5341C88.8684 81.875 88.8031 82.2727 88.8031 82.7273ZM95.8926 83.7798L95.8841 82.2244H96.1057L98.7137 79.4545H100.239L97.2648 82.608H97.0645L95.8926 83.7798ZM94.7208 86V77.2727H95.9949V86H94.7208ZM98.8543 86L96.5105 82.8892L97.3884 81.9986L100.418 86H98.8543ZM101.16 86V79.4545H102.435V86H101.16ZM101.804 78.4446C101.582 78.4446 101.392 78.3707 101.233 78.223C101.077 78.0724 100.999 77.8935 100.999 77.6861C100.999 77.4759 101.077 77.2969 101.233 77.1491C101.392 76.9986 101.582 76.9233 101.804 76.9233C102.025 76.9233 102.214 76.9986 102.371 77.1491C102.53 77.2969 102.609 77.4759 102.609 77.6861C102.609 77.8935 102.53 78.0724 102.371 78.223C102.214 78.3707 102.025 78.4446 101.804 78.4446ZM105.183 82.1136V86H103.909V79.4545H105.132V80.5199H105.213C105.363 80.1733 105.599 79.8949 105.92 79.6847C106.244 79.4744 106.652 79.3693 107.143 79.3693C107.589 79.3693 107.98 79.4631 108.315 79.6506C108.65 79.8352 108.91 80.1108 109.095 80.4773C109.279 80.8437 109.372 81.2969 109.372 81.8366V86H108.098V81.9901C108.098 81.5156 107.974 81.1449 107.727 80.8778C107.48 80.608 107.14 80.473 106.708 80.473C106.413 80.473 106.15 80.5369 105.92 80.6648C105.693 80.7926 105.512 80.9801 105.379 81.2273C105.248 81.4716 105.183 81.767 105.183 82.1136Z" fill="white"/>
<rect x="52" y="100" width="381" height="28" rx="6" fill="url(#paint0_linear_51_3872)"/>
<path d="M62.9588 118V109.273H66.1548C66.7741 109.273 67.2869 109.375 67.6932 109.58C68.0994 109.781 68.4034 110.055 68.6051 110.402C68.8068 110.746 68.9077 111.134 68.9077 111.565C68.9077 111.929 68.8409 112.236 68.7074 112.486C68.5739 112.733 68.3949 112.932 68.1705 113.082C67.9489 113.23 67.7045 113.338 67.4375 113.406V113.491C67.7273 113.506 68.0099 113.599 68.2855 113.773C68.5639 113.943 68.794 114.186 68.9759 114.501C69.1577 114.817 69.2486 115.2 69.2486 115.652C69.2486 116.098 69.1435 116.499 68.9332 116.854C68.7259 117.206 68.4048 117.486 67.9702 117.693C67.5355 117.898 66.9801 118 66.304 118H62.9588ZM64.2756 116.871H66.1761C66.8068 116.871 67.2585 116.749 67.5312 116.504C67.804 116.26 67.9403 115.955 67.9403 115.588C67.9403 115.312 67.8707 115.06 67.7315 114.83C67.5923 114.599 67.3935 114.416 67.1349 114.28C66.8793 114.143 66.5753 114.075 66.223 114.075H64.2756V116.871ZM64.2756 113.048H66.0398C66.3352 113.048 66.6009 112.991 66.8366 112.878C67.0753 112.764 67.2642 112.605 67.4034 112.401C67.5455 112.193 67.6165 111.949 67.6165 111.668C67.6165 111.307 67.4901 111.004 67.2372 110.76C66.9844 110.516 66.5966 110.393 66.0739 110.393H64.2756V113.048ZM73.2252 118.132C72.6116 118.132 72.0761 117.991 71.6187 117.71C71.1613 117.429 70.8062 117.036 70.5533 116.53C70.3005 116.024 70.1741 115.433 70.1741 114.757C70.1741 114.078 70.3005 113.484 70.5533 112.976C70.8062 112.467 71.1613 112.072 71.6187 111.791C72.0761 111.51 72.6116 111.369 73.2252 111.369C73.8388 111.369 74.3743 111.51 74.8317 111.791C75.2891 112.072 75.6442 112.467 75.8971 112.976C76.1499 113.484 76.2763 114.078 76.2763 114.757C76.2763 115.433 76.1499 116.024 75.8971 116.53C75.6442 117.036 75.2891 117.429 74.8317 117.71C74.3743 117.991 73.8388 118.132 73.2252 118.132ZM73.2295 117.062C73.6272 117.062 73.9567 116.957 74.2181 116.747C74.4795 116.537 74.6726 116.257 74.7976 115.908C74.9255 115.558 74.9894 115.173 74.9894 114.753C74.9894 114.335 74.9255 113.952 74.7976 113.602C74.6726 113.25 74.4795 112.967 74.2181 112.754C73.9567 112.541 73.6272 112.435 73.2295 112.435C72.8289 112.435 72.4965 112.541 72.2323 112.754C71.9709 112.967 71.7763 113.25 71.6485 113.602C71.5235 113.952 71.461 114.335 71.461 114.753C71.461 115.173 71.5235 115.558 71.6485 115.908C71.7763 116.257 71.9709 116.537 72.2323 116.747C72.4965 116.957 72.8289 117.062 73.2295 117.062ZM77.4586 118V111.455H78.6901V112.494H78.7583C78.8776 112.142 79.0878 111.865 79.389 111.663C79.6929 111.459 80.0367 111.357 80.4202 111.357C80.4998 111.357 80.5935 111.359 80.7015 111.365C80.8123 111.371 80.8989 111.378 80.9614 111.386V112.605C80.9103 112.591 80.8194 112.575 80.6887 112.558C80.558 112.538 80.4273 112.528 80.2966 112.528C79.9955 112.528 79.727 112.592 79.4912 112.72C79.2583 112.845 79.0736 113.02 78.9373 113.244C78.8009 113.466 78.7327 113.719 78.7327 114.003V118H77.4586ZM81.824 118V111.455H83.0982V118H81.824ZM82.4675 110.445C82.2459 110.445 82.0556 110.371 81.8965 110.223C81.7402 110.072 81.6621 109.893 81.6621 109.686C81.6621 109.476 81.7402 109.297 81.8965 109.149C82.0556 108.999 82.2459 108.923 82.4675 108.923C82.6891 108.923 82.878 108.999 83.0343 109.149C83.1934 109.297 83.2729 109.476 83.2729 109.686C83.2729 109.893 83.1934 110.072 83.0343 110.223C82.878 110.371 82.6891 110.445 82.4675 110.445ZM89.4771 113.053L88.3223 113.257C88.274 113.109 88.1973 112.969 88.0922 112.835C87.9899 112.702 87.8507 112.592 87.6746 112.507C87.4985 112.422 87.2783 112.379 87.0141 112.379C86.6533 112.379 86.3521 112.46 86.1107 112.622C85.8692 112.781 85.7485 112.987 85.7485 113.24C85.7485 113.459 85.8294 113.635 85.9914 113.768C86.1533 113.902 86.4146 114.011 86.7754 114.097L87.8152 114.335C88.4175 114.474 88.8664 114.689 89.1618 114.979C89.4573 115.268 89.605 115.645 89.605 116.108C89.605 116.5 89.4914 116.849 89.2641 117.156C89.0396 117.46 88.7257 117.699 88.3223 117.872C87.9217 118.045 87.4573 118.132 86.9289 118.132C86.1959 118.132 85.5979 117.976 85.1348 117.663C84.6717 117.348 84.3877 116.901 84.2825 116.321L85.5141 116.134C85.5908 116.455 85.7485 116.697 85.9871 116.862C86.2257 117.024 86.5368 117.105 86.9203 117.105C87.3379 117.105 87.6717 117.018 87.9217 116.845C88.1717 116.669 88.2967 116.455 88.2967 116.202C88.2967 115.997 88.22 115.825 88.0666 115.686C87.9161 115.547 87.6845 115.442 87.372 115.371L86.2641 115.128C85.6533 114.989 85.2016 114.767 84.909 114.463C84.6192 114.159 84.4743 113.774 84.4743 113.308C84.4743 112.922 84.5823 112.584 84.7982 112.294C85.0141 112.004 85.3124 111.778 85.6931 111.616C86.0737 111.452 86.5098 111.369 87.0013 111.369C87.7087 111.369 88.2655 111.523 88.6717 111.83C89.078 112.134 89.3465 112.541 89.4771 113.053Z" fill="white"/>
<g clip-path="url(#clip0_51_3872)">
<path d="M412 114L414 116L418 112M421.667 114C421.667 117.682 418.682 120.667 415 120.667C411.318 120.667 408.333 117.682 408.333 114C408.333 110.318 411.318 107.333 415 107.333C418.682 107.333 421.667 110.318 421.667 114Z" stroke="white" stroke-linecap="round" stroke-linejoin="round"/>
</g>
<path d="M67.7188 143.565C67.6733 143.162 67.4858 142.849 67.1562 142.628C66.8267 142.403 66.4119 142.291 65.9119 142.291C65.554 142.291 65.2443 142.348 64.983 142.462C64.7216 142.572 64.5185 142.726 64.3736 142.922C64.2315 143.115 64.1605 143.335 64.1605 143.582C64.1605 143.79 64.2088 143.969 64.3054 144.119C64.4048 144.27 64.5341 144.396 64.6932 144.499C64.8551 144.598 65.0284 144.682 65.2131 144.75C65.3977 144.815 65.5753 144.869 65.7457 144.912L66.598 145.134C66.8764 145.202 67.1619 145.294 67.4545 145.411C67.7472 145.527 68.0185 145.68 68.2685 145.871C68.5185 146.061 68.7202 146.297 68.8736 146.578C69.0298 146.859 69.108 147.196 69.108 147.588C69.108 148.082 68.9801 148.521 68.7244 148.905C68.4716 149.288 68.1037 149.591 67.6207 149.812C67.1406 150.034 66.5597 150.145 65.8778 150.145C65.2244 150.145 64.6591 150.041 64.1818 149.834C63.7045 149.626 63.331 149.332 63.0611 148.952C62.7912 148.568 62.642 148.114 62.6136 147.588H63.9347C63.9602 147.903 64.0625 148.166 64.2415 148.376C64.4233 148.584 64.6548 148.739 64.9361 148.841C65.2202 148.94 65.5312 148.99 65.8693 148.99C66.2415 148.99 66.5724 148.932 66.8622 148.815C67.1548 148.696 67.3849 148.531 67.5526 148.321C67.7202 148.108 67.804 147.859 67.804 147.575C67.804 147.317 67.7301 147.105 67.5824 146.94C67.4375 146.776 67.2401 146.639 66.9901 146.531C66.7429 146.423 66.4631 146.328 66.1506 146.246L65.1193 145.964C64.4205 145.774 63.8665 145.494 63.4574 145.125C63.0511 144.756 62.848 144.267 62.848 143.659C62.848 143.156 62.9844 142.717 63.2571 142.342C63.5298 141.967 63.8991 141.676 64.3651 141.469C64.831 141.259 65.3565 141.153 65.9418 141.153C66.5327 141.153 67.054 141.257 67.5057 141.464C67.9602 141.672 68.3182 141.957 68.5795 142.321C68.8409 142.682 68.9773 143.097 68.9886 143.565H67.7188ZM70.3392 150V143.455H71.6133V150H70.3392ZM70.9827 142.445C70.7611 142.445 70.5707 142.371 70.4116 142.223C70.2554 142.072 70.1773 141.893 70.1773 141.686C70.1773 141.476 70.2554 141.297 70.4116 141.149C70.5707 140.999 70.7611 140.923 70.9827 140.923C71.2042 140.923 71.3932 140.999 71.5494 141.149C71.7085 141.297 71.7881 141.476 71.7881 141.686C71.7881 141.893 71.7085 142.072 71.5494 142.223C71.3932 142.371 71.2042 142.445 70.9827 142.445ZM73.0875 150V143.455H74.3105V144.52H74.3914C74.5278 144.159 74.7508 143.878 75.0605 143.676C75.3701 143.472 75.7409 143.369 76.1727 143.369C76.6102 143.369 76.9767 143.472 77.2721 143.676C77.5704 143.881 77.7906 144.162 77.9326 144.52H78.0008C78.1571 144.17 78.4057 143.892 78.7466 143.685C79.0875 143.474 79.4937 143.369 79.9653 143.369C80.5591 143.369 81.0434 143.555 81.4184 143.928C81.7963 144.3 81.9852 144.861 81.9852 145.611V150H80.7111V145.73C80.7111 145.287 80.5903 144.966 80.3488 144.767C80.1074 144.568 79.819 144.469 79.4838 144.469C79.069 144.469 78.7466 144.597 78.5164 144.852C78.2863 145.105 78.1713 145.43 78.1713 145.828V150H76.9014V145.649C76.9014 145.294 76.7906 145.009 76.569 144.793C76.3474 144.577 76.0591 144.469 75.7039 144.469C75.4625 144.469 75.2395 144.533 75.0349 144.661C74.8332 144.786 74.6699 144.96 74.5449 145.185C74.4227 145.409 74.3616 145.669 74.3616 145.964V150H73.0875ZM83.5552 150V141.273H84.8294V144.516H84.9061C84.9799 144.379 85.0865 144.222 85.2257 144.043C85.3649 143.864 85.5581 143.707 85.8052 143.574C86.0524 143.438 86.3791 143.369 86.7853 143.369C87.3137 143.369 87.7853 143.503 88.2001 143.77C88.6149 144.037 88.9402 144.422 89.176 144.925C89.4146 145.428 89.5339 146.033 89.5339 146.74C89.5339 147.447 89.416 148.054 89.1802 148.56C88.9444 149.062 88.6206 149.45 88.2086 149.723C87.7967 149.993 87.3265 150.128 86.7981 150.128C86.4004 150.128 86.0751 150.061 85.8223 149.928C85.5723 149.794 85.3762 149.638 85.2342 149.459C85.0921 149.28 84.9828 149.121 84.9061 148.982H84.7995V150H83.5552ZM84.8038 146.727C84.8038 147.187 84.8706 147.591 85.0041 147.938C85.1376 148.284 85.3308 148.555 85.5836 148.751C85.8365 148.945 86.1461 149.041 86.5126 149.041C86.8933 149.041 87.2115 148.94 87.4671 148.739C87.7228 148.534 87.916 148.257 88.0467 147.908C88.1802 147.558 88.247 147.165 88.247 146.727C88.247 146.295 88.1816 145.908 88.051 145.564C87.9231 145.22 87.7299 144.949 87.4714 144.75C87.2157 144.551 86.8961 144.452 86.5126 144.452C86.1433 144.452 85.8308 144.547 85.5751 144.737C85.3223 144.928 85.1305 145.193 84.9998 145.534C84.8691 145.875 84.8038 146.273 84.8038 146.727ZM92.6295 150.145C92.2147 150.145 91.8397 150.068 91.5045 149.915C91.1693 149.759 90.9036 149.533 90.7076 149.237C90.5144 148.942 90.4178 148.58 90.4178 148.151C90.4178 147.781 90.4889 147.477 90.6309 147.239C90.773 147 90.9647 146.811 91.2062 146.672C91.4477 146.533 91.7176 146.428 92.0159 146.357C92.3141 146.286 92.6181 146.232 92.9278 146.195C93.3198 146.149 93.638 146.112 93.8823 146.084C94.1266 146.053 94.3042 146.003 94.415 145.935C94.5258 145.866 94.5812 145.756 94.5812 145.602V145.572C94.5812 145.2 94.4761 144.912 94.2659 144.707C94.0585 144.503 93.7488 144.401 93.3369 144.401C92.9079 144.401 92.5698 144.496 92.3227 144.686C92.0784 144.874 91.9093 145.082 91.8156 145.312L90.6181 145.04C90.7602 144.642 90.9676 144.321 91.2403 144.077C91.5159 143.83 91.8326 143.651 92.1906 143.54C92.5485 143.426 92.9249 143.369 93.3198 143.369C93.5812 143.369 93.8582 143.401 94.1508 143.463C94.4463 143.523 94.7218 143.634 94.9775 143.795C95.236 143.957 95.4477 144.189 95.6124 144.49C95.7772 144.788 95.8596 145.176 95.8596 145.653V150H94.6153V149.105H94.5641C94.4818 149.27 94.3582 149.432 94.1934 149.591C94.0286 149.75 93.817 149.882 93.5585 149.987C93.2999 150.092 92.9903 150.145 92.6295 150.145ZM92.9065 149.122C93.2588 149.122 93.5599 149.053 93.8099 148.913C94.0627 148.774 94.2545 148.592 94.3852 148.368C94.5187 148.141 94.5855 147.898 94.5855 147.639V146.795C94.54 146.841 94.4519 146.884 94.3213 146.923C94.1934 146.96 94.0471 146.993 93.8823 147.021C93.7176 147.047 93.557 147.071 93.4008 147.094C93.2445 147.114 93.1139 147.131 93.0088 147.145C92.7616 147.176 92.5357 147.229 92.3312 147.303C92.1295 147.376 91.9676 147.483 91.8454 147.622C91.7261 147.759 91.6664 147.94 91.6664 148.168C91.6664 148.483 91.7829 148.722 92.0159 148.884C92.2488 149.043 92.5457 149.122 92.9065 149.122Z" fill="white"/>
</g>
<defs>
<filter id="filter0_dddddd_51_3872" x="0.5" y="0" width="484.5" height="237" filterUnits="userSpaceOnUse" color-interpolation-filters="sRGB">
<feFlood flood-opacity="0" result="BackgroundImageFix"/>
<feColorMatrix in="SourceAlpha" type="matrix" values="0 0 0 0 0 0 0 0 0 0 0 0 0 0 0 0 0 0 127 0" result="hardAlpha"/>
<feMorphology radius="12" operator="erode" in="SourceAlpha" result="effect1_dropShadow_51_3872"/>
<feOffset dy="24"/>
<feGaussianBlur stdDeviation="12"/>
<feComposite in2="hardAlpha" operator="out"/>
<feColorMatrix type="matrix" values="0 0 0 0 0.054902 0 0 0 0 0.247059 0 0 0 0 0.494118 0 0 0 0.04 0"/>
<feBlend mode="normal" in2="BackgroundImageFix" result="effect1_dropShadow_51_3872"/>
<feColorMatrix in="SourceAlpha" type="matrix" values="0 0 0 0 0 0 0 0 0 0 0 0 0 0 0 0 0 0 127 0" result="hardAlpha"/>
<feMorphology radius="6" operator="erode" in="SourceAlpha" result="effect2_dropShadow_51_3872"/>
<feOffset dy="12"/>
<feGaussianBlur stdDeviation="6"/>
<feComposite in2="hardAlpha" operator="out"/>
<feColorMatrix type="matrix" values="0 0 0 0 0.054902 0 0 0 0 0.247059 0 0 0 0 0.494118 0 0 0 0.04 0"/>
<feBlend mode="normal" in2="effect1_dropShadow_51_3872" result="effect2_dropShadow_51_3872"/>
<feColorMatrix in="SourceAlpha" type="matrix" values="0 0 0 0 0 0 0 0 0 0 0 0 0 0 0 0 0 0 127 0" result="hardAlpha"/>
<feMorphology radius="3" operator="erode" in="SourceAlpha" result="effect3_dropShadow_51_3872"/>
<feOffset dy="6"/>
<feGaussianBlur stdDeviation="3"/>
<feComposite in2="hardAlpha" operator="out"/>
<feColorMatrix type="matrix" values="0 0 0 0 0.164706 0 0 0 0 0.2 0 0 0 0 0.27451 0 0 0 0.04 0"/>
<feBlend mode="normal" in2="effect2_dropShadow_51_3872" result="effect3_dropShadow_51_3872"/>
<feColorMatrix in="SourceAlpha" type="matrix" values="0 0 0 0 0 0 0 0 0 0 0 0 0 0 0 0 0 0 127 0" result="hardAlpha"/>
<feMorphology radius="1.5" operator="erode" in="SourceAlpha" result="effect4_dropShadow_51_3872"/>
<feOffset dy="3"/>
<feGaussianBlur stdDeviation="1.5"/>
<feComposite in2="hardAlpha" operator="out"/>
<feColorMatrix type="matrix" values="0 0 0 0 0.164706 0 0 0 0 0.2 0 0 0 0 0.27451 0 0 0 0.04 0"/>
<feBlend mode="normal" in2="effect3_dropShadow_51_3872" result="effect4_dropShadow_51_3872"/>
<feColorMatrix in="SourceAlpha" type="matrix" values="0 0 0 0 0 0 0 0 0 0 0 0 0 0 0 0 0 0 127 0" result="hardAlpha"/>
<feMorphology radius="0.5" operator="erode" in="SourceAlpha" result="effect5_dropShadow_51_3872"/>
<feOffset dy="1"/>
<feGaussianBlur stdDeviation="0.5"/>
<feComposite in2="hardAlpha" operator="out"/>
<feColorMatrix type="matrix" values="0 0 0 0 0.164706 0 0 0 0 0.2 0 0 0 0 0.270588 0 0 0 0.04 0"/>
<feBlend mode="normal" in2="effect4_dropShadow_51_3872" result="effect5_dropShadow_51_3872"/>
<feColorMatrix in="SourceAlpha" type="matrix" values="0 0 0 0 0 0 0 0 0 0 0 0 0 0 0 0 0 0 127 0" result="hardAlpha"/>
<feMorphology radius="1" operator="dilate" in="SourceAlpha" result="effect6_dropShadow_51_3872"/>
<feOffset/>
<feComposite in2="hardAlpha" operator="out"/>
<feColorMatrix type="matrix" values="0 0 0 0 0.054902 0 0 0 0 0.247059 0 0 0 0 0.494118 0 0 0 0.04 0"/>
<feBlend mode="normal" in2="effect5_dropShadow_51_3872" result="effect6_dropShadow_51_3872"/>
<feBlend mode="normal" in="SourceGraphic" in2="effect6_dropShadow_51_3872" result="shape"/>
</filter>
<linearGradient id="paint0_linear_51_3872" x1="242.5" y1="100" x2="242.5" y2="128" gradientUnits="userSpaceOnUse">
<stop stop-color="#30A5FF"/>
<stop offset="1" stop-color="#0090FF"/>
</linearGradient>
<clipPath id="clip0_51_3872">
<rect width="16" height="16" fill="white" transform="translate(407 106)"/>
</clipPath>
</defs>
</svg>
