<svg width="485" height="237" viewBox="0 0 485 237" fill="none" xmlns="http://www.w3.org/2000/svg">
<g filter="url(#filter0_dddddd_51_3796)">
<g clip-path="url(#clip0_51_3796)">
<g opacity="0.5">
<rect x="251.109" y="43.5879" width="85" height="116" rx="8" transform="rotate(6.06035 251.109 43.5879)" fill="#2F323B"/>
<g clip-path="url(#clip1_51_3796)">
<path d="M289.668 112.796L282.756 112.062C282.304 112.014 282.078 111.99 281.983 111.89C281.9 111.802 281.864 111.681 281.886 111.563C281.912 111.427 282.088 111.284 282.442 110.999L289.457 105.33C289.783 105.066 289.947 104.934 290.123 104.897C290.278 104.864 290.439 104.882 290.584 104.946C290.748 105.02 290.88 105.183 291.144 105.51L293.723 108.701L293.628 109.596M289.668 112.796C290.921 112.929 291.548 112.995 292.052 112.802C292.496 112.633 292.875 112.327 293.134 111.928C293.429 111.476 293.495 110.849 293.628 109.596M289.668 112.796L283.403 112.131C282.15 111.998 281.524 111.931 281.071 111.637C280.673 111.377 280.367 110.999 280.197 110.555C280.004 110.05 280.071 109.424 280.204 108.171L280.869 101.906C281.002 100.653 281.068 100.026 281.363 99.5737C281.622 99.1755 282.001 98.8696 282.445 98.6997C282.949 98.5067 283.576 98.5732 284.829 98.7062L291.093 99.3714C292.347 99.5044 292.973 99.5709 293.426 99.8656C293.824 100.125 294.13 100.503 294.3 100.947C294.493 101.452 294.426 102.078 294.293 103.331L293.628 109.596M286.407 103.022C286.319 103.846 285.581 104.443 284.757 104.355C283.933 104.268 283.336 103.529 283.424 102.705C283.511 101.881 284.25 101.285 285.074 101.372C285.897 101.459 286.494 102.198 286.407 103.022Z" stroke="white" stroke-opacity="0.25" stroke-width="1.25" stroke-linecap="round" stroke-linejoin="round"/>
</g>
</g>
<g opacity="0.5">
<rect x="238.335" y="163.912" width="85" height="116" rx="8" transform="rotate(6.06035 238.335 163.912)" fill="#2F323B"/>
</g>
<g opacity="0.5">
<rect x="263.884" y="-76.7356" width="85" height="116" rx="8" transform="rotate(6.06035 263.884 -76.7356)" fill="#2F323B"/>
</g>
<g opacity="0.5">
<rect x="340.606" y="53.0898" width="85" height="116" rx="8" transform="rotate(6.06035 340.606 53.0898)" fill="#2F323B"/>
<g clip-path="url(#clip2_51_3796)">
<path d="M379.165 122.298L372.253 121.564C371.801 121.516 371.575 121.492 371.48 121.392C371.397 121.304 371.361 121.183 371.383 121.065C371.409 120.929 371.585 120.786 371.939 120.501L378.954 114.832C379.28 114.568 379.444 114.436 379.62 114.399C379.775 114.366 379.936 114.383 380.081 114.448C380.245 114.521 380.377 114.685 380.641 115.012L383.22 118.203L383.125 119.098M379.165 122.298C380.418 122.431 381.045 122.497 381.549 122.304C381.993 122.135 382.372 121.829 382.631 121.43C382.926 120.978 382.992 120.351 383.125 119.098M379.165 122.298L372.9 121.633C371.647 121.5 371.021 121.433 370.568 121.139C370.17 120.879 369.864 120.501 369.694 120.057C369.501 119.552 369.568 118.926 369.701 117.673L370.366 111.408C370.499 110.155 370.565 109.528 370.86 109.076C371.119 108.677 371.498 108.372 371.942 108.202C372.446 108.009 373.073 108.075 374.326 108.208L380.591 108.873C381.844 109.006 382.47 109.073 382.923 109.368C383.321 109.627 383.627 110.005 383.797 110.449C383.99 110.954 383.923 111.58 383.79 112.833L383.125 119.098M375.904 112.524C375.816 113.348 375.078 113.945 374.254 113.857C373.43 113.77 372.833 113.031 372.921 112.207C373.008 111.383 373.747 110.786 374.571 110.874C375.394 110.961 375.991 111.7 375.904 112.524Z" stroke="white" stroke-opacity="0.25" stroke-width="1.25" stroke-linecap="round" stroke-linejoin="round"/>
</g>
</g>
<g opacity="0.5">
<rect x="327.832" y="173.414" width="85" height="116" rx="8" transform="rotate(6.06035 327.832 173.414)" fill="#2F323B"/>
</g>
<g opacity="0.5">
<rect x="353.381" y="-67.2339" width="85" height="116" rx="8" transform="rotate(6.06035 353.381 -67.2339)" fill="#2F323B"/>
<g clip-path="url(#clip3_51_3796)">
<path d="M391.94 1.97366L385.027 1.23975C384.575 1.19178 384.35 1.1678 384.254 1.06734C384.172 0.980185 384.136 0.858778 384.158 0.740771C384.183 0.60477 384.36 0.461986 384.714 0.176419L391.728 -5.49187C392.055 -5.75586 392.218 -5.88786 392.395 -5.92511C392.55 -5.95788 392.711 -5.94075 392.856 -5.87617C393.02 -5.80277 393.152 -5.63941 393.416 -5.3127L395.995 -2.12112L395.9 -1.22615M391.94 1.97366C393.193 2.1067 393.82 2.17322 394.324 1.98017C394.768 1.81035 395.146 1.50441 395.406 1.10619C395.7 0.653466 395.767 0.0269273 395.9 -1.22615M391.94 1.97366L385.675 1.30853C384.422 1.17549 383.796 1.10897 383.343 0.814295C382.945 0.555089 382.639 0.176466 382.469 -0.267307C382.276 -0.77181 382.342 -1.39835 382.475 -2.65142L383.14 -8.91621C383.273 -10.1693 383.34 -10.7958 383.635 -11.2485C383.894 -11.6468 384.272 -11.9527 384.716 -12.1225C385.221 -12.3156 385.847 -12.2491 387.1 -12.116L393.365 -11.4509C394.618 -11.3179 395.245 -11.2513 395.698 -10.9567C396.096 -10.6975 396.402 -10.3188 396.571 -9.87505C396.765 -9.37055 396.698 -8.74401 396.565 -7.49094L395.9 -1.22615M388.679 -7.80028C388.591 -6.97649 387.852 -6.37957 387.029 -6.46703C386.205 -6.55449 385.608 -7.29321 385.695 -8.11701C385.783 -8.94081 386.522 -9.53773 387.345 -9.45026C388.169 -9.3628 388.766 -8.62408 388.679 -7.80028Z" stroke="white" stroke-opacity="0.25" stroke-width="1.25" stroke-linecap="round" stroke-linejoin="round"/>
</g>
</g>
<g opacity="0.5">
<rect x="430.104" y="62.5918" width="85" height="116" rx="8" transform="rotate(6.06035 430.104 62.5918)" fill="#2F323B"/>
<g clip-path="url(#clip4_51_3796)">
<path d="M468.662 131.8L461.75 131.066C461.298 131.018 461.072 130.994 460.977 130.894C460.894 130.806 460.858 130.685 460.88 130.567C460.906 130.431 461.083 130.288 461.436 130.003L468.451 124.334C468.777 124.07 468.941 123.938 469.117 123.901C469.272 123.868 469.433 123.885 469.578 123.95C469.742 124.023 469.874 124.187 470.138 124.513L472.717 127.705L472.622 128.6M468.662 131.8C469.915 131.933 470.542 131.999 471.046 131.806C471.49 131.637 471.869 131.331 472.128 130.932C472.423 130.48 472.489 129.853 472.622 128.6M468.662 131.8L462.398 131.135C461.144 131.002 460.518 130.935 460.065 130.64C459.667 130.381 459.361 130.003 459.191 129.559C458.998 129.054 459.065 128.428 459.198 127.175L459.863 120.91C459.996 119.657 460.062 119.03 460.357 118.578C460.616 118.179 460.995 117.873 461.439 117.704C461.943 117.511 462.57 117.577 463.823 117.71L470.088 118.375C471.341 118.508 471.967 118.575 472.42 118.87C472.818 119.129 473.124 119.507 473.294 119.951C473.487 120.456 473.42 121.082 473.287 122.335L472.622 128.6M465.401 122.026C465.314 122.85 464.575 123.447 463.751 123.359C462.927 123.272 462.33 122.533 462.418 121.709C462.505 120.885 463.244 120.288 464.068 120.376C464.892 120.463 465.488 121.202 465.401 122.026Z" stroke="white" stroke-opacity="0.25" stroke-width="1.25" stroke-linecap="round" stroke-linejoin="round"/>
</g>
</g>
<g opacity="0.5">
<rect x="417.329" y="182.916" width="85" height="116" rx="8" transform="rotate(6.06035 417.329 182.916)" fill="#2F323B"/>
</g>
<g opacity="0.5">
<rect x="442.878" y="-57.7319" width="85" height="116" rx="8" transform="rotate(6.06035 442.878 -57.7319)" fill="#2F323B"/>
<g clip-path="url(#clip5_51_3796)">
<path d="M481.437 11.4756L474.524 10.7417C474.073 10.6937 473.847 10.6697 473.751 10.5693C473.669 10.4821 473.633 10.3607 473.655 10.2427C473.68 10.1067 473.857 9.96394 474.211 9.67837L481.225 4.01008C481.552 3.74609 481.716 3.61409 481.892 3.57684C482.047 3.54407 482.208 3.56121 482.353 3.62578C482.517 3.69919 482.649 3.86254 482.913 4.18925L485.492 7.38083L485.397 8.2758M481.437 11.4756C482.69 11.6087 483.317 11.6752 483.821 11.4821C484.265 11.3123 484.643 11.0064 484.903 10.6081C485.197 10.1554 485.264 9.52888 485.397 8.2758M481.437 11.4756L475.172 10.8105C473.919 10.6774 473.293 10.6109 472.84 10.3162C472.442 10.057 472.136 9.67842 471.966 9.23465C471.773 8.73014 471.839 8.10361 471.972 6.85053L472.638 0.58574C472.771 -0.667336 472.837 -1.29387 473.132 -1.74659C473.391 -2.14482 473.77 -2.45076 474.213 -2.62057C474.718 -2.81362 475.344 -2.74711 476.597 -2.61407L482.862 -1.94894C484.115 -1.8159 484.742 -1.74938 485.195 -1.4547C485.593 -1.1955 485.899 -0.816875 486.069 -0.373102C486.262 0.131401 486.195 0.757939 486.062 2.01101L485.397 8.2758M478.176 1.70167C478.088 2.52547 477.349 3.12238 476.526 3.03492C475.702 2.94746 475.105 2.20874 475.192 1.38494C475.28 0.561145 476.019 -0.0357726 476.842 0.0516893C477.666 0.139151 478.263 0.877873 478.176 1.70167Z" stroke="white" stroke-opacity="0.25" stroke-width="1.25" stroke-linecap="round" stroke-linejoin="round"/>
</g>
</g>
<g opacity="0.5">
<rect x="161.612" y="34.0864" width="85" height="116" rx="8" transform="rotate(6.06035 161.612 34.0864)" fill="#2F323B"/>
<g clip-path="url(#clip6_51_3796)">
<path d="M200.171 103.294L193.259 102.561C192.807 102.513 192.581 102.489 192.486 102.388C192.403 102.301 192.367 102.18 192.389 102.062C192.415 101.926 192.591 101.783 192.945 101.497L199.96 95.8289C200.286 95.5649 200.45 95.4329 200.626 95.3957C200.781 95.3629 200.942 95.3801 201.087 95.4446C201.251 95.518 201.383 95.6814 201.647 96.0081L204.226 99.1997L204.131 100.095M200.171 103.294C201.424 103.427 202.051 103.494 202.555 103.301C202.999 103.131 203.378 102.825 203.637 102.427C203.932 101.974 203.998 101.348 204.131 100.095M200.171 103.294L193.906 102.629C192.653 102.496 192.027 102.43 191.574 102.135C191.176 101.876 190.87 101.497 190.7 101.053C190.507 100.549 190.574 99.9225 190.707 98.6694L191.372 92.4046C191.505 91.1515 191.571 90.525 191.866 90.0723C192.125 89.674 192.504 89.3681 192.948 89.1983C193.452 89.0052 194.079 89.0717 195.332 89.2048L201.597 89.8699C202.85 90.0029 203.476 90.0695 203.929 90.3641C204.327 90.6234 204.633 91.002 204.803 91.4457C204.996 91.9502 204.929 92.5768 204.796 93.8299L204.131 100.095M196.91 93.5205C196.822 94.3443 196.084 94.9412 195.26 94.8538C194.436 94.7663 193.839 94.0276 193.927 93.2038C194.014 92.38 194.753 91.7831 195.577 91.8705C196.4 91.958 196.997 92.6967 196.91 93.5205Z" stroke="white" stroke-opacity="0.25" stroke-width="1.25" stroke-linecap="round" stroke-linejoin="round"/>
</g>
</g>
<g opacity="0.5">
<rect x="148.838" y="154.41" width="85" height="116" rx="8" transform="rotate(6.06035 148.838 154.41)" fill="#2F323B"/>
</g>
<g opacity="0.5">
<rect x="174.387" y="-86.2375" width="85" height="116" rx="8" transform="rotate(6.06035 174.387 -86.2375)" fill="#2F323B"/>
</g>
<g opacity="0.5">
<rect x="72.1154" y="24.5845" width="85" height="116" rx="8" transform="rotate(6.06035 72.1154 24.5845)" fill="#2F323B"/>
<g clip-path="url(#clip7_51_3796)">
<path d="M110.674 93.7925L103.762 93.0586C103.31 93.0106 103.084 92.9866 102.989 92.8862C102.906 92.799 102.87 92.6776 102.892 92.5596C102.918 92.4236 103.094 92.2808 103.448 91.9953L110.463 86.327C110.789 86.063 110.953 85.931 111.129 85.8937C111.284 85.861 111.445 85.8781 111.59 85.9427C111.754 86.0161 111.886 86.1794 112.15 86.5061L114.729 89.6977L114.634 90.5927M110.674 93.7925C111.927 93.9255 112.554 93.9921 113.058 93.799C113.502 93.6292 113.881 93.3233 114.14 92.925C114.435 92.4723 114.501 91.8458 114.634 90.5927M110.674 93.7925L104.409 93.1274C103.156 92.9943 102.53 92.9278 102.077 92.6331C101.679 92.3739 101.373 91.9953 101.203 91.5515C101.01 91.047 101.077 90.4205 101.21 89.1674L101.875 82.9026C102.008 81.6496 102.074 81.023 102.369 80.5703C102.628 80.1721 103.007 79.8661 103.451 79.6963C103.955 79.5033 104.582 79.5698 105.835 79.7028L112.1 80.368C113.353 80.501 113.979 80.5675 114.432 80.8622C114.83 81.1214 115.136 81.5 115.306 81.9438C115.499 82.4483 115.432 83.0748 115.299 84.3279L114.634 90.5927M107.413 84.0186C107.325 84.8424 106.587 85.4393 105.763 85.3518C104.939 85.2644 104.342 84.5256 104.43 83.7018C104.517 82.878 105.256 82.2811 106.08 82.3686C106.903 82.456 107.5 83.1948 107.413 84.0186Z" stroke="white" stroke-opacity="0.25" stroke-width="1.25" stroke-linecap="round" stroke-linejoin="round"/>
</g>
</g>
<g opacity="0.5">
<rect x="59.3407" y="144.908" width="85" height="116" rx="8" transform="rotate(6.06035 59.3407 144.908)" fill="#2F323B"/>
<g clip-path="url(#clip8_51_3796)">
<path d="M97.8996 214.116L90.9869 213.382C90.5351 213.334 90.3092 213.31 90.2141 213.21C90.1315 213.123 90.0957 213.001 90.1177 212.883C90.1431 212.747 90.3198 212.605 90.6732 212.319L97.688 206.651C98.0147 206.387 98.1781 206.255 98.3543 206.217C98.5092 206.185 98.6706 206.202 98.8152 206.266C98.9796 206.34 99.1116 206.503 99.3756 206.83L101.955 210.021L101.86 210.916M97.8996 214.116C99.1526 214.249 99.7792 214.316 100.284 214.123C100.727 213.953 101.106 213.647 101.365 213.249C101.66 212.796 101.726 212.17 101.86 210.916M97.8996 214.116L91.6348 213.451C90.3817 213.318 89.7552 213.252 89.3024 212.957C88.9042 212.698 88.5983 212.319 88.4285 211.875C88.2354 211.371 88.3019 210.744 88.435 209.491L89.1001 203.226C89.2331 201.973 89.2996 201.347 89.5943 200.894C89.8535 200.496 90.2322 200.19 90.6759 200.02C91.1804 199.827 91.807 199.894 93.06 200.027L99.3248 200.692C100.578 200.825 101.204 200.891 101.657 201.186C102.055 201.445 102.361 201.824 102.531 202.268C102.724 202.772 102.658 203.399 102.525 204.652L101.86 210.916M94.6382 204.342C94.5508 205.166 93.812 205.763 92.9882 205.676C92.1644 205.588 91.5675 204.849 91.655 204.026C91.7425 203.202 92.4812 202.605 93.305 202.692C94.1288 202.78 94.7257 203.518 94.6382 204.342Z" stroke="white" stroke-opacity="0.25" stroke-width="1.25" stroke-linecap="round" stroke-linejoin="round"/>
</g>
</g>
<g opacity="0.5">
<rect x="84.8901" y="-95.7393" width="85" height="116" rx="8" transform="rotate(6.06035 84.8901 -95.7393)" fill="#2F323B"/>
</g>
<g opacity="0.5">
<rect x="-17.3816" y="15.0825" width="85" height="116" rx="8" transform="rotate(6.06035 -17.3816 15.0825)" fill="#2F323B"/>
<g clip-path="url(#clip9_51_3796)">
<path d="M21.1773 84.2906L14.2646 83.5566C13.8128 83.5087 13.5869 83.4847 13.4918 83.3842C13.4093 83.2971 13.3734 83.1757 13.3954 83.0577C13.4208 82.9217 13.5975 82.7789 13.9509 82.4933L20.9657 76.825C21.2924 76.561 21.4558 76.429 21.632 76.3918C21.7869 76.359 21.9483 76.3761 22.0929 76.4407C22.2573 76.5141 22.3893 76.6775 22.6533 77.0042L25.2322 80.1958L25.1372 81.0907M21.1773 84.2906C22.4303 84.4236 23.0569 84.4901 23.5614 84.2971C24.0052 84.1272 24.3838 83.8213 24.643 83.4231C24.9377 82.9704 25.0042 82.3438 25.1372 81.0907M21.1773 84.2906L14.9125 83.6254C13.6594 83.4924 13.0329 83.4259 12.5801 83.1312C12.1819 82.872 11.876 82.4934 11.7062 82.0496C11.5131 81.5451 11.5796 80.9185 11.7127 79.6655L12.3778 73.4007C12.5108 72.1476 12.5774 71.5211 12.872 71.0683C13.1312 70.6701 13.5099 70.3642 13.9536 70.1944C14.4581 70.0013 15.0847 70.0678 16.3378 70.2009L22.6025 70.866C23.8556 70.999 24.4822 71.0656 24.9349 71.3602C25.3331 71.6194 25.639 71.9981 25.8089 72.4418C26.0019 72.9463 25.9354 73.5729 25.8024 74.826L25.1372 81.0907M17.9159 74.5166C17.8285 75.3404 17.0898 75.9373 16.266 75.8499C15.4422 75.7624 14.8452 75.0237 14.9327 74.1999C15.0202 73.3761 15.7589 72.7792 16.5827 72.8666C17.4065 72.9541 18.0034 73.6928 17.9159 74.5166Z" stroke="white" stroke-opacity="0.25" stroke-width="1.25" stroke-linecap="round" stroke-linejoin="round"/>
</g>
</g>
<g opacity="0.5">
<rect x="-30.1563" y="135.406" width="85" height="116" rx="8" transform="rotate(6.06035 -30.1563 135.406)" fill="#2F323B"/>
<g clip-path="url(#clip10_51_3796)">
<path d="M8.40255 204.614L1.48993 203.88C1.03811 203.832 0.812196 203.808 0.717071 203.708C0.634533 203.621 0.59871 203.499 0.62071 203.381C0.646065 203.245 0.822768 203.103 1.17617 202.817L8.19102 197.149C8.51773 196.885 8.68109 196.753 8.85725 196.716C9.01221 196.683 9.17356 196.7 9.31818 196.764C9.4826 196.838 9.6146 197.001 9.87859 197.328L12.4575 200.52L12.3625 201.414M8.40255 204.614C9.65563 204.747 10.2822 204.814 10.7867 204.621C11.2304 204.451 11.6091 204.145 11.8683 203.747C12.1629 203.294 12.2295 202.668 12.3625 201.414M8.40255 204.614L2.13776 203.949C0.884685 203.816 0.258147 203.75 -0.194574 203.455C-0.592798 203.196 -0.898741 202.817 -1.06855 202.373C-1.2616 201.869 -1.19508 201.242 -1.06205 199.989L-0.396919 193.724C-0.263881 192.471 -0.197362 191.845 0.0973168 191.392C0.356523 190.994 0.735146 190.688 1.17892 190.518C1.68342 190.325 2.30996 190.392 3.56303 190.525L9.82783 191.19C11.0809 191.323 11.7074 191.389 12.1602 191.684C12.5584 191.943 12.8643 192.322 13.0341 192.766C13.2272 193.27 13.1607 193.897 13.0276 195.15L12.3625 201.414M5.14122 194.84C5.05376 195.664 4.31503 196.261 3.49124 196.174C2.66744 196.086 2.07052 195.347 2.15798 194.524C2.24545 193.7 2.98417 193.103 3.80796 193.19C4.63176 193.278 5.22868 194.017 5.14122 194.84Z" stroke="white" stroke-opacity="0.25" stroke-width="1.25" stroke-linecap="round" stroke-linejoin="round"/>
</g>
</g>
<g opacity="0.5">
<rect x="-4.60693" y="-105.241" width="85" height="116" rx="8" transform="rotate(6.06035 -4.60693 -105.241)" fill="#2F323B"/>
</g>
<rect x="148" y="83" width="189" height="35" rx="8" fill="url(#paint0_linear_51_3796)"/>
<path d="M164.562 104.045V96.3636H166.091V104.045H164.562ZM161.489 100.966V99.4432H169.17V100.966H161.489ZM171.211 103.727V102.307L176.24 94.3636H177.359V96.4545H176.649L173.052 102.148V102.239H179.944V103.727H171.211ZM176.728 106V103.295L176.74 102.648V94.3636H178.404V106H176.728ZM183.087 94.3636V95.4545C183.087 95.7765 183.027 96.1155 182.905 96.4716C182.788 96.8239 182.621 97.1629 182.405 97.4886C182.19 97.8144 181.936 98.0947 181.644 98.3295L180.803 97.7273C181.027 97.4015 181.22 97.0549 181.383 96.6875C181.549 96.3201 181.633 95.9148 181.633 95.4716V94.3636H183.087ZM184.472 106V104.727L188.409 100.648C188.83 100.205 189.176 99.8163 189.449 99.483C189.726 99.1458 189.932 98.8258 190.068 98.5227C190.205 98.2197 190.273 97.8977 190.273 97.5568C190.273 97.1705 190.182 96.8371 190 96.5568C189.818 96.2727 189.57 96.0549 189.256 95.9034C188.942 95.7481 188.587 95.6705 188.193 95.6705C187.777 95.6705 187.413 95.7557 187.103 95.9261C186.792 96.0966 186.553 96.3371 186.387 96.6477C186.22 96.9583 186.137 97.322 186.137 97.7386H184.46C184.46 97.0303 184.623 96.411 184.949 95.8807C185.275 95.3504 185.722 94.9394 186.29 94.6477C186.858 94.3523 187.504 94.2045 188.228 94.2045C188.959 94.2045 189.603 94.3504 190.159 94.642C190.72 94.9299 191.157 95.3239 191.472 95.8239C191.786 96.3201 191.943 96.8807 191.943 97.5057C191.943 97.9375 191.862 98.3598 191.699 98.7727C191.54 99.1856 191.262 99.6458 190.864 100.153C190.466 100.657 189.913 101.269 189.205 101.989L186.892 104.409V104.494H192.131V106H184.472ZM197.834 94.2045C198.353 94.2083 198.864 94.303 199.368 94.4886C199.872 94.6742 200.326 94.9773 200.731 95.3977C201.14 95.8182 201.466 96.3864 201.709 97.1023C201.955 97.8144 202.08 98.7008 202.084 99.7614C202.084 100.78 201.981 101.687 201.777 102.483C201.572 103.275 201.279 103.943 200.896 104.489C200.517 105.034 200.057 105.449 199.515 105.733C198.974 106.017 198.364 106.159 197.686 106.159C196.993 106.159 196.377 106.023 195.839 105.75C195.301 105.477 194.864 105.1 194.527 104.619C194.19 104.134 193.979 103.578 193.896 102.949H195.629C195.743 103.449 195.974 103.854 196.322 104.165C196.675 104.472 197.129 104.625 197.686 104.625C198.538 104.625 199.203 104.254 199.68 103.511C200.158 102.765 200.398 101.723 200.402 100.386H200.311C200.114 100.712 199.868 100.992 199.572 101.227C199.281 101.462 198.953 101.644 198.589 101.773C198.226 101.902 197.837 101.966 197.425 101.966C196.754 101.966 196.144 101.801 195.595 101.472C195.046 101.142 194.608 100.689 194.283 100.114C193.957 99.5379 193.794 98.8807 193.794 98.142C193.794 97.4072 193.961 96.7405 194.294 96.142C194.631 95.5436 195.101 95.0701 195.703 94.7216C196.309 94.3693 197.019 94.197 197.834 94.2045ZM197.839 95.6818C197.396 95.6818 196.997 95.7917 196.64 96.0114C196.288 96.2273 196.01 96.5208 195.805 96.892C195.601 97.2595 195.498 97.6686 195.498 98.1193C195.498 98.5701 195.597 98.9792 195.794 99.3466C195.995 99.7102 196.267 100 196.612 100.216C196.961 100.428 197.358 100.534 197.805 100.534C198.139 100.534 198.449 100.47 198.737 100.341C199.025 100.212 199.277 100.034 199.493 99.8068C199.709 99.5758 199.877 99.3144 199.998 99.0227C200.12 98.7311 200.18 98.4242 200.18 98.1023C200.18 97.6742 200.078 97.2765 199.873 96.9091C199.673 96.5417 199.396 96.2462 199.044 96.0227C198.692 95.7955 198.29 95.6818 197.839 95.6818ZM208.231 94.3636V106H206.47V96.125H206.401L203.617 97.9432V96.2614L206.521 94.3636H208.231ZM221.479 97.4205C221.418 96.8826 221.168 96.4659 220.729 96.1705C220.289 95.8712 219.736 95.7216 219.07 95.7216C218.592 95.7216 218.18 95.7973 217.831 95.9489C217.483 96.0966 217.212 96.3011 217.019 96.5625C216.829 96.8201 216.734 97.1136 216.734 97.4432C216.734 97.7197 216.799 97.9583 216.928 98.1591C217.06 98.3598 217.233 98.5284 217.445 98.6648C217.661 98.7973 217.892 98.9091 218.138 99C218.384 99.0871 218.621 99.1591 218.848 99.2159L219.984 99.5114C220.356 99.6023 220.736 99.7254 221.126 99.8807C221.517 100.036 221.878 100.241 222.212 100.494C222.545 100.748 222.814 101.062 223.019 101.438C223.227 101.812 223.331 102.261 223.331 102.784C223.331 103.443 223.161 104.028 222.82 104.54C222.483 105.051 221.992 105.455 221.348 105.75C220.708 106.045 219.933 106.193 219.024 106.193C218.153 106.193 217.399 106.055 216.763 105.778C216.126 105.502 215.628 105.11 215.269 104.602C214.909 104.091 214.71 103.485 214.672 102.784H216.433C216.467 103.205 216.604 103.555 216.842 103.835C217.085 104.112 217.394 104.318 217.769 104.455C218.147 104.587 218.562 104.653 219.013 104.653C219.509 104.653 219.95 104.576 220.337 104.42C220.727 104.261 221.034 104.042 221.257 103.761C221.481 103.477 221.592 103.146 221.592 102.767C221.592 102.422 221.494 102.14 221.297 101.92C221.104 101.701 220.84 101.519 220.507 101.375C220.178 101.231 219.805 101.104 219.388 100.994L218.013 100.619C217.081 100.366 216.342 99.9924 215.797 99.5C215.255 99.0076 214.984 98.3561 214.984 97.5455C214.984 96.875 215.166 96.2898 215.53 95.7898C215.894 95.2898 216.386 94.9015 217.007 94.625C217.628 94.3447 218.329 94.2045 219.109 94.2045C219.897 94.2045 220.592 94.3428 221.195 94.6193C221.801 94.8958 222.278 95.2765 222.626 95.7614C222.975 96.2424 223.157 96.7955 223.172 97.4205H221.479ZM229.047 97.2727V98.6364H224.279V97.2727H229.047ZM225.558 95.1818H227.257V103.438C227.257 103.767 227.306 104.015 227.404 104.182C227.503 104.345 227.63 104.456 227.785 104.517C227.944 104.574 228.117 104.602 228.302 104.602C228.439 104.602 228.558 104.593 228.66 104.574C228.762 104.555 228.842 104.54 228.899 104.528L229.206 105.932C229.107 105.97 228.967 106.008 228.785 106.045C228.603 106.087 228.376 106.11 228.103 106.114C227.656 106.121 227.24 106.042 226.853 105.875C226.467 105.708 226.154 105.451 225.916 105.102C225.677 104.754 225.558 104.316 225.558 103.79V95.1818ZM234.188 106.176C233.37 106.176 232.656 105.989 232.046 105.614C231.436 105.239 230.963 104.714 230.626 104.04C230.289 103.366 230.12 102.578 230.12 101.676C230.12 100.771 230.289 99.9792 230.626 99.3011C230.963 98.6231 231.436 98.0966 232.046 97.7216C232.656 97.3466 233.37 97.1591 234.188 97.1591C235.006 97.1591 235.72 97.3466 236.33 97.7216C236.94 98.0966 237.414 98.6231 237.751 99.3011C238.088 99.9792 238.256 100.771 238.256 101.676C238.256 102.578 238.088 103.366 237.751 104.04C237.414 104.714 236.94 105.239 236.33 105.614C235.72 105.989 235.006 106.176 234.188 106.176ZM234.194 104.75C234.724 104.75 235.164 104.61 235.512 104.33C235.861 104.049 236.118 103.676 236.285 103.21C236.455 102.744 236.54 102.231 236.54 101.67C236.54 101.114 236.455 100.602 236.285 100.136C236.118 99.6667 235.861 99.2898 235.512 99.0057C235.164 98.7216 234.724 98.5795 234.194 98.5795C233.66 98.5795 233.217 98.7216 232.864 99.0057C232.516 99.2898 232.256 99.6667 232.086 100.136C231.919 100.602 231.836 101.114 231.836 101.67C231.836 102.231 231.919 102.744 232.086 103.21C232.256 103.676 232.516 104.049 232.864 104.33C233.217 104.61 233.66 104.75 234.194 104.75ZM239.833 106V97.2727H241.475V98.6591H241.566C241.725 98.1894 242.005 97.8201 242.407 97.5511C242.812 97.2784 243.27 97.142 243.782 97.142C243.888 97.142 244.013 97.1458 244.157 97.1534C244.304 97.161 244.42 97.1705 244.503 97.1818V98.8068C244.435 98.7879 244.314 98.767 244.139 98.7443C243.965 98.7178 243.791 98.7045 243.617 98.7045C243.215 98.7045 242.857 98.7898 242.543 98.9602C242.232 99.1269 241.986 99.3598 241.804 99.6591C241.622 99.9545 241.532 100.292 241.532 100.67V106H239.833ZM245.653 106V97.2727H247.352V106H245.653ZM246.511 95.9261C246.216 95.9261 245.962 95.8277 245.75 95.6307C245.542 95.4299 245.437 95.1913 245.437 94.9148C245.437 94.6345 245.542 94.3958 245.75 94.1989C245.962 93.9981 246.216 93.8977 246.511 93.8977C246.807 93.8977 247.059 93.9981 247.267 94.1989C247.479 94.3958 247.585 94.6345 247.585 94.9148C247.585 95.1913 247.479 95.4299 247.267 95.6307C247.059 95.8277 246.807 95.9261 246.511 95.9261ZM253.079 106.176C252.219 106.176 251.479 105.992 250.857 105.625C250.24 105.254 249.763 104.733 249.426 104.062C249.092 103.388 248.926 102.598 248.926 101.693C248.926 100.799 249.092 100.011 249.426 99.3295C249.763 98.6477 250.232 98.1155 250.835 97.733C251.441 97.3504 252.149 97.1591 252.96 97.1591C253.452 97.1591 253.929 97.2405 254.392 97.4034C254.854 97.5663 255.268 97.822 255.636 98.1705C256.003 98.5189 256.293 98.9716 256.505 99.5284C256.717 100.081 256.823 100.754 256.823 101.545V102.148H249.886V100.875H255.159C255.159 100.428 255.068 100.032 254.886 99.6875C254.704 99.339 254.448 99.0644 254.119 98.8636C253.793 98.6629 253.41 98.5625 252.971 98.5625C252.494 98.5625 252.077 98.6799 251.721 98.9148C251.369 99.1458 251.096 99.4489 250.903 99.8239C250.714 100.195 250.619 100.598 250.619 101.034V102.028C250.619 102.612 250.721 103.108 250.926 103.517C251.134 103.926 251.424 104.239 251.795 104.455C252.166 104.667 252.6 104.773 253.096 104.773C253.418 104.773 253.712 104.727 253.977 104.636C254.242 104.542 254.471 104.402 254.664 104.216C254.857 104.03 255.005 103.801 255.107 103.528L256.715 103.818C256.587 104.292 256.356 104.706 256.022 105.062C255.693 105.415 255.278 105.689 254.778 105.886C254.282 106.08 253.715 106.176 253.079 106.176ZM264.928 99.4034L263.388 99.6761C263.324 99.4792 263.222 99.2917 263.081 99.1136C262.945 98.9356 262.76 98.7898 262.525 98.6761C262.29 98.5625 261.996 98.5057 261.644 98.5057C261.163 98.5057 260.761 98.6136 260.439 98.8295C260.117 99.0417 259.956 99.3163 259.956 99.6534C259.956 99.9451 260.064 100.18 260.28 100.358C260.496 100.536 260.845 100.682 261.326 100.795L262.712 101.114C263.515 101.299 264.114 101.585 264.508 101.972C264.902 102.358 265.099 102.86 265.099 103.477C265.099 104 264.947 104.466 264.644 104.875C264.345 105.28 263.926 105.598 263.388 105.83C262.854 106.061 262.235 106.176 261.53 106.176C260.553 106.176 259.756 105.968 259.138 105.551C258.521 105.131 258.142 104.534 258.002 103.761L259.644 103.511C259.746 103.939 259.956 104.263 260.275 104.483C260.593 104.699 261.008 104.807 261.519 104.807C262.076 104.807 262.521 104.691 262.854 104.46C263.188 104.225 263.354 103.939 263.354 103.602C263.354 103.33 263.252 103.1 263.047 102.915C262.847 102.729 262.538 102.589 262.121 102.494L260.644 102.17C259.83 101.985 259.227 101.689 258.837 101.284C258.451 100.879 258.258 100.366 258.258 99.7443C258.258 99.2292 258.402 98.7784 258.689 98.392C258.977 98.0057 259.375 97.7045 259.883 97.4886C260.39 97.2689 260.972 97.1591 261.627 97.1591C262.57 97.1591 263.313 97.3636 263.854 97.7727C264.396 98.178 264.754 98.7216 264.928 99.4034ZM271.714 94.3636L274.953 103.841H275.084L278.322 94.3636H280.22L276.032 106H274.004L269.816 94.3636H271.714ZM281.444 106V97.2727H283.143V106H281.444ZM282.302 95.9261C282.006 95.9261 281.753 95.8277 281.541 95.6307C281.332 95.4299 281.228 95.1913 281.228 94.9148C281.228 94.6345 281.332 94.3958 281.541 94.1989C281.753 93.9981 282.006 93.8977 282.302 93.8977C282.597 93.8977 282.849 93.9981 283.058 94.1989C283.27 94.3958 283.376 94.6345 283.376 94.9148C283.376 95.1913 283.27 95.4299 283.058 95.6307C282.849 95.8277 282.597 95.9261 282.302 95.9261ZM288.87 106.176C288.01 106.176 287.269 105.992 286.648 105.625C286.031 105.254 285.553 104.733 285.216 104.062C284.883 103.388 284.716 102.598 284.716 101.693C284.716 100.799 284.883 100.011 285.216 99.3295C285.553 98.6477 286.023 98.1155 286.625 97.733C287.231 97.3504 287.94 97.1591 288.75 97.1591C289.243 97.1591 289.72 97.2405 290.182 97.4034C290.644 97.5663 291.059 97.822 291.426 98.1705C291.794 98.5189 292.084 98.9716 292.296 99.5284C292.508 100.081 292.614 100.754 292.614 101.545V102.148H285.676V100.875H290.949C290.949 100.428 290.858 100.032 290.676 99.6875C290.495 99.339 290.239 99.0644 289.909 98.8636C289.584 98.6629 289.201 98.5625 288.762 98.5625C288.284 98.5625 287.868 98.6799 287.512 98.9148C287.159 99.1458 286.887 99.4489 286.694 99.8239C286.504 100.195 286.409 100.598 286.409 101.034V102.028C286.409 102.612 286.512 103.108 286.716 103.517C286.925 103.926 287.214 104.239 287.586 104.455C287.957 104.667 288.39 104.773 288.887 104.773C289.209 104.773 289.502 104.727 289.767 104.636C290.033 104.542 290.262 104.402 290.455 104.216C290.648 104.03 290.796 103.801 290.898 103.528L292.506 103.818C292.377 104.292 292.146 104.706 291.813 105.062C291.483 105.415 291.069 105.689 290.569 105.886C290.072 106.08 289.506 106.176 288.87 106.176ZM296.055 106L293.487 97.2727H295.243L296.953 103.682H297.038L298.754 97.2727H300.51L302.214 103.653H302.3L303.999 97.2727H305.754L303.192 106H301.459L299.686 99.6989H299.555L297.783 106H296.055ZM310.542 106.176C309.682 106.176 308.942 105.992 308.321 105.625C307.703 105.254 307.226 104.733 306.889 104.062C306.555 103.388 306.389 102.598 306.389 101.693C306.389 100.799 306.555 100.011 306.889 99.3295C307.226 98.6477 307.696 98.1155 308.298 97.733C308.904 97.3504 309.612 97.1591 310.423 97.1591C310.915 97.1591 311.393 97.2405 311.855 97.4034C312.317 97.5663 312.732 97.822 313.099 98.1705C313.466 98.5189 313.756 98.9716 313.968 99.5284C314.18 100.081 314.286 100.754 314.286 101.545V102.148H307.349V100.875H312.622C312.622 100.428 312.531 100.032 312.349 99.6875C312.167 99.339 311.911 99.0644 311.582 98.8636C311.256 98.6629 310.874 98.5625 310.434 98.5625C309.957 98.5625 309.54 98.6799 309.184 98.9148C308.832 99.1458 308.559 99.4489 308.366 99.8239C308.177 100.195 308.082 100.598 308.082 101.034V102.028C308.082 102.612 308.184 103.108 308.389 103.517C308.597 103.926 308.887 104.239 309.258 104.455C309.629 104.667 310.063 104.773 310.559 104.773C310.881 104.773 311.175 104.727 311.44 104.636C311.705 104.542 311.934 104.402 312.127 104.216C312.321 104.03 312.468 103.801 312.571 103.528L314.179 103.818C314.05 104.292 313.819 104.706 313.485 105.062C313.156 105.415 312.741 105.689 312.241 105.886C311.745 106.08 311.179 106.176 310.542 106.176ZM319.118 106.17C318.414 106.17 317.785 105.991 317.232 105.631C316.683 105.267 316.251 104.75 315.937 104.08C315.626 103.405 315.471 102.597 315.471 101.653C315.471 100.71 315.628 99.9034 315.942 99.233C316.261 98.5625 316.696 98.0492 317.249 97.6932C317.802 97.3371 318.429 97.1591 319.13 97.1591C319.672 97.1591 320.107 97.25 320.437 97.4318C320.77 97.6098 321.028 97.8182 321.209 98.0568C321.395 98.2955 321.539 98.5057 321.641 98.6875H321.743V94.3636H323.442V106H321.783V104.642H321.641C321.539 104.828 321.391 105.04 321.198 105.278C321.009 105.517 320.747 105.725 320.414 105.903C320.081 106.081 319.649 106.17 319.118 106.17ZM319.493 104.722C319.982 104.722 320.395 104.593 320.732 104.335C321.073 104.074 321.331 103.712 321.505 103.25C321.683 102.788 321.772 102.25 321.772 101.636C321.772 101.03 321.685 100.5 321.511 100.045C321.336 99.5909 321.081 99.2367 320.743 98.983C320.406 98.7292 319.99 98.6023 319.493 98.6023C318.982 98.6023 318.556 98.7348 318.215 99C317.874 99.2652 317.617 99.6269 317.442 100.085C317.272 100.544 317.187 101.061 317.187 101.636C317.187 102.22 317.274 102.744 317.448 103.21C317.622 103.676 317.88 104.045 318.221 104.318C318.565 104.587 318.99 104.722 319.493 104.722Z" fill="white"/>
</g>
<path d="M28 1.5H456.5C465.06 1.5 472 8.43959 472 17V185C472 193.56 465.06 200.5 456.5 200.5H28C19.4396 200.5 12.5 193.56 12.5 185V17C12.5 8.43958 19.4396 1.5 28 1.5Z" stroke="white" stroke-opacity="0.1" shape-rendering="crispEdges"/>
</g>
<defs>
<filter id="filter0_dddddd_51_3796" x="0" y="0" width="484.5" height="237" filterUnits="userSpaceOnUse" color-interpolation-filters="sRGB">
<feFlood flood-opacity="0" result="BackgroundImageFix"/>
<feColorMatrix in="SourceAlpha" type="matrix" values="0 0 0 0 0 0 0 0 0 0 0 0 0 0 0 0 0 0 127 0" result="hardAlpha"/>
<feMorphology radius="12" operator="erode" in="SourceAlpha" result="effect1_dropShadow_51_3796"/>
<feOffset dy="24"/>
<feGaussianBlur stdDeviation="12"/>
<feComposite in2="hardAlpha" operator="out"/>
<feColorMatrix type="matrix" values="0 0 0 0 0.054902 0 0 0 0 0.247059 0 0 0 0 0.494118 0 0 0 0.04 0"/>
<feBlend mode="normal" in2="BackgroundImageFix" result="effect1_dropShadow_51_3796"/>
<feColorMatrix in="SourceAlpha" type="matrix" values="0 0 0 0 0 0 0 0 0 0 0 0 0 0 0 0 0 0 127 0" result="hardAlpha"/>
<feMorphology radius="6" operator="erode" in="SourceAlpha" result="effect2_dropShadow_51_3796"/>
<feOffset dy="12"/>
<feGaussianBlur stdDeviation="6"/>
<feComposite in2="hardAlpha" operator="out"/>
<feColorMatrix type="matrix" values="0 0 0 0 0.054902 0 0 0 0 0.247059 0 0 0 0 0.494118 0 0 0 0.04 0"/>
<feBlend mode="normal" in2="effect1_dropShadow_51_3796" result="effect2_dropShadow_51_3796"/>
<feColorMatrix in="SourceAlpha" type="matrix" values="0 0 0 0 0 0 0 0 0 0 0 0 0 0 0 0 0 0 127 0" result="hardAlpha"/>
<feMorphology radius="3" operator="erode" in="SourceAlpha" result="effect3_dropShadow_51_3796"/>
<feOffset dy="6"/>
<feGaussianBlur stdDeviation="3"/>
<feComposite in2="hardAlpha" operator="out"/>
<feColorMatrix type="matrix" values="0 0 0 0 0.164706 0 0 0 0 0.2 0 0 0 0 0.27451 0 0 0 0.04 0"/>
<feBlend mode="normal" in2="effect2_dropShadow_51_3796" result="effect3_dropShadow_51_3796"/>
<feColorMatrix in="SourceAlpha" type="matrix" values="0 0 0 0 0 0 0 0 0 0 0 0 0 0 0 0 0 0 127 0" result="hardAlpha"/>
<feMorphology radius="1.5" operator="erode" in="SourceAlpha" result="effect4_dropShadow_51_3796"/>
<feOffset dy="3"/>
<feGaussianBlur stdDeviation="1.5"/>
<feComposite in2="hardAlpha" operator="out"/>
<feColorMatrix type="matrix" values="0 0 0 0 0.164706 0 0 0 0 0.2 0 0 0 0 0.27451 0 0 0 0.04 0"/>
<feBlend mode="normal" in2="effect3_dropShadow_51_3796" result="effect4_dropShadow_51_3796"/>
<feColorMatrix in="SourceAlpha" type="matrix" values="0 0 0 0 0 0 0 0 0 0 0 0 0 0 0 0 0 0 127 0" result="hardAlpha"/>
<feMorphology radius="0.5" operator="erode" in="SourceAlpha" result="effect5_dropShadow_51_3796"/>
<feOffset dy="1"/>
<feGaussianBlur stdDeviation="0.5"/>
<feComposite in2="hardAlpha" operator="out"/>
<feColorMatrix type="matrix" values="0 0 0 0 0.164706 0 0 0 0 0.2 0 0 0 0 0.270588 0 0 0 0.04 0"/>
<feBlend mode="normal" in2="effect4_dropShadow_51_3796" result="effect5_dropShadow_51_3796"/>
<feColorMatrix in="SourceAlpha" type="matrix" values="0 0 0 0 0 0 0 0 0 0 0 0 0 0 0 0 0 0 127 0" result="hardAlpha"/>
<feMorphology radius="1" operator="dilate" in="SourceAlpha" result="effect6_dropShadow_51_3796"/>
<feOffset/>
<feComposite in2="hardAlpha" operator="out"/>
<feColorMatrix type="matrix" values="0 0 0 0 0.054902 0 0 0 0 0.247059 0 0 0 0 0.494118 0 0 0 0.04 0"/>
<feBlend mode="normal" in2="effect5_dropShadow_51_3796" result="effect6_dropShadow_51_3796"/>
<feBlend mode="normal" in="SourceGraphic" in2="effect6_dropShadow_51_3796" result="shape"/>
</filter>
<linearGradient id="paint0_linear_51_3796" x1="242.5" y1="83" x2="242.5" y2="118" gradientUnits="userSpaceOnUse">
<stop stop-color="#30A5FF"/>
<stop offset="1" stop-color="#0090FF"/>
</linearGradient>
<clipPath id="clip0_51_3796">
<path d="M12 17C12 8.16344 19.1634 1 28 1H456.5C465.337 1 472.5 8.16344 472.5 17V185C472.5 193.837 465.337 201 456.5 201H28C19.1635 201 12 193.837 12 185V17Z" fill="white"/>
</clipPath>
<clipPath id="clip1_51_3796">
<rect width="18" height="18" fill="white" transform="translate(279.249 95.8511) rotate(6.06035)"/>
</clipPath>
<clipPath id="clip2_51_3796">
<rect width="18" height="18" fill="white" transform="translate(368.746 105.353) rotate(6.06035)"/>
</clipPath>
<clipPath id="clip3_51_3796">
<rect width="18" height="18" fill="white" transform="translate(381.521 -14.9709) rotate(6.06035)"/>
</clipPath>
<clipPath id="clip4_51_3796">
<rect width="18" height="18" fill="white" transform="translate(458.243 114.855) rotate(6.06035)"/>
</clipPath>
<clipPath id="clip5_51_3796">
<rect width="18" height="18" fill="white" transform="translate(471.018 -5.46899) rotate(6.06035)"/>
</clipPath>
<clipPath id="clip6_51_3796">
<rect width="18" height="18" fill="white" transform="translate(189.752 86.3496) rotate(6.06035)"/>
</clipPath>
<clipPath id="clip7_51_3796">
<rect width="18" height="18" fill="white" transform="translate(100.255 76.8477) rotate(6.06035)"/>
</clipPath>
<clipPath id="clip8_51_3796">
<rect width="18" height="18" fill="white" transform="translate(87.4803 197.171) rotate(6.06035)"/>
</clipPath>
<clipPath id="clip9_51_3796">
<rect width="18" height="18" fill="white" transform="translate(10.758 67.3457) rotate(6.06035)"/>
</clipPath>
<clipPath id="clip10_51_3796">
<rect width="18" height="18" fill="white" transform="translate(-2.01672 187.669) rotate(6.06035)"/>
</clipPath>
</defs>
</svg>
