<svg width="485" height="337" viewBox="0 0 485 337" fill="none" xmlns="http://www.w3.org/2000/svg">
<g filter="url(#filter0_dddddd_51_3118)">
<g clip-path="url(#clip0_51_3118)">
<path d="M12 17C12 8.16345 19.1634 1 28 1H456.5C465.337 1 472.5 8.16344 472.5 17V285C472.5 293.837 465.337 301 456.5 301H28C19.1635 301 12 293.837 12 285V17Z" fill="white" fill-opacity="0.8" shape-rendering="crispEdges"/>
<path d="M8 297C8 297 105.564 174.475 122.11 175.11C138.656 175.745 150.638 205.582 157.485 205.582C164.331 205.582 201.988 206.98 216.252 205.582C230.515 204.185 248.773 156.064 263.037 152.89C277.301 149.716 357.748 156.064 366.307 152.89C374.865 149.716 473 31 473 31" stroke="url(#paint0_linear_51_3118)" stroke-width="3" stroke-linecap="round"/>
<path d="M266.346 156.88C267.287 156.722 268.199 156.393 268.973 155.814C270.224 154.876 270.91 153.435 270.91 151.623C270.91 148.144 268.342 145.044 264.846 145.044C261.35 145.044 258.781 148.144 258.781 151.623C258.781 153.435 259.467 154.876 260.719 155.814C261.492 156.393 262.404 156.722 263.346 156.88V296.367H266.346V156.88Z" fill="white" stroke="url(#paint1_linear_51_3118)" stroke-width="3"/>
<g filter="url(#filter1_dddddd_51_3118)">
<rect x="126" y="46" width="252.833" height="69.6667" rx="10.2222" fill="white" shape-rendering="crispEdges"/>
<rect x="126.639" y="46.6389" width="251.556" height="68.3889" rx="9.58333" stroke="#F9F9F9" stroke-width="1.27778" shape-rendering="crispEdges"/>
<path d="M143.573 70.2222V69.4054L146.641 66.0476C147.001 65.6544 147.297 65.3125 147.53 65.0221C147.763 64.7287 147.935 64.4534 148.047 64.1963C148.162 63.9361 148.22 63.6639 148.22 63.3795C148.22 63.0528 148.141 62.77 147.984 62.531C147.829 62.292 147.618 62.1075 147.348 61.9774C147.079 61.8473 146.777 61.7823 146.441 61.7823C146.084 61.7823 145.772 61.8564 145.506 62.0046C145.243 62.1498 145.039 62.354 144.894 62.6172C144.751 62.8804 144.68 63.1889 144.68 63.5429H143.609C143.609 62.9984 143.735 62.5204 143.986 62.109C144.237 61.6976 144.579 61.3769 145.012 61.147C145.447 60.9171 145.936 60.8022 146.477 60.8022C147.022 60.8022 147.504 60.9171 147.925 61.147C148.345 61.3769 148.675 61.687 148.914 62.0772C149.153 62.4675 149.272 62.9016 149.272 63.3795C149.272 63.7214 149.21 64.0556 149.086 64.3823C148.965 64.706 148.754 65.0675 148.451 65.4668C148.152 65.8631 147.736 66.3471 147.203 66.9188L145.116 69.1513V69.2239H149.436V70.2222H143.573ZM153.885 60.8022C154.266 60.8052 154.647 60.8778 155.028 61.02C155.409 61.1622 155.757 61.3981 156.072 61.7278C156.387 62.0546 156.639 62.5007 156.83 63.0664C157.02 63.6321 157.116 64.3415 157.116 65.1945C157.116 66.0204 157.037 66.754 156.88 67.3953C156.725 68.0335 156.502 68.572 156.208 69.0106C155.918 69.4493 155.564 69.782 155.146 70.0089C154.732 70.2358 154.263 70.3492 153.74 70.3492C153.219 70.3492 152.755 70.2464 152.347 70.0407C151.941 69.8319 151.609 69.543 151.348 69.174C151.091 68.8019 150.926 68.3708 150.854 67.8808H151.961C152.061 68.3073 152.259 68.6597 152.555 68.938C152.855 69.2133 153.25 69.351 153.74 69.351C154.457 69.351 155.022 69.0379 155.437 68.4117C155.854 67.7855 156.063 66.9007 156.063 65.7572H155.99C155.821 66.0113 155.62 66.2306 155.387 66.4152C155.154 66.5997 154.895 66.7419 154.611 66.8417C154.327 66.9415 154.024 66.9914 153.703 66.9914C153.171 66.9914 152.682 66.8598 152.238 66.5967C151.796 66.3305 151.442 65.9659 151.176 65.5031C150.913 65.0372 150.781 64.5048 150.781 63.9059C150.781 63.3372 150.908 62.8169 151.162 62.345C151.419 61.87 151.779 61.4919 152.242 61.2106C152.708 60.9292 153.256 60.7931 153.885 60.8022ZM153.885 61.8005C153.504 61.8005 153.16 61.8957 152.855 62.0863C152.552 62.2739 152.312 62.528 152.133 62.8486C151.958 63.1663 151.87 63.5187 151.87 63.9059C151.87 64.2931 151.955 64.6455 152.124 64.9631C152.297 65.2777 152.531 65.5288 152.828 65.7164C153.127 65.9009 153.467 65.9932 153.849 65.9932C154.136 65.9932 154.404 65.9372 154.652 65.8253C154.9 65.7103 155.116 65.5545 155.301 65.3579C155.488 65.1582 155.635 64.9329 155.741 64.6818C155.847 64.4277 155.9 64.163 155.9 63.8877C155.9 63.5247 155.812 63.1844 155.636 62.8668C155.464 62.5491 155.225 62.292 154.919 62.0954C154.617 61.8988 154.272 61.8005 153.885 61.8005ZM165.448 60.9292H166.573V67.5722C166.573 68.1651 166.464 68.6688 166.247 69.0832C166.029 69.4977 165.722 69.8123 165.325 70.0271C164.929 70.2418 164.462 70.3492 163.923 70.3492C163.415 70.3492 162.963 70.257 162.567 70.0724C162.17 69.8849 161.859 69.6187 161.632 69.2738C161.405 68.929 161.291 68.5191 161.291 68.0441H162.399C162.399 68.3073 162.464 68.5372 162.594 68.7338C162.727 68.9274 162.908 69.0787 163.138 69.1876C163.368 69.2965 163.63 69.351 163.923 69.351C164.247 69.351 164.522 69.2829 164.749 69.1468C164.976 69.0106 165.148 68.811 165.266 68.5478C165.387 68.2816 165.448 67.9564 165.448 67.5722V60.9292ZM172.692 67.3726V63.2525H173.763V70.2222H172.692V69.0424H172.62C172.456 69.3963 172.202 69.6973 171.857 69.9454C171.512 70.1904 171.077 70.3129 170.55 70.3129C170.115 70.3129 169.728 70.2176 169.389 70.0271C169.05 69.8335 168.784 69.543 168.59 69.1558C168.397 68.7656 168.3 68.274 168.3 67.6811V63.2525H169.371V67.6085C169.371 68.1167 169.513 68.5221 169.797 68.8246C170.085 69.1271 170.451 69.2784 170.895 69.2784C171.162 69.2784 171.432 69.2103 171.708 69.0742C171.986 68.938 172.219 68.7293 172.406 68.448C172.597 68.1667 172.692 67.8082 172.692 67.3726ZM176.412 60.9292V70.2222H175.341V60.9292H176.412ZM178.68 72.8358C178.498 72.8358 178.336 72.8207 178.194 72.7904C178.052 72.7632 177.954 72.736 177.899 72.7088L178.172 71.7649C178.432 71.8315 178.662 71.8557 178.861 71.8375C179.061 71.8194 179.238 71.7302 179.392 71.5698C179.549 71.4125 179.693 71.1569 179.823 70.803L180.023 70.2585L177.445 63.2525H178.607L180.531 68.8064H180.604L182.528 63.2525H183.689L180.731 71.2386C180.598 71.5986 180.433 71.8965 180.236 72.1325C180.039 72.3715 179.811 72.5484 179.551 72.6634C179.294 72.7783 179.003 72.8358 178.68 72.8358ZM190.943 70.3492C190.259 70.3492 189.677 70.1632 189.196 69.7911C188.715 69.416 188.347 68.873 188.093 68.1621C187.839 67.4482 187.712 66.5861 187.712 65.5757C187.712 64.5714 187.839 63.7138 188.093 63.0029C188.35 62.289 188.719 61.7445 189.2 61.3694C189.684 60.9913 190.265 60.8022 190.943 60.8022C191.62 60.8022 192.2 60.9913 192.681 61.3694C193.165 61.7445 193.534 62.289 193.788 63.0029C194.045 63.7138 194.173 64.5714 194.173 65.5757C194.173 66.5861 194.046 67.4482 193.792 68.1621C193.538 68.873 193.171 69.416 192.69 69.7911C192.209 70.1632 191.626 70.3492 190.943 70.3492ZM190.943 69.351C191.62 69.351 192.147 69.0243 192.522 68.3708C192.897 67.7174 193.084 66.7857 193.084 65.5757C193.084 64.771 192.998 64.0859 192.826 63.5202C192.656 62.9545 192.411 62.5234 192.091 62.227C191.773 61.9305 191.39 61.7823 190.943 61.7823C190.271 61.7823 189.746 62.1135 189.368 62.776C188.99 63.4355 188.801 64.3687 188.801 65.5757C188.801 66.3804 188.886 67.064 189.055 67.6267C189.224 68.1893 189.468 68.6174 189.786 68.9108C190.106 69.2042 190.492 69.351 190.943 69.351ZM198.545 70.3492C197.862 70.3492 197.279 70.1632 196.798 69.7911C196.317 69.416 195.95 68.873 195.696 68.1621C195.442 67.4482 195.315 66.5861 195.315 65.5757C195.315 64.5714 195.442 63.7138 195.696 63.0029C195.953 62.289 196.322 61.7445 196.803 61.3694C197.287 60.9913 197.868 60.8022 198.545 60.8022C199.223 60.8022 199.802 60.9913 200.283 61.3694C200.767 61.7445 201.136 62.289 201.39 63.0029C201.648 63.7138 201.776 64.5714 201.776 65.5757C201.776 66.5861 201.649 67.4482 201.395 68.1621C201.141 68.873 200.773 69.416 200.292 69.7911C199.811 70.1632 199.229 70.3492 198.545 70.3492ZM198.545 69.351C199.223 69.351 199.749 69.0243 200.124 68.3708C200.5 67.7174 200.687 66.7857 200.687 65.5757C200.687 64.771 200.601 64.0859 200.429 63.5202C200.259 62.9545 200.014 62.5234 199.693 62.227C199.376 61.9305 198.993 61.7823 198.545 61.7823C197.874 61.7823 197.349 62.1135 196.971 62.776C196.593 63.4355 196.404 64.3687 196.404 65.5757C196.404 66.3804 196.488 67.064 196.658 67.6267C196.827 68.1893 197.071 68.6174 197.388 68.9108C197.709 69.2042 198.095 69.351 198.545 69.351ZM203.916 69.0333C203.692 69.0333 203.5 68.9532 203.339 68.7928C203.179 68.6325 203.099 68.4404 203.099 68.2166C203.099 67.9927 203.179 67.8006 203.339 67.6403C203.5 67.48 203.692 67.3998 203.916 67.3998C204.14 67.3998 204.332 67.48 204.492 67.6403C204.652 67.8006 204.732 67.9927 204.732 68.2166C204.732 68.3648 204.695 68.5009 204.619 68.6249C204.546 68.749 204.448 68.8488 204.324 68.9244C204.203 68.997 204.067 69.0333 203.916 69.0333ZM203.916 64.3324C203.692 64.3324 203.5 64.2522 203.339 64.0919C203.179 63.9316 203.099 63.7395 203.099 63.5156C203.099 63.2918 203.179 63.0997 203.339 62.9394C203.5 62.7791 203.692 62.6989 203.916 62.6989C204.14 62.6989 204.332 62.7791 204.492 62.9394C204.652 63.0997 204.732 63.2918 204.732 63.5156C204.732 63.6639 204.695 63.8 204.619 63.924C204.546 64.0481 204.448 64.1479 204.324 64.2235C204.203 64.2961 204.067 64.3324 203.916 64.3324ZM209.284 70.3492C208.6 70.3492 208.018 70.1632 207.537 69.7911C207.056 69.416 206.688 68.873 206.434 68.1621C206.18 67.4482 206.053 66.5861 206.053 65.5757C206.053 64.5714 206.18 63.7138 206.434 63.0029C206.691 62.289 207.06 61.7445 207.541 61.3694C208.025 60.9913 208.606 60.8022 209.284 60.8022C209.961 60.8022 210.541 60.9913 211.022 61.3694C211.506 61.7445 211.875 62.289 212.129 63.0029C212.386 63.7138 212.514 64.5714 212.514 65.5757C212.514 66.5861 212.387 67.4482 212.133 68.1621C211.879 68.873 211.512 69.416 211.031 69.7911C210.55 70.1632 209.967 70.3492 209.284 70.3492ZM209.284 69.351C209.961 69.351 210.488 69.0243 210.863 68.3708C211.238 67.7174 211.425 66.7857 211.425 65.5757C211.425 64.771 211.339 64.0859 211.167 63.5202C210.997 62.9545 210.752 62.5234 210.432 62.227C210.114 61.9305 209.731 61.7823 209.284 61.7823C208.612 61.7823 208.087 62.1135 207.709 62.776C207.331 63.4355 207.142 64.3687 207.142 65.5757C207.142 66.3804 207.227 67.064 207.396 67.6267C207.566 68.1893 207.809 68.6174 208.127 68.9108C208.447 69.2042 208.833 69.351 209.284 69.351ZM216.887 70.3492C216.203 70.3492 215.621 70.1632 215.14 69.7911C214.659 69.416 214.291 68.873 214.037 68.1621C213.783 67.4482 213.656 66.5861 213.656 65.5757C213.656 64.5714 213.783 63.7138 214.037 63.0029C214.294 62.289 214.663 61.7445 215.144 61.3694C215.628 60.9913 216.209 60.8022 216.887 60.8022C217.564 60.8022 218.143 60.9913 218.624 61.3694C219.108 61.7445 219.477 62.289 219.732 63.0029C219.989 63.7138 220.117 64.5714 220.117 65.5757C220.117 66.5861 219.99 67.4482 219.736 68.1621C219.482 68.873 219.114 69.416 218.633 69.7911C218.153 70.1632 217.57 70.3492 216.887 70.3492ZM216.887 69.351C217.564 69.351 218.091 69.0243 218.466 68.3708C218.841 67.7174 219.028 66.7857 219.028 65.5757C219.028 64.771 218.942 64.0859 218.77 63.5202C218.6 62.9545 218.355 62.5234 218.035 62.227C217.717 61.9305 217.334 61.7823 216.887 61.7823C216.215 61.7823 215.69 62.1135 215.312 62.776C214.934 63.4355 214.745 64.3687 214.745 65.5757C214.745 66.3804 214.83 67.064 214.999 67.6267C215.168 68.1893 215.412 68.6174 215.729 68.9108C216.05 69.2042 216.436 69.351 216.887 69.351Z" fill="#7A7A7A"/>
<path d="M150.912 86.7804C152.343 87.0462 153.651 88.0684 153.651 90.2151C153.651 92.6684 151.566 94.3448 148.336 94.3448C145.105 94.3448 143.04 92.6479 143.04 89.7039H145.289C145.31 91.4622 146.639 92.4639 148.458 92.4639C150.073 92.4639 151.341 91.5439 151.341 90.0719C151.341 88.7431 150.278 87.8844 148.315 87.8844H147.007V86.0035H148.192C150.073 86.0035 151.014 85.0631 151.014 83.7546C151.014 82.4462 149.848 81.6693 148.356 81.6693C146.761 81.6693 145.555 82.6506 145.535 84.1431H143.306C143.347 81.5671 145.392 79.7884 148.356 79.7884C151.423 79.7884 153.304 81.3217 153.304 83.6115C153.304 85.3697 152.281 86.4124 150.912 86.7804ZM160.871 84.5724C163.651 84.5724 165.655 86.5351 165.655 89.4177C165.655 92.6275 163.263 94.3244 160.462 94.3244C157.211 94.3244 155.29 92.2595 155.147 89.7039H157.395C157.559 91.1964 158.683 92.4231 160.462 92.4231C161.955 92.4231 163.365 91.4008 163.365 89.4177C163.365 87.6799 162.241 86.4328 160.483 86.4328C159.644 86.4328 158.131 86.6986 157.6 88.1911L155.412 88.1502L155.862 79.9111H164.796V81.8942H157.927L157.682 85.7786C158.479 84.9199 159.563 84.5724 160.871 84.5724ZM167.697 79.7884C168.821 79.7884 169.537 80.8106 169.537 82.1395C169.537 84.1226 168.269 85.2471 166.245 85.2675V84.0613C167.533 84.0613 168.044 83.2639 168.044 82.5484C168.044 82.4462 168.044 82.3644 168.024 82.2622C167.84 82.4053 167.595 82.4871 167.349 82.4871C166.675 82.4871 166.143 82.0373 166.143 81.1786C166.143 80.4017 166.756 79.7884 167.697 79.7884ZM169.091 90.9102V88.9884L175.981 79.9111H178.638V88.9475H180.805V90.9102H178.638V94.2222H176.41V90.9102H169.091ZM176.41 82.3848L171.421 88.9475H176.41V82.3848ZM187.485 84.5724C190.265 84.5724 192.269 86.5351 192.269 89.4177C192.269 92.6275 189.877 94.3244 187.076 94.3244C183.825 94.3244 181.903 92.2595 181.76 89.7039H184.009C184.173 91.1964 185.297 92.4231 187.076 92.4231C188.568 92.4231 189.979 91.4008 189.979 89.4177C189.979 87.6799 188.855 86.4328 187.096 86.4328C186.258 86.4328 184.745 86.6986 184.214 88.1911L182.026 88.1502L182.476 79.9111H191.41V81.8942H184.541L184.295 85.7786C185.093 84.9199 186.176 84.5724 187.485 84.5724ZM201.144 86.7804C202.575 87.0462 203.884 88.0684 203.884 90.2151C203.884 92.6684 201.798 94.3448 198.568 94.3448C195.338 94.3448 193.273 92.6479 193.273 89.7039H195.522C195.542 91.4622 196.871 92.4639 198.691 92.4639C200.306 92.4639 201.574 91.5439 201.574 90.0719C201.574 88.7431 200.51 87.8844 198.548 87.8844H197.239V86.0035H198.425C200.306 86.0035 201.246 85.0631 201.246 83.7546C201.246 82.4462 200.081 81.6693 198.589 81.6693C196.994 81.6693 195.788 82.6506 195.767 84.1431H193.539C193.58 81.5671 195.624 79.7884 198.589 79.7884C201.655 79.7884 203.536 81.3217 203.536 83.6115C203.536 85.3697 202.514 86.4124 201.144 86.7804ZM211.183 94.2222V79.9111H220.321V81.9964H213.534V86.1466H219.135V88.1706H213.534V94.2222H211.183ZM226.088 94.3448C222.898 94.3448 220.752 92.1982 220.752 88.9884C220.752 85.7991 222.898 83.6319 226.088 83.6319C229.277 83.6319 231.424 85.7991 231.424 88.9884C231.424 92.1982 229.277 94.3448 226.088 94.3448ZM226.088 92.4639C227.948 92.4639 229.175 91.0124 229.175 88.9884C229.175 86.9644 227.948 85.5128 226.088 85.5128C224.227 85.5128 223.021 86.9644 223.021 88.9884C223.021 91.0124 224.227 92.4639 226.088 92.4639ZM233.199 94.2222V79.9111H235.407V94.2222H233.199ZM237.571 94.2222V79.9111H239.779V94.2222H237.571ZM246.891 94.3448C243.702 94.3448 241.555 92.1982 241.555 88.9884C241.555 85.7991 243.702 83.6319 246.891 83.6319C250.081 83.6319 252.227 85.7991 252.227 88.9884C252.227 92.1982 250.081 94.3448 246.891 94.3448ZM246.891 92.4639C248.752 92.4639 249.978 91.0124 249.978 88.9884C249.978 86.9644 248.752 85.5128 246.891 85.5128C245.031 85.5128 243.825 86.9644 243.825 88.9884C243.825 91.0124 245.031 92.4639 246.891 92.4639ZM256.056 94.2222L252.642 83.7546H254.972L257.364 91.7688L259.756 83.7546H261.78L264.07 91.7688L266.544 83.7546H268.793L265.317 94.2222H262.946L260.738 87.1075L258.448 94.2222H256.056ZM274.564 94.3448C271.272 94.3448 269.207 92.2186 269.207 89.0088C269.207 85.7786 271.272 83.6319 274.359 83.6319C277.385 83.6319 279.409 85.5537 279.47 88.6204C279.47 88.8862 279.45 89.1724 279.409 89.4586H271.517V89.6017C271.579 91.3804 272.703 92.5457 274.441 92.5457C275.79 92.5457 276.772 91.8711 277.078 90.7057H279.286C278.918 92.7706 277.16 94.3448 274.564 94.3448ZM271.599 87.8435H277.181C276.997 86.2897 275.913 85.4106 274.38 85.4106C272.969 85.4106 271.763 86.3511 271.599 87.8435ZM286.551 83.7546H287.041V85.8195H286.06C284.097 85.8195 283.463 87.3528 283.463 88.9679V94.2222H281.255V83.7546H283.218L283.463 85.3288C283.995 84.4497 284.833 83.7546 286.551 83.7546ZM287.774 90.7671H289.941C290.022 91.8506 290.963 92.6275 292.558 92.6275C293.927 92.6275 294.827 92.0959 294.827 91.2577C294.827 90.1333 293.866 90.0515 292.251 89.8471C289.859 89.5608 287.978 89.0497 287.978 86.8826C287.978 84.8995 289.757 83.6115 292.271 83.6319C294.847 83.6319 296.667 84.8177 296.81 86.9644H294.643C294.52 86.0035 293.621 85.3288 292.312 85.3288C291.004 85.3288 290.145 85.8604 290.145 86.6986C290.145 87.6799 291.147 87.8026 292.66 87.9662C295.052 88.2524 296.994 88.7431 296.994 91.0737C296.994 93.0773 295.093 94.3448 292.558 94.3448C289.757 94.3448 287.835 93.0364 287.774 90.7671Z" fill="#242424"/>
<rect x="306.278" y="74.2222" width="57.2222" height="26.1111" rx="5.11111" fill="url(#paint2_linear_51_3118)"/>
<path d="M315.917 90.9047V83.543H317.382V90.9047H315.917ZM312.971 87.9535V86.4942H320.333V87.9535H312.971ZM326.562 92.9303C325.814 92.9303 325.146 92.8014 324.558 92.5437C323.974 92.286 323.511 91.9284 323.17 91.471C322.832 91.01 322.651 90.4764 322.625 89.8702H324.335C324.357 90.2005 324.467 90.4873 324.667 90.7305C324.87 90.9701 325.135 91.1552 325.462 91.2859C325.789 91.4166 326.152 91.4819 326.551 91.4819C326.99 91.4819 327.379 91.4057 327.716 91.2532C328.057 91.1007 328.324 90.8884 328.517 90.6161C328.709 90.3403 328.805 90.0226 328.805 89.6632C328.805 89.2894 328.709 88.9608 328.517 88.6777C328.328 88.3909 328.05 88.1659 327.684 88.0025C327.321 87.8391 326.881 87.7575 326.366 87.7575H325.424V86.3853H326.366C326.78 86.3853 327.143 86.3109 327.455 86.1621C327.771 86.0132 328.018 85.8063 328.195 85.5413C328.373 85.2727 328.462 84.9587 328.462 84.5993C328.462 84.2545 328.384 83.955 328.228 83.7009C328.076 83.4432 327.858 83.2417 327.575 83.0965C327.295 82.9513 326.965 82.8787 326.584 82.8787C326.221 82.8787 325.881 82.9458 325.565 83.0802C325.253 83.2108 324.999 83.3996 324.803 83.6464C324.607 83.8897 324.502 84.1819 324.487 84.5231H322.859C322.877 83.9205 323.055 83.3905 323.393 82.9331C323.734 82.4757 324.184 82.1182 324.743 81.8605C325.302 81.6027 325.923 81.4739 326.605 81.4739C327.321 81.4739 327.938 81.6136 328.457 81.8931C328.98 82.169 329.382 82.5375 329.666 82.9985C329.952 83.4595 330.094 83.9641 330.09 84.5122C330.094 85.1366 329.92 85.6666 329.568 86.1022C329.219 86.5378 328.754 86.83 328.174 86.9788V87.0659C328.914 87.1785 329.488 87.4725 329.894 87.948C330.304 88.4236 330.508 89.0135 330.504 89.7177C330.508 90.3312 330.337 90.8811 329.992 91.3676C329.651 91.854 329.185 92.237 328.593 92.5165C328.001 92.7924 327.324 92.9303 326.562 92.9303ZM333.327 92.8813C333.03 92.8813 332.774 92.776 332.56 92.5655C332.345 92.3513 332.238 92.0936 332.238 91.7923C332.238 91.4946 332.345 91.2405 332.56 91.03C332.774 90.8158 333.03 90.7087 333.327 90.7087C333.625 90.7087 333.881 90.8158 334.095 91.03C334.309 91.2405 334.416 91.4946 334.416 91.7923C334.416 91.9919 334.366 92.1752 334.264 92.3422C334.166 92.5056 334.035 92.6363 333.872 92.7343C333.709 92.8323 333.527 92.8813 333.327 92.8813ZM336.341 90.5998V89.2385L341.16 81.6263H342.233V83.6301H341.552L338.105 89.0861V89.1732H344.71V90.5998H336.341ZM341.628 92.7778V90.186L341.639 89.5652V81.6263H343.235V92.7778H341.628ZM352.429 90.6869V90.0989C352.429 89.6778 352.516 89.293 352.69 88.9445C352.868 88.5924 353.126 88.3111 353.463 88.1005C353.805 87.8863 354.217 87.7793 354.699 87.7793C355.193 87.7793 355.607 87.8845 355.941 88.0951C356.275 88.3056 356.527 88.5869 356.698 88.9391C356.872 89.2912 356.959 89.6778 356.959 90.0989V90.6869C356.959 91.108 356.872 91.4946 356.698 91.8467C356.523 92.1952 356.268 92.4765 355.93 92.6907C355.596 92.9013 355.186 93.0065 354.699 93.0065C354.209 93.0065 353.795 92.9013 353.458 92.6907C353.12 92.4765 352.864 92.1952 352.69 91.8467C352.516 91.4946 352.429 91.108 352.429 90.6869ZM353.697 90.0989V90.6869C353.697 90.9991 353.772 91.2823 353.921 91.5364C354.07 91.7905 354.329 91.9175 354.699 91.9175C355.066 91.9175 355.322 91.7905 355.467 91.5364C355.612 91.2823 355.685 90.9991 355.685 90.6869V90.0989C355.685 89.7867 355.614 89.5035 355.473 89.2494C355.335 88.9953 355.077 88.8683 354.699 88.8683C354.336 88.8683 354.079 88.9953 353.926 89.2494C353.774 89.5035 353.697 89.7867 353.697 90.0989ZM346.82 84.3053V83.7172C346.82 83.2961 346.907 82.9095 347.082 82.5574C347.26 82.2053 347.517 81.924 347.855 81.7134C348.196 81.5029 348.608 81.3976 349.091 81.3976C349.585 81.3976 349.998 81.5029 350.332 81.7134C350.666 81.924 350.919 82.2053 351.089 82.5574C351.26 82.9095 351.345 83.2961 351.345 83.7172V84.3053C351.345 84.7264 351.258 85.113 351.084 85.4651C350.913 85.8136 350.659 86.0949 350.322 86.3091C349.988 86.5196 349.577 86.6249 349.091 86.6249C348.597 86.6249 348.182 86.5196 347.844 86.3091C347.51 86.0949 347.256 85.8136 347.082 85.4651C346.907 85.113 346.82 84.7264 346.82 84.3053ZM348.094 83.7172V84.3053C348.094 84.6175 348.167 84.9006 348.312 85.1547C348.461 85.4088 348.721 85.5359 349.091 85.5359C349.454 85.5359 349.708 85.4088 349.853 85.1547C350.002 84.9006 350.076 84.6175 350.076 84.3053V83.7172C350.076 83.405 350.006 83.1219 349.864 82.8678C349.723 82.6137 349.465 82.4866 349.091 82.4866C348.728 82.4866 348.47 82.6137 348.318 82.8678C348.169 83.1219 348.094 83.405 348.094 83.7172ZM347.338 92.7778L355.004 81.6263H356.306L348.639 92.7778H347.338Z" fill="white"/>
</g>
</g>
</g>
<defs>
<filter id="filter0_dddddd_51_3118" x="0" y="0" width="484.5" height="337" filterUnits="userSpaceOnUse" color-interpolation-filters="sRGB">
<feFlood flood-opacity="0" result="BackgroundImageFix"/>
<feColorMatrix in="SourceAlpha" type="matrix" values="0 0 0 0 0 0 0 0 0 0 0 0 0 0 0 0 0 0 127 0" result="hardAlpha"/>
<feMorphology radius="12" operator="erode" in="SourceAlpha" result="effect1_dropShadow_51_3118"/>
<feOffset dy="24"/>
<feGaussianBlur stdDeviation="12"/>
<feComposite in2="hardAlpha" operator="out"/>
<feColorMatrix type="matrix" values="0 0 0 0 0.054902 0 0 0 0 0.247059 0 0 0 0 0.494118 0 0 0 0.04 0"/>
<feBlend mode="normal" in2="BackgroundImageFix" result="effect1_dropShadow_51_3118"/>
<feColorMatrix in="SourceAlpha" type="matrix" values="0 0 0 0 0 0 0 0 0 0 0 0 0 0 0 0 0 0 127 0" result="hardAlpha"/>
<feMorphology radius="6" operator="erode" in="SourceAlpha" result="effect2_dropShadow_51_3118"/>
<feOffset dy="12"/>
<feGaussianBlur stdDeviation="6"/>
<feComposite in2="hardAlpha" operator="out"/>
<feColorMatrix type="matrix" values="0 0 0 0 0.054902 0 0 0 0 0.247059 0 0 0 0 0.494118 0 0 0 0.04 0"/>
<feBlend mode="normal" in2="effect1_dropShadow_51_3118" result="effect2_dropShadow_51_3118"/>
<feColorMatrix in="SourceAlpha" type="matrix" values="0 0 0 0 0 0 0 0 0 0 0 0 0 0 0 0 0 0 127 0" result="hardAlpha"/>
<feMorphology radius="3" operator="erode" in="SourceAlpha" result="effect3_dropShadow_51_3118"/>
<feOffset dy="6"/>
<feGaussianBlur stdDeviation="3"/>
<feComposite in2="hardAlpha" operator="out"/>
<feColorMatrix type="matrix" values="0 0 0 0 0.164706 0 0 0 0 0.2 0 0 0 0 0.27451 0 0 0 0.04 0"/>
<feBlend mode="normal" in2="effect2_dropShadow_51_3118" result="effect3_dropShadow_51_3118"/>
<feColorMatrix in="SourceAlpha" type="matrix" values="0 0 0 0 0 0 0 0 0 0 0 0 0 0 0 0 0 0 127 0" result="hardAlpha"/>
<feMorphology radius="1.5" operator="erode" in="SourceAlpha" result="effect4_dropShadow_51_3118"/>
<feOffset dy="3"/>
<feGaussianBlur stdDeviation="1.5"/>
<feComposite in2="hardAlpha" operator="out"/>
<feColorMatrix type="matrix" values="0 0 0 0 0.164706 0 0 0 0 0.2 0 0 0 0 0.27451 0 0 0 0.04 0"/>
<feBlend mode="normal" in2="effect3_dropShadow_51_3118" result="effect4_dropShadow_51_3118"/>
<feColorMatrix in="SourceAlpha" type="matrix" values="0 0 0 0 0 0 0 0 0 0 0 0 0 0 0 0 0 0 127 0" result="hardAlpha"/>
<feMorphology radius="0.5" operator="erode" in="SourceAlpha" result="effect5_dropShadow_51_3118"/>
<feOffset dy="1"/>
<feGaussianBlur stdDeviation="0.5"/>
<feComposite in2="hardAlpha" operator="out"/>
<feColorMatrix type="matrix" values="0 0 0 0 0.164706 0 0 0 0 0.2 0 0 0 0 0.270588 0 0 0 0.04 0"/>
<feBlend mode="normal" in2="effect4_dropShadow_51_3118" result="effect5_dropShadow_51_3118"/>
<feColorMatrix in="SourceAlpha" type="matrix" values="0 0 0 0 0 0 0 0 0 0 0 0 0 0 0 0 0 0 127 0" result="hardAlpha"/>
<feMorphology radius="1" operator="dilate" in="SourceAlpha" result="effect6_dropShadow_51_3118"/>
<feOffset/>
<feComposite in2="hardAlpha" operator="out"/>
<feColorMatrix type="matrix" values="0 0 0 0 0.054902 0 0 0 0 0.247059 0 0 0 0 0.494118 0 0 0 0.04 0"/>
<feBlend mode="normal" in2="effect5_dropShadow_51_3118" result="effect6_dropShadow_51_3118"/>
<feBlend mode="normal" in="SourceGraphic" in2="effect6_dropShadow_51_3118" result="shape"/>
</filter>
<filter id="filter1_dddddd_51_3118" x="114" y="45" width="276.833" height="106.667" filterUnits="userSpaceOnUse" color-interpolation-filters="sRGB">
<feFlood flood-opacity="0" result="BackgroundImageFix"/>
<feColorMatrix in="SourceAlpha" type="matrix" values="0 0 0 0 0 0 0 0 0 0 0 0 0 0 0 0 0 0 127 0" result="hardAlpha"/>
<feMorphology radius="12" operator="erode" in="SourceAlpha" result="effect1_dropShadow_51_3118"/>
<feOffset dy="24"/>
<feGaussianBlur stdDeviation="12"/>
<feComposite in2="hardAlpha" operator="out"/>
<feColorMatrix type="matrix" values="0 0 0 0 0.054902 0 0 0 0 0.247059 0 0 0 0 0.494118 0 0 0 0.04 0"/>
<feBlend mode="normal" in2="BackgroundImageFix" result="effect1_dropShadow_51_3118"/>
<feColorMatrix in="SourceAlpha" type="matrix" values="0 0 0 0 0 0 0 0 0 0 0 0 0 0 0 0 0 0 127 0" result="hardAlpha"/>
<feMorphology radius="6" operator="erode" in="SourceAlpha" result="effect2_dropShadow_51_3118"/>
<feOffset dy="12"/>
<feGaussianBlur stdDeviation="6"/>
<feComposite in2="hardAlpha" operator="out"/>
<feColorMatrix type="matrix" values="0 0 0 0 0.054902 0 0 0 0 0.247059 0 0 0 0 0.494118 0 0 0 0.04 0"/>
<feBlend mode="normal" in2="effect1_dropShadow_51_3118" result="effect2_dropShadow_51_3118"/>
<feColorMatrix in="SourceAlpha" type="matrix" values="0 0 0 0 0 0 0 0 0 0 0 0 0 0 0 0 0 0 127 0" result="hardAlpha"/>
<feMorphology radius="3" operator="erode" in="SourceAlpha" result="effect3_dropShadow_51_3118"/>
<feOffset dy="6"/>
<feGaussianBlur stdDeviation="3"/>
<feComposite in2="hardAlpha" operator="out"/>
<feColorMatrix type="matrix" values="0 0 0 0 0.164706 0 0 0 0 0.2 0 0 0 0 0.27451 0 0 0 0.04 0"/>
<feBlend mode="normal" in2="effect2_dropShadow_51_3118" result="effect3_dropShadow_51_3118"/>
<feColorMatrix in="SourceAlpha" type="matrix" values="0 0 0 0 0 0 0 0 0 0 0 0 0 0 0 0 0 0 127 0" result="hardAlpha"/>
<feMorphology radius="1.5" operator="erode" in="SourceAlpha" result="effect4_dropShadow_51_3118"/>
<feOffset dy="3"/>
<feGaussianBlur stdDeviation="1.5"/>
<feComposite in2="hardAlpha" operator="out"/>
<feColorMatrix type="matrix" values="0 0 0 0 0.164706 0 0 0 0 0.2 0 0 0 0 0.27451 0 0 0 0.04 0"/>
<feBlend mode="normal" in2="effect3_dropShadow_51_3118" result="effect4_dropShadow_51_3118"/>
<feColorMatrix in="SourceAlpha" type="matrix" values="0 0 0 0 0 0 0 0 0 0 0 0 0 0 0 0 0 0 127 0" result="hardAlpha"/>
<feMorphology radius="0.5" operator="erode" in="SourceAlpha" result="effect5_dropShadow_51_3118"/>
<feOffset dy="1"/>
<feGaussianBlur stdDeviation="0.5"/>
<feComposite in2="hardAlpha" operator="out"/>
<feColorMatrix type="matrix" values="0 0 0 0 0.164706 0 0 0 0 0.2 0 0 0 0 0.270588 0 0 0 0.04 0"/>
<feBlend mode="normal" in2="effect4_dropShadow_51_3118" result="effect5_dropShadow_51_3118"/>
<feColorMatrix in="SourceAlpha" type="matrix" values="0 0 0 0 0 0 0 0 0 0 0 0 0 0 0 0 0 0 127 0" result="hardAlpha"/>
<feMorphology radius="1" operator="dilate" in="SourceAlpha" result="effect6_dropShadow_51_3118"/>
<feOffset/>
<feComposite in2="hardAlpha" operator="out"/>
<feColorMatrix type="matrix" values="0 0 0 0 0.054902 0 0 0 0 0.247059 0 0 0 0 0.494118 0 0 0 0.04 0"/>
<feBlend mode="normal" in2="effect5_dropShadow_51_3118" result="effect6_dropShadow_51_3118"/>
<feBlend mode="normal" in="SourceGraphic" in2="effect6_dropShadow_51_3118" result="shape"/>
</filter>
<linearGradient id="paint0_linear_51_3118" x1="240.5" y1="31" x2="240.5" y2="297" gradientUnits="userSpaceOnUse">
<stop stop-color="#30A5FF"/>
<stop offset="1" stop-color="#0090FF"/>
</linearGradient>
<linearGradient id="paint1_linear_51_3118" x1="264.846" y1="146.544" x2="264.846" y2="296.367" gradientUnits="userSpaceOnUse">
<stop stop-color="#30A5FF"/>
<stop offset="1" stop-color="#0090FF"/>
</linearGradient>
<linearGradient id="paint2_linear_51_3118" x1="334.889" y1="74.2222" x2="334.889" y2="100.333" gradientUnits="userSpaceOnUse">
<stop stop-color="#30A5FF"/>
<stop offset="1" stop-color="#0090FF"/>
</linearGradient>
<clipPath id="clip0_51_3118">
<path d="M12 17C12 8.16345 19.1634 1 28 1H456.5C465.337 1 472.5 8.16344 472.5 17V285C472.5 293.837 465.337 301 456.5 301H28C19.1635 301 12 293.837 12 285V17Z" fill="white"/>
</clipPath>
</defs>
</svg>
