<svg width="33" height="15" viewBox="0 0 33 15" fill="none" xmlns="http://www.w3.org/2000/svg">
<path d="M0.00426134 11V0.818182H1.84872V9.45384H6.3331V11H0.00426134ZM11.1854 11.1491C10.4396 11.1491 9.79332 10.9851 9.24645 10.657C8.69957 10.3288 8.27533 9.86979 7.97372 9.27983C7.67543 8.68987 7.52628 8.00047 7.52628 7.21165C7.52628 6.42282 7.67543 5.73177 7.97372 5.13849C8.27533 4.54522 8.69957 4.08452 9.24645 3.75639C9.79332 3.42827 10.4396 3.2642 11.1854 3.2642C11.9311 3.2642 12.5774 3.42827 13.1243 3.75639C13.6712 4.08452 14.0938 4.54522 14.392 5.13849C14.6937 5.73177 14.8445 6.42282 14.8445 7.21165C14.8445 8.00047 14.6937 8.68987 14.392 9.27983C14.0938 9.86979 13.6712 10.3288 13.1243 10.657C12.5774 10.9851 11.9311 11.1491 11.1854 11.1491ZM11.1953 9.70739C11.5997 9.70739 11.9377 9.59635 12.2095 9.37429C12.4813 9.14891 12.6835 8.8473 12.8161 8.46946C12.9519 8.09162 13.0199 7.67069 13.0199 7.20668C13.0199 6.73935 12.9519 6.31676 12.8161 5.93892C12.6835 5.55777 12.4813 5.2545 12.2095 5.02912C11.9377 4.80374 11.5997 4.69105 11.1953 4.69105C10.781 4.69105 10.4363 4.80374 10.1612 5.02912C9.88944 5.2545 9.68561 5.55777 9.54972 5.93892C9.41714 6.31676 9.35085 6.73935 9.35085 7.20668C9.35085 7.67069 9.41714 8.09162 9.54972 8.46946C9.68561 8.8473 9.88944 9.14891 10.1612 9.37429C10.4363 9.59635 10.781 9.70739 11.1953 9.70739ZM19.693 14.0227C19.0467 14.0227 18.4915 13.9349 18.0275 13.7592C17.5635 13.5869 17.1906 13.3549 16.9089 13.0632C16.6272 12.7715 16.4316 12.4484 16.3223 12.0938L17.943 11.701C18.0159 11.8501 18.122 11.9976 18.2612 12.1435C18.4004 12.2926 18.5877 12.4152 18.823 12.5114C19.0616 12.6108 19.3616 12.6605 19.7228 12.6605C20.2333 12.6605 20.6558 12.5362 20.9906 12.2876C21.3253 12.0424 21.4927 11.638 21.4927 11.0746V9.62784H21.4032C21.3104 9.81345 21.1745 10.004 20.9956 10.1996C20.8199 10.3951 20.5862 10.5592 20.2946 10.6918C20.0062 10.8243 19.6433 10.8906 19.2058 10.8906C18.6191 10.8906 18.0872 10.7531 17.6099 10.478C17.1359 10.1996 16.7581 9.78527 16.4764 9.23509C16.198 8.68158 16.0588 7.98887 16.0588 7.15696C16.0588 6.31842 16.198 5.6108 16.4764 5.03409C16.7581 4.45407 17.1376 4.01491 17.6149 3.71662C18.0922 3.41501 18.6241 3.2642 19.2108 3.2642C19.6582 3.2642 20.0261 3.34044 20.3145 3.4929C20.6061 3.64205 20.8381 3.82268 21.0105 4.0348C21.1828 4.24361 21.3137 4.44081 21.4032 4.62642H21.5027V3.36364H23.2775V11.1243C23.2775 11.7772 23.1217 12.3175 22.8102 12.745C22.4986 13.1726 22.0727 13.4924 21.5325 13.7045C20.9922 13.9167 20.3791 14.0227 19.693 14.0227ZM19.7079 9.47869C20.0891 9.47869 20.4139 9.38589 20.6824 9.20028C20.9508 9.01468 21.1547 8.74787 21.2939 8.39986C21.4331 8.05185 21.5027 7.63423 21.5027 7.14702C21.5027 6.66643 21.4331 6.2455 21.2939 5.88423C21.158 5.52296 20.9558 5.2429 20.6873 5.04403C20.4222 4.84186 20.0957 4.74077 19.7079 4.74077C19.3069 4.74077 18.9721 4.84517 18.7037 5.05398C18.4352 5.26278 18.233 5.54948 18.0971 5.91406C17.9612 6.27533 17.8933 6.68632 17.8933 7.14702C17.8933 7.61435 17.9612 8.02367 18.0971 8.375C18.2363 8.72301 18.4402 8.99479 18.7086 9.19034C18.9804 9.38258 19.3135 9.47869 19.7079 9.47869ZM28.4529 11.1491C27.7072 11.1491 27.0609 10.9851 26.514 10.657C25.9672 10.3288 25.5429 9.86979 25.2413 9.27983C24.943 8.68987 24.7939 8.00047 24.7939 7.21165C24.7939 6.42282 24.943 5.73177 25.2413 5.13849C25.5429 4.54522 25.9672 4.08452 26.514 3.75639C27.0609 3.42827 27.7072 3.2642 28.4529 3.2642C29.1987 3.2642 29.845 3.42827 30.3919 3.75639C30.9387 4.08452 31.3613 4.54522 31.6596 5.13849C31.9612 5.73177 32.112 6.42282 32.112 7.21165C32.112 8.00047 31.9612 8.68987 31.6596 9.27983C31.3613 9.86979 30.9387 10.3288 30.3919 10.657C29.845 10.9851 29.1987 11.1491 28.4529 11.1491ZM28.4629 9.70739C28.8672 9.70739 29.2053 9.59635 29.4771 9.37429C29.7489 9.14891 29.9511 8.8473 30.0836 8.46946C30.2195 8.09162 30.2875 7.67069 30.2875 7.20668C30.2875 6.73935 30.2195 6.31676 30.0836 5.93892C29.9511 5.55777 29.7489 5.2545 29.4771 5.02912C29.2053 4.80374 28.8672 4.69105 28.4629 4.69105C28.0486 4.69105 27.7039 4.80374 27.4288 5.02912C27.157 5.2545 26.9532 5.55777 26.8173 5.93892C26.6847 6.31676 26.6184 6.73935 26.6184 7.20668C26.6184 7.67069 26.6847 8.09162 26.8173 8.46946C26.9532 8.8473 27.157 9.14891 27.4288 9.37429C27.7039 9.59635 28.0486 9.70739 28.4629 9.70739Z" fill="#1F2632"/>
</svg>
